{
classes = (
{
automatic = 1;

glyphs = (
{
color = 4;
glyphname = A;
lastChange = "2014-12-21 17:35:44 +0000";
layers = (
{
anchors = (
{
name = ogonek;
position = "{548, 0}";
},
{
name = top;
position = "{300, 689}";
},
{
name = topleft;
position = "{196, 689}";
}
);
layerId = UUID0;
name = Regular;
paths = (
{
closed = 1;
nodes = (
"483 0 LINE",
"583 0 LINE",
"360 689 LINE",
"240 689 LINE",
"17 0 LINE",
"112 0 LINE",
"165 173 LINE",
"430 173 LINE"
);
},
{
closed = 1;
nodes = (
"298 611 LINE",
"407 250 LINE",
"188 250 LINE"
);
}
);
width = 600;
},
{
anchors = (
{
name = ogonek;
position = "{543, 0}";
},
{
name = top;
position = "{301, 693}";
},
{
name = topleft;
position = "{180, 693}";
}
);
layerId = "BF448B58-7A35-489E-A1C9-12628F60690C";
name = Bold;
paths = (
{
closed = 1;
nodes = (
"435 0 LINE",
"613 0 LINE",
"401 693 LINE",
"200 693 LINE",
"-12 0 LINE",
"162 0 LINE",
"198 149 LINE",
"399 149 LINE"
);
},
{
closed = 1;
nodes = (
"298 574 LINE",
"372 269 LINE",
"224 269 LINE"
);
}
);
width = 600;
}
);
unicode = 0041;
userData = {
public.markColor = "0.67,0.95,0.38,1";
};
},
{
color = 4;
glyphname = AE;
lastChange = "2014-12-21 17:35:44 +0000";
layers = (
{
anchors = (
{
name = top;
position = "{360, 689}";
}
);
layerId = UUID0;
name = Regular;
paths = (
{
closed = 1;
nodes = (
"363 0 LINE",
"607 0 LINE",
"607 75 LINE",
"438 75 LINE",
"388 312 LINE",
"557 312 LINE",
"557 387 LINE",
"374 387 LINE",
"325 614 LINE",
"555 614 LINE",
"566 689 LINE",
"187 689 LINE",
"-12 0 LINE",
"84 0 LINE",
"131 173 LINE",
"328 173 LINE"
);
},
{
closed = 1;
nodes = (
"241 616 LINE",
"312 250 LINE",
"153 250 LINE"
);
}
);
width = 600;
},
{
anchors = (
{
name = top;
position = "{350, 693}";
}
);
layerId = "BF448B58-7A35-489E-A1C9-12628F60690C";
name = Bold;
paths = (
{
closed = 1;
nodes = (
"337 0 LINE",
"603 0 LINE",
"603 112 LINE",
"455 112 LINE",
"420 295 LINE",
"556 295 LINE",
"556 407 LINE",
"400 407 LINE",
"367 581 LINE",
"548 581 LINE",
"565 693 LINE",
"162 693 LINE",
"-12 0 LINE",
"147 0 LINE",
"174 152 LINE",
"313 152 LINE"
);
},
{
closed = 1;
nodes = (
"245 582 LINE",
"296 265 LINE",
"192 265 LINE"
);
}
);
width = 600;
}
);
unicode = 00C6;
userData = {
public.markColor = "0.67,0.95,0.38,1";
};
},
{
color = 4;
glyphname = B;
lastChange = "2014-12-21 17:35:44 +0000";
layers = (
{
layerId = UUID0;
name = Regular;
paths = (
{
closed = 1;
nodes = (
"443 96 OFFCURVE",
"362 77 OFFCURVE",
"295 77 CURVE SMOOTH",
"187 77 LINE",
"187 322 LINE",
"299 322 LINE SMOOTH",
"378 322 OFFCURVE",
"443 296 OFFCURVE",
"443 195 CURVE SMOOTH"
);
},
{
closed = 1;
nodes = (
"416 431 OFFCURVE",
"372 398 OFFCURVE",
"292 398 CURVE SMOOTH",
"187 398 LINE",
"187 614 LINE",
"284 614 LINE SMOOTH",
"366 614 OFFCURVE",
"416 585 OFFCURVE",
"416 509 CURVE SMOOTH"
);
},
{
closed = 1;
nodes = (
"543 313 OFFCURVE",
"461 352 OFFCURVE",
"385 365 CURVE",
"451 380 OFFCURVE",
"513 427 OFFCURVE",
"513 515 CURVE SMOOTH",
"513 650 OFFCURVE",
"390 689 OFFCURVE",
"267 689 CURVE SMOOTH",
"92 689 LINE",
"92 0 LINE",
"282 0 LINE SMOOTH",
"411 0 OFFCURVE",
"543 46 OFFCURVE",
"543 197 CURVE SMOOTH"
);
}
);
width = 600;
},
{
layerId = "BF448B58-7A35-489E-A1C9-12628F60690C";
name = Bold;
paths = (
{
closed = 1;
nodes = (
"401 135 OFFCURVE",
"344 121 OFFCURVE",
"280 121 CURVE SMOOTH",
"221 121 LINE",
"221 306 LINE",
"287 306 LINE SMOOTH",
"356 306 OFFCURVE",
"401 282 OFFCURVE",
"401 210 CURVE SMOOTH"
);
},
{
closed = 1;
nodes = (
"375 441 OFFCURVE",
"345 417 OFFCURVE",
"275 417 CURVE SMOOTH",
"221 417 LINE",
"221 576 LINE",
"270 576 LINE SMOOTH",
"342 576 OFFCURVE",
"375 553 OFFCURVE",
"375 499 CURVE SMOOTH"
);
},
{
closed = 1;
nodes = (
"572 314 OFFCURVE",
"489 355 OFFCURVE",
"415 367 CURVE",
"483 384 OFFCURVE",
"542 433 OFFCURVE",
"542 516 CURVE SMOOTH",
"542 651 OFFCURVE",
"419 693 OFFCURVE",
"276 693 CURVE SMOOTH",
"55 693 LINE",
"55 0 LINE",
"286 0 LINE SMOOTH",
"437 0 OFFCURVE",
"572 43 OFFCURVE",
"572 203 CURVE SMOOTH"
);
}
);
width = 600;
}
);
unicode = 0042;
userData = {
public.markColor = "0.67,0.95,0.38,1";
};
},
{
color = 4;
glyphname = C;
lastChange = "2014-12-21 17:35:44 +0000";
layers = (
{
anchors = (
{
name = bottom;
position = "{350, 0}";
},
{
name = top;
position = "{365, 689}";
}
);
layerId = UUID0;
name = Regular;
paths = (
{
closed = 1;
nodes = (
"196 701 OFFCURVE",
"60 577 OFFCURVE",
"60 345 CURVE SMOOTH",
"60 113 OFFCURVE",
"191 -12 OFFCURVE",
"361 -12 CURVE SMOOTH",
"460 -12 OFFCURVE",
"527 23 OFFCURVE",
"570 65 CURVE",
"522 126 LINE",
"485 96 OFFCURVE",
"439 68 OFFCURVE",
"363 68 CURVE SMOOTH",
"248 68 OFFCURVE",
"159 144 OFFCURVE",
"159 345 CURVE SMOOTH",
"159 551 OFFCURVE",
"254 623 OFFCURVE",
"364 623 CURVE SMOOTH",
"417 623 OFFCURVE",
"465 608 OFFCURVE",
"508 572 CURVE",
"560 633 LINE",
"505 677 OFFCURVE",
"449 701 OFFCURVE",
"358 701 CURVE SMOOTH"
);
}
);
width = 600;
},
{
anchors = (
{
name = bottom;
position = "{352, 0}";
},
{
name = top;
position = "{361, 693}";
}
);
layerId = "BF448B58-7A35-489E-A1C9-12628F60690C";
name = Bold;
paths = (
{
closed = 1;
nodes = (
"174 711 OFFCURVE",
"33 580 OFFCURVE",
"33 348 CURVE SMOOTH",
"33 110 OFFCURVE",
"167 -17 OFFCURVE",
"356 -17 CURVE SMOOTH",
"463 -17 OFFCURVE",
"538 25 OFFCURVE",
"590 77 CURVE",
"515 173 LINE",
"476 142 OFFCURVE",
"434 111 OFFCURVE",
"365 111 CURVE SMOOTH",
"271 111 OFFCURVE",
"205 182 OFFCURVE",
"205 348 CURVE SMOOTH",
"205 517 OFFCURVE",
"275 588 OFFCURVE",
"362 588 CURVE SMOOTH",
"416 588 OFFCURVE",
"462 568 OFFCURVE",
"500 537 CURVE",
"581 635 LINE",
"523 683 OFFCURVE",
"458 711 OFFCURVE",
"358 711 CURVE SMOOTH"
);
}
);
width = 600;
}
);
unicode = 0043;
userData = {
public.markColor = "0.67,0.95,0.38,1";
};
},
{
color = 4;
glyphname = D;
lastChange = "2014-12-21 17:35:44 +0000";
layers = (
{
anchors = (
{
name = center;
position = "{300, 345}";
},
{
name = top;
position = "{284, 689}";
}
);
layerId = UUID0;
name = Regular;
paths = (
{
closed = 1;
nodes = (
"454 125 OFFCURVE",
"350 75 OFFCURVE",
"252 75 CURVE SMOOTH",
"175 75 LINE",
"175 613 LINE",
"251 613 LINE SMOOTH",
"345 613 OFFCURVE",
"454 582 OFFCURVE",
"454 348 CURVE SMOOTH"
);
},
{
closed = 1;
nodes = (
"555 634 OFFCURVE",
"393 689 OFFCURVE",
"230 689 CURVE SMOOTH",
"80 689 LINE",
"80 0 LINE",
"241 0 LINE SMOOTH",
"387 0 OFFCURVE",
"555 60 OFFCURVE",
"555 348 CURVE SMOOTH"
);
}
);
width = 600;
},
{
anchors = (
{
name = center;
position = "{300, 347}";
},
{
name = top;
position = "{287, 693}";
}
);
layerId = "BF448B58-7A35-489E-A1C9-12628F60690C";
name = Bold;
paths = (
{
closed = 1;
nodes = (
"403 169 OFFCURVE",
"342 120 OFFCURVE",
"251 120 CURVE SMOOTH",
"217 120 LINE",
"217 573 LINE",
"251 573 LINE SMOOTH",
"338 573 OFFCURVE",
"403 535 OFFCURVE",
"403 350 CURVE SMOOTH"
);
},
{
closed = 1;
nodes = (
"575 636 OFFCURVE",
"405 693 OFFCURVE",
"227 693 CURVE SMOOTH",
"51 693 LINE",
"51 0 LINE",
"239 0 LINE SMOOTH",
"412 0 OFFCURVE",
"575 68 OFFCURVE",
"575 350 CURVE SMOOTH"
);
}
);
width = 600;
}
);
unicode = 0044;
userData = {
public.markColor = "0.67,0.95,0.38,1";
};
},
{
color = 3;
glyphname = Eth;
lastChange = "2014-12-21 17:35:44 +0000";
layers = (
{
components = (
{
name = D;
transform = "{1, 0, 0, 1, 10, 0}";
}
);
layerId = UUID0;
name = Regular;
paths = (
{
closed = 1;
nodes = (
"185 388 LINE",
"19 388 LINE",
"19 318 LINE",
"90 318 LINE",
"339 318 LINE",
"339 388 LINE"
);
}
);
width = 600;
},
{
components = (
{
name = D;
transform = "{1, 0, 0, 1, 13, 0}";
}
);
layerId = "BF448B58-7A35-489E-A1C9-12628F60690C";
name = Bold;
paths = (
{
closed = 1;
nodes = (
"64 403 LINE",
"9 403 LINE",
"9 303 LINE",
"230 303 LINE",
"349 303 LINE",
"349 403 LINE"
);
}
);
width = 600;
}
);
unicode = 00D0;
userData = {
public.markColor = "0.97,1,0,1";
};
},
{
color = 4;
glyphname = E;
lastChange = "2014-12-21 17:35:44 +0000";
layers = (
{
anchors = (
{
name = bottom;
position = "{325, 0}";
},
{
name = ogonek;
position = "{478, 0}";
},
{
name = top;
position = "{321, 689}";
},
{
name = topleft;
position = "{112, 689}";
}
);
layerId = UUID0;
name = Regular;
paths = (
{
closed = 1;
nodes = (
"509 613 LINE",
"520 689 LINE",
"122 689 LINE",
"122 0 LINE",
"528 0 LINE",
"528 75 LINE",
"217 75 LINE",
"217 312 LINE",
"471 312 LINE",
"471 388 LINE",
"217 388 LINE",
"217 613 LINE"
);
}
);
width = 600;
},
{
anchors = (
{
name = bottom;
position = "{320, 0}";
},
{
name = ogonek;
position = "{477, 0}";
},
{
name = top;
position = "{320, 693}";
},
{
name = topleft;
position = "{74, 693}";
}
);
layerId = "BF448B58-7A35-489E-A1C9-12628F60690C";
name = Bold;
paths = (
{
closed = 1;
nodes = (
"530 575 LINE",
"547 693 LINE",
"92 693 LINE",
"92 0 LINE",
"547 0 LINE",
"547 119 LINE",
"258 119 LINE",
"258 294 LINE",
"498 294 LINE",
"498 410 LINE",
"258 410 LINE",
"258 575 LINE"
);
}
);
width = 600;
}
);
unicode = 0045;
userData = {
public.markColor = "0.67,0.95,0.38,1";
};
},
{
color = 4;
glyphname = F;
lastChange = "2014-12-21 17:35:44 +0000";
layers = (
{
layerId = UUID0;
name = Regular;
paths = (
{
closed = 1;
nodes = (
"535 613 LINE",
"546 689 LINE",
"135 689 LINE",
"135 0 LINE",
"230 0 LINE",
"230 303 LINE",
"497 303 LINE",
"497 378 LINE",
"230 378 LINE",
"230 613 LINE"
);
}
);
width = 600;
},
{
layerId = "BF448B58-7A35-489E-A1C9-12628F60690C";
name = Bold;
paths = (
{
closed = 1;
nodes = (
"547 575 LINE",
"564 693 LINE",
"107 693 LINE",
"107 0 LINE",
"274 0 LINE",
"274 274 LINE",
"516 274 LINE",
"516 393 LINE",
"274 393 LINE",
"274 575 LINE"
);
}
);
width = 600;
}
);
unicode = 0046;
userData = {
public.markColor = "0.67,0.95,0.38,1";
};
},
{
color = 4;
glyphname = G;
lastChange = "2014-12-21 17:35:44 +0000";
layers = (
{
anchors = (
{
name = bottom;
position = "{330, 0}";
},
{
name = top;
position = "{330, 689}";
}
);
layerId = UUID0;
name = Regular;
paths = (
{
closed = 1;
nodes = (
"412 -12 OFFCURVE",
"479 14 OFFCURVE",
"542 49 CURVE",
"542 379 LINE",
"307 379 LINE",
"318 302 LINE",
"448 302 LINE",
"448 98 LINE",
"410 77 OFFCURVE",
"368 66 OFFCURVE",
"322 66 CURVE SMOOTH",
"205 66 OFFCURVE",
"144 147 OFFCURVE",
"144 345 CURVE SMOOTH",
"144 553 OFFCURVE",
"237 623 OFFCURVE",
"336 623 CURVE SMOOTH",
"392 623 OFFCURVE",
"436 605 OFFCURVE",
"478 566 CURVE",
"534 624 LINE",
"480 674 OFFCURVE",
"426 701 OFFCURVE",
"335 701 CURVE SMOOTH",
"183 701 OFFCURVE",
"43 582 OFFCURVE",
"43 345 CURVE SMOOTH",
"43 107 OFFCURVE",
"148 -12 OFFCURVE",
"315 -12 CURVE SMOOTH"
);
}
);
width = 600;
},
{
anchors = (
{
name = bottom;
position = "{327, 0}";
},
{
name = top;
position = "{330, 693}";
}
);
layerId = "BF448B58-7A35-489E-A1C9-12628F60690C";
name = Bold;
paths = (
{
closed = 1;
nodes = (
"420 -17 OFFCURVE",
"499 10 OFFCURVE",
"569 53 CURVE",
"569 398 LINE",
"310 398 LINE",
"326 282 LINE",
"412 282 LINE",
"412 125 LINE",
"388 112 OFFCURVE",
"359 104 OFFCURVE",
"327 104 CURVE SMOOTH",
"236 104 OFFCURVE",
"193 166 OFFCURVE",
"193 347 CURVE SMOOTH",
"193 520 OFFCURVE",
"260 590 OFFCURVE",
"353 590 CURVE SMOOTH",
"402 590 OFFCURVE",
"437 572 OFFCURVE",
"479 535 CURVE",
"566 625 LINE",
"512 676 OFFCURVE",
"446 711 OFFCURVE",
"345 711 CURVE SMOOTH",
"164 711 OFFCURVE",
"22 584 OFFCURVE",
"22 348 CURVE SMOOTH",
"22 110 OFFCURVE",
"128 -17 OFFCURVE",
"326 -17 CURVE SMOOTH"
);
}
);
width = 600;
}
);
unicode = 0047;
userData = {
public.markColor = "0.67,0.95,0.38,1";
};
},
{
color = 4;
glyphname = H;
lastChange = "2014-12-21 17:35:44 +0000";
layers = (
{
anchors = (
{
name = bottomright;
position = "{530, 0}";
},
{
name = center;
position = "{300, 345}";
},
{
name = top;
position = "{300, 689}";
}
);
layerId = UUID0;
name = Regular;
paths = (
{
closed = 1;
nodes = (
"520 0 LINE",
"520 689 LINE",
"425 689 LINE",
"425 401 LINE",
"175 401 LINE",
"175 689 LINE",
"80 689 LINE",
"80 0 LINE",
"175 0 LINE",
"175 323 LINE",
"425 323 LINE",
"425 0 LINE"
);
}
);
width = 600;
},
{
anchors = (
{
name = bottomright;
position = "{559, 0}";
},
{
name = center;
position = "{300, 347}";
},
{
name = top;
position = "{300, 693}";
}
);
layerId = "BF448B58-7A35-489E-A1C9-12628F60690C";
name = Bold;
paths = (
{
closed = 1;
nodes = (
"549 0 LINE",
"549 693 LINE",
"383 693 LINE",
"383 430 LINE",
"217 430 LINE",
"217 693 LINE",
"51 693 LINE",
"51 0 LINE",
"217 0 LINE",
"217 289 LINE",
"383 289 LINE",
"383 0 LINE"
);
}
);
width = 600;
}
);
unicode = 0048;
userData = {
public.markColor = "0.67,0.95,0.38,1";
};
},
{
color = 4;
glyphname = Hbar;
lastChange = "2014-12-21 17:35:44 +0000";
layers = (
{
layerId = UUID0;
name = Regular;
paths = (
{
closed = 1;
nodes = (
"425 689 LINE",
"425 401 LINE",
"175 401 LINE",
"175 689 LINE",
"80 689 LINE",
"80 0 LINE",
"175 0 LINE",
"175 323 LINE",
"425 323 LINE",
"425 0 LINE",
"520 0 LINE",
"520 689 LINE"
);
},
{
closed = 1;
nodes = (
"520 577 LINE",
"80 577 LINE",
"2 577 LINE",
"2 508 LINE",
"598 508 LINE",
"598 577 LINE"
);
}
);
width = 600;
},
{
anchors = (
{
name = center;
position = "{300, 347}";
},
{
name = top;
position = "{300, 693}";
}
);
layerId = "BF448B58-7A35-489E-A1C9-12628F60690C";
name = Bold;
paths = (
{
closed = 1;
nodes = (
"378 693 LINE",
"378 425 LINE",
"222 425 LINE",
"222 693 LINE",
"56 693 LINE",
"56 0 LINE",
"222 0 LINE",
"222 296 LINE",
"378 296 LINE",
"378 0 LINE",
"544 0 LINE",
"544 693 LINE"
);
},
{
closed = 1;
nodes = (
"544 592 LINE",
"56 592 LINE",
"2 592 LINE",
"2 500 LINE",
"598 500 LINE",
"598 592 LINE"
);
}
);
width = 600;
}
);
unicode = 0126;
userData = {
public.markColor = "0.67,0.95,0.38,1";
};
},
{
color = 4;
glyphname = I;
lastChange = "2014-12-21 17:35:44 +0000";
layers = (
{
anchors = (
{
name = ogonek;
position = "{358, 0}";
},
{
name = top;
position = "{300, 689}";
}
);
layerId = UUID0;
name = Regular;
paths = (
{
closed = 1;
nodes = (
"100 689 LINE",
"100 614 LINE",
"252 614 LINE",
"252 75 LINE",
"100 75 LINE",
"100 0 LINE",
"500 0 LINE",
"500 75 LINE",
"348 75 LINE",
"348 614 LINE",
"500 614 LINE",
"500 689 LINE"
);
}
);
width = 600;
},
{
anchors = (
{
name = ogonek;
position = "{393, 0}";
},
{
name = top;
position = "{300, 693}";
},
{
name = topleft;
position = "{64, 693}";
}
);
layerId = "BF448B58-7A35-489E-A1C9-12628F60690C";
name = Bold;
paths = (
{
closed = 1;
nodes = (
"74 693 LINE",
"74 572 LINE",
"217 572 LINE",
"217 122 LINE",
"74 122 LINE",
"74 0 LINE",
"526 0 LINE",
"526 122 LINE",
"383 122 LINE",
"383 572 LINE",
"526 572 LINE",
"526 693 LINE"
);
}
);
width = 600;
}
);
unicode = 0049;
userData = {
public.markColor = "0.67,0.95,0.38,1";
};
},
{
color = 4;
glyphname = IJ;
lastChange = "2014-12-21 17:35:44 +0000";
layers = (
{
layerId = UUID0;
name = Regular;
paths = (
{
closed = 1;
nodes = (
"204 -141 LINE",
"470 -115 OFFCURVE",
"535 27 OFFCURVE",
"535 186 CURVE SMOOTH",
"535 689 LINE",
"11 689 LINE",
"11 614 LINE",
"108 614 LINE",
"108 75 LINE",
"11 75 LINE",
"11 0 LINE",
"281 0 LINE",
"281 75 LINE",
"204 75 LINE",
"204 614 LINE",
"440 614 LINE",
"440 190 LINE SMOOTH",
"440 43 OFFCURVE",
"394 -50 OFFCURVE",
"193 -71 CURVE"
);
}
);
width = 600;
},
{
layerId = "BF448B58-7A35-489E-A1C9-12628F60690C";
name = Bold;
paths = (
{
closed = 1;
nodes = (
"200 -184 LINE",
"463 -141 OFFCURVE",
"557 -19 OFFCURVE",
"557 170 CURVE SMOOTH",
"557 693 LINE",
"8 693 LINE",
"8 591 LINE",
"80 591 LINE",
"80 103 LINE",
"8 103 LINE",
"8 0 LINE",
"285 0 LINE",
"285 103 LINE",
"233 103 LINE",
"233 591 LINE",
"397 591 LINE",
"397 163 LINE SMOOTH",
"397 29 OFFCURVE",
"364 -40 OFFCURVE",
"181 -72 CURVE"
);
}
);
width = 600;
}
);
unicode = 0132;
userData = {
public.markColor = "0.67,0.95,0.38,1";
};
},
{
color = 4;
glyphname = J;
lastChange = "2014-12-21 17:35:44 +0000";
layers = (
{
anchors = (
{
name = top;
position = "{350, 689}";
}
);
layerId = UUID0;
name = Regular;
paths = (
{
closed = 1;
nodes = (
"200 689 LINE",
"200 613 LINE",
"405 613 LINE",
"405 235 LINE SMOOTH",
"405 129 OFFCURVE",
"351 66 OFFCURVE",
"258 66 CURVE SMOOTH",
"216 66 OFFCURVE",
"168 76 OFFCURVE",
"110 113 CURVE",
"69 51 LINE",
"124 10 OFFCURVE",
"190 -12 OFFCURVE",
"260 -12 CURVE SMOOTH",
"441 -12 OFFCURVE",
"500 111 OFFCURVE",
"500 231 CURVE SMOOTH",
"500 689 LINE"
);
}
);
width = 600;
},
{
anchors = (
{
name = top;
position = "{352, 693}";
}
);
layerId = "BF448B58-7A35-489E-A1C9-12628F60690C";
name = Bold;
paths = (
{
closed = 1;
nodes = (
"149 693 LINE",
"149 572 LINE",
"362 572 LINE",
"362 248 LINE SMOOTH",
"362 152 OFFCURVE",
"308 108 OFFCURVE",
"238 108 CURVE SMOOTH",
"185 108 OFFCURVE",
"148 120 OFFCURVE",
"101 152 CURVE",
"38 50 LINE",
"98 9 OFFCURVE",
"158 -15 OFFCURVE",
"248 -15 CURVE SMOOTH",
"425 -15 OFFCURVE",
"528 87 OFFCURVE",
"528 250 CURVE SMOOTH",
"528 693 LINE"
);
}
);
width = 600;
}
);
unicode = 004A;
userData = {
public.markColor = "0.67,0.95,0.38,1";
};
},
{
color = 4;
glyphname = K;
lastChange = "2014-12-21 17:35:44 +0000";
layers = (
{
anchors = (
{
name = bottom;
position = "{320, 0}";
},
{
name = top;
position = "{324, 689}";
}
);
layerId = UUID0;
name = Regular;
paths = (
{
closed = 1;
nodes = (
"195 689 LINE",
"100 689 LINE",
"100 0 LINE",
"195 0 LINE"
);
},
{
closed = 1;
nodes = (
"472 0 LINE",
"589 0 LINE",
"309 374 LINE",
"570 689 LINE",
"462 689 LINE",
"200 368 LINE"
);
}
);
width = 600;
},
{
anchors = (
{
name = bottom;
position = "{300, 0}";
},
{
name = top;
position = "{300, 693}";
}
);
layerId = "BF448B58-7A35-489E-A1C9-12628F60690C";
name = Bold;
paths = (
{
closed = 1;
nodes = (
"224 693 LINE",
"58 693 LINE",
"58 0 LINE",
"224 0 LINE"
);
},
{
closed = 1;
nodes = (
"417 0 LINE",
"609 0 LINE",
"396 382 LINE",
"590 693 LINE",
"416 693 LINE",
"229 370 LINE"
);
}
);
width = 600;
}
);
unicode = 004B;
userData = {
public.markColor = "0.67,0.95,0.38,1";
};
},
{
color = 4;
glyphname = L;
lastChange = "2014-12-21 17:35:44 +0000";
layers = (
{
anchors = (
{
name = bottom;
position = "{330, 0}";
},
{
name = center;
position = "{471, 380}";
},
{
name = top;
position = "{179, 689}";
},
{
name = topright;
position = "{276, 689}";
}
);
layerId = UUID0;
name = Regular;
paths = (
{
closed = 1;
nodes = (
"528 0 LINE",
"539 83 LINE",
"226 83 LINE",
"226 689 LINE",
"131 689 LINE",
"131 0 LINE"
);
}
);
width = 600;
},
{
anchors = (
{
name = bottom;
position = "{317, 0}";
},
{
name = center;
position = "{466, 385}";
},
{
name = top;
position = "{175, 693}";
},
{
name = topright;
position = "{308, 693}";
}
);
layerId = "BF448B58-7A35-489E-A1C9-12628F60690C";
name = Bold;
paths = (
{
closed = 1;
nodes = (
"541 0 LINE",
"558 131 LINE",
"258 131 LINE",
"258 693 LINE",
"92 693 LINE",
"92 0 LINE"
);
}
);
width = 600;
}
);
unicode = 004C;
userData = {
public.markColor = "0.67,0.95,0.38,1";
};
},
{
color = 3;
glyphname = Lslash;
lastChange = "2014-12-21 17:35:44 +0000";
layers = (
{
components = (
{
name = L;
transform = "{1, 0, 0, 1, 0, 0}";
}
);
layerId = UUID0;
name = Regular;
paths = (
{
closed = 1;
nodes = (
"425 446 LINE",
"386 505 LINE",
"131 346 LINE",
"37 289 LINE",
"75 229 LINE"
);
}
);
width = 600;
},
{
components = (
{
name = L;
transform = "{1, 0, 0, 1, 15, 0}";
}
);
layerId = "BF448B58-7A35-489E-A1C9-12628F60690C";
name = Bold;
paths = (
{
closed = 1;
nodes = (
"451 442 LINE",
"396 528 LINE",
"107 349 LINE",
"8 288 LINE",
"62 200 LINE"
);
}
);
width = 600;
}
);
unicode = 0141;
userData = {
public.markColor = "0.97,1,0,1";
};
},
{
color = 4;
glyphname = M;
lastChange = "2014-12-21 17:35:44 +0000";
layers = (
{
layerId = UUID0;
name = Regular;
paths = (
{
closed = 1;
nodes = (
"405 689 LINE",
"302 220 LINE",
"194 689 LINE",
"68 689 LINE",
"29 0 LINE",
"117 0 LINE",
"134 353 LINE SMOOTH",
"138 442 OFFCURVE",
"137 560 OFFCURVE",
"136 584 CURVE",
"140 584 LINE",
"254 123 LINE",
"345 123 LINE",
"454 584 LINE",
"457 584 LINE",
"456 562 OFFCURVE",
"456 450 OFFCURVE",
"461 353 CURVE SMOOTH",
"481 0 LINE",
"571 0 LINE",
"532 689 LINE"
);
}
);
width = 600;
},
{
layerId = "BF448B58-7A35-489E-A1C9-12628F60690C";
name = Bold;
paths = (
{
closed = 1;
nodes = (
"374 693 LINE",
"302 246 LINE",
"226 693 LINE",
"56 693 LINE",
"17 0 LINE",
"159 0 LINE",
"164 292 LINE SMOOTH",
"166 404 OFFCURVE",
"162 463 OFFCURVE",
"154 537 CURVE",
"158 537 LINE",
"237 118 LINE",
"362 118 LINE",
"435 537 LINE",
"439 537 LINE",
"432 458 OFFCURVE",
"427 405 OFFCURVE",
"430 295 CURVE SMOOTH",
"438 0 LINE",
"583 0 LINE",
"544 693 LINE"
);
}
);
width = 600;
}
);
unicode = 004D;
userData = {
public.markColor = "0.67,0.95,0.38,1";
};
},
{
color = 4;
glyphname = N;
lastChange = "2014-12-21 17:35:44 +0000";
layers = (
{
anchors = (
{
name = bottom;
position = "{300, 0}";
},
{
name = top;
position = "{300, 689}";
}
);
layerId = UUID0;
name = Regular;
paths = (
{
closed = 1;
nodes = (
"520 0 LINE",
"520 689 LINE",
"433 689 LINE",
"433 353 LINE SMOOTH",
"433 229 OFFCURVE",
"444 119 OFFCURVE",
"446 103 CURVE",
"442 103 LINE",
"207 689 LINE",
"80 689 LINE",
"80 0 LINE",
"167 0 LINE",
"167 336 LINE SMOOTH",
"167 444 OFFCURVE",
"156 567 OFFCURVE",
"154 583 CURVE",
"158 583 LINE",
"390 0 LINE"
);
}
);
width = 600;
},
{
anchors = (
{
name = bottom;
position = "{300, 0}";
},
{
name = top;
position = "{310, 693}";
}
);
layerId = "BF448B58-7A35-489E-A1C9-12628F60690C";
name = Bold;
paths = (
{
closed = 1;
nodes = (
"549 0 LINE",
"549 693 LINE",
"408 693 LINE",
"408 430 LINE SMOOTH",
"408 305 OFFCURVE",
"422 204 OFFCURVE",
"433 154 CURVE",
"429 154 LINE",
"258 693 LINE",
"51 693 LINE",
"51 0 LINE",
"192 0 LINE",
"192 259 LINE SMOOTH",
"192 381 OFFCURVE",
"176 496 OFFCURVE",
"167 538 CURVE",
"171 538 LINE",
"348 0 LINE"
);
}
);
width = 600;
}
);
unicode = 004E;
userData = {
public.markColor = "0.67,0.95,0.38,1";
};
},
{
color = 4;
glyphname = Eng;
lastChange = "2014-12-21 17:35:44 +0000";
layers = (
{
layerId = UUID0;
name = Regular;
paths = (
{
closed = 1;
nodes = (
"520 689 LINE",
"433 689 LINE",
"433 353 LINE SMOOTH",
"433 229 OFFCURVE",
"444 119 OFFCURVE",
"446 103 CURVE",
"442 103 LINE",
"207 689 LINE",
"80 689 LINE",
"80 0 LINE",
"167 0 LINE",
"167 336 LINE SMOOTH",
"167 444 OFFCURVE",
"156 567 OFFCURVE",
"154 583 CURVE",
"158 583 LINE",
"390 0 LINE",
"428 0 LINE",
"428 -68 OFFCURVE",
"406 -106 OFFCURVE",
"317 -141 CURVE",
"341 -213 LINE",
"451 -175 OFFCURVE",
"520 -114 OFFCURVE",
"520 0 CURVE"
);
}
);
width = 600;
},
{
layerId = "BF448B58-7A35-489E-A1C9-12628F60690C";
name = Bold;
paths = (
{
closed = 1;
nodes = (
"549 693 LINE",
"408 693 LINE",
"408 430 LINE SMOOTH",
"408 305 OFFCURVE",
"422 204 OFFCURVE",
"433 154 CURVE",
"429 154 LINE",
"258 693 LINE",
"51 693 LINE",
"51 0 LINE",
"192 0 LINE",
"192 259 LINE SMOOTH",
"192 381 OFFCURVE",
"176 496 OFFCURVE",
"167 538 CURVE",
"171 538 LINE",
"348 0 LINE",
"406 0 LINE",
"399 -56 OFFCURVE",
"370 -84 OFFCURVE",
"291 -116 CURVE",
"326 -222 LINE",
"443 -183 OFFCURVE",
"549 -118 OFFCURVE",
"549 47 CURVE"
);
}
);
width = 600;
}
);
unicode = 014A;
userData = {
public.markColor = "0.67,0.95,0.38,1";
};
},
{
color = 4;
glyphname = O;
lastChange = "2014-12-21 17:35:44 +0000";
layers = (
{
anchors = (
{
name = top;
position = "{300, 689}";
}
);
layerId = UUID0;
name = Regular;
paths = (
{
closed = 1;
nodes = (
"556 558 OFFCURVE",
"469 701 OFFCURVE",
"300 701 CURVE SMOOTH",
"131 701 OFFCURVE",
"44 553 OFFCURVE",
"44 343 CURVE SMOOTH",
"44 129 OFFCURVE",
"131 -12 OFFCURVE",
"300 -12 CURVE SMOOTH",
"469 -12 OFFCURVE",
"556 134 OFFCURVE",
"556 344 CURVE SMOOTH"
);
},
{
closed = 1;
nodes = (
"457 162 OFFCURVE",
"412 66 OFFCURVE",
"300 66 CURVE SMOOTH",
"191 66 OFFCURVE",
"143 161 OFFCURVE",
"143 343 CURVE SMOOTH",
"143 525 OFFCURVE",
"188 623 OFFCURVE",
"300 623 CURVE SMOOTH",
"412 623 OFFCURVE",
"457 526 OFFCURVE",
"457 344 CURVE SMOOTH"
);
}
);
width = 600;
},
{
anchors = (
{
name = top;
position = "{300, 693}";
}
);
layerId = "BF448B58-7A35-489E-A1C9-12628F60690C";
name = Bold;
paths = (
{
closed = 1;
nodes = (
"578 572 OFFCURVE",
"482 711 OFFCURVE",
"300 711 CURVE SMOOTH",
"118 711 OFFCURVE",
"22 567 OFFCURVE",
"22 347 CURVE SMOOTH",
"22 122 OFFCURVE",
"118 -17 OFFCURVE",
"300 -17 CURVE SMOOTH",
"482 -17 OFFCURVE",
"578 127 OFFCURVE",
"578 347 CURVE SMOOTH"
);
},
{
closed = 1;
nodes = (
"408 179 OFFCURVE",
"379 104 OFFCURVE",
"300 104 CURVE SMOOTH",
"224 104 OFFCURVE",
"192 177 OFFCURVE",
"192 347 CURVE SMOOTH",
"192 517 OFFCURVE",
"223 590 OFFCURVE",
"300 590 CURVE SMOOTH",
"377 590 OFFCURVE",
"408 517 OFFCURVE",
"408 347 CURVE SMOOTH"
);
}
);
width = 600;
}
);
unicode = 004F;
userData = {
public.markColor = "0.67,0.95,0.38,1";
};
},
{
color = 4;
glyphname = Oslash;
lastChange = "2014-12-21 17:35:44 +0000";
layers = (
{
anchors = (
{
name = top;
position = "{300, 689}";
}
);
layerId = UUID0;
name = Regular;
paths = (
{
closed = 1;
nodes = (
"131 701 OFFCURVE",
"44 553 OFFCURVE",
"44 343 CURVE SMOOTH",
"44 129 OFFCURVE",
"133 -12 OFFCURVE",
"300 -12 CURVE SMOOTH",
"469 -12 OFFCURVE",
"556 134 OFFCURVE",
"556 344 CURVE SMOOTH",
"556 558 OFFCURVE",
"467 701 OFFCURVE",
"300 701 CURVE SMOOTH"
);
},
{
closed = 1;
nodes = (
"362 689 LINE",
"351 632 LINE",
"195 92 LINE",
"167 38 LINE",
"127 -89 LINE",
"206 -110 LINE",
"241 5 LINE",
"249 57 LINE",
"407 604 LINE",
"435 656 LINE",
"474 782 LINE",
"395 803 LINE"
);
},
{
closed = 1;
nodes = (
"412 623 OFFCURVE",
"457 546 OFFCURVE",
"457 344 CURVE SMOOTH",
"457 162 OFFCURVE",
"412 66 OFFCURVE",
"300 66 CURVE SMOOTH",
"191 66 OFFCURVE",
"143 141 OFFCURVE",
"143 343 CURVE SMOOTH",
"143 525 OFFCURVE",
"188 623 OFFCURVE",
"300 623 CURVE SMOOTH"
);
}
);
width = 600;
},
{
anchors = (
{
name = top;
position = "{300, 693}";
}
);
layerId = "BF448B58-7A35-489E-A1C9-12628F60690C";
name = Bold;
paths = (
{
closed = 1;
nodes = (
"118 711 OFFCURVE",
"22 567 OFFCURVE",
"22 347 CURVE SMOOTH",
"22 122 OFFCURVE",
"128 -17 OFFCURVE",
"300 -17 CURVE SMOOTH",
"482 -17 OFFCURVE",
"578 127 OFFCURVE",
"578 347 CURVE SMOOTH",
"578 572 OFFCURVE",
"472 711 OFFCURVE",
"300 711 CURVE SMOOTH"
);
},
{
closed = 1;
nodes = (
"347 693 LINE",
"340 617 LINE",
"207 164 LINE",
"151 63 LINE",
"108 -76 LINE",
"220 -109 LINE",
"253 4 LINE",
"270 103 LINE",
"398 542 LINE",
"454 650 LINE",
"492 770 LINE",
"380 803 LINE"
);
},
{
closed = 1;
nodes = (
"383 593 OFFCURVE",
"414 520 OFFCURVE",
"414 347 CURVE SMOOTH",
"414 176 OFFCURVE",
"383 101 OFFCURVE",
"300 101 CURVE SMOOTH",
"218 101 OFFCURVE",
"186 174 OFFCURVE",
"186 347 CURVE SMOOTH",
"186 520 OFFCURVE",
"219 593 OFFCURVE",
"300 593 CURVE SMOOTH"
);
}
);
width = 600;
}
);
unicode = 00D8;
userData = {
public.markColor = "0.67,0.95,0.38,1";
};
},
{
color = 4;
glyphname = OE;
lastChange = "2014-12-21 17:35:44 +0000";
layers = (
{
layerId = UUID0;
name = Regular;
paths = (
{
closed = 1;
nodes = (
"70 701 OFFCURVE",
"0 573 OFFCURVE",
"0 343 CURVE SMOOTH",
"0 109 OFFCURVE",
"69 -12 OFFCURVE",
"213 -12 CURVE SMOOTH",
"239 -12 OFFCURVE",
"261 -7 OFFCURVE",
"284 0 CURVE",
"615 0 LINE",
"615 75 LINE",
"355 75 LINE",
"394 122 OFFCURVE",
"418 198 OFFCURVE",
"421 312 CURVE",
"571 312 LINE",
"571 387 LINE",
"421 387 LINE",
"416 497 OFFCURVE",
"394 570 OFFCURVE",
"359 614 CURVE",
"596 614 LINE",
"607 689 LINE",
"287 689 LINE",
"262 697 OFFCURVE",
"239 701 OFFCURVE",
"213 701 CURVE SMOOTH"
);
},
{
closed = 1;
nodes = (
"296 625 OFFCURVE",
"330 546 OFFCURVE",
"330 344 CURVE SMOOTH",
"330 142 OFFCURVE",
"294 63 OFFCURVE",
"213 63 CURVE SMOOTH",
"137 63 OFFCURVE",
"98 141 OFFCURVE",
"98 343 CURVE SMOOTH",
"98 545 OFFCURVE",
"134 625 OFFCURVE",
"213 625 CURVE SMOOTH"
);
}
);
width = 600;
},
{
layerId = "BF448B58-7A35-489E-A1C9-12628F60690C";
name = Bold;
paths = (
{
closed = 1;
nodes = (
"72 711 OFFCURVE",
"10 574 OFFCURVE",
"10 347 CURVE SMOOTH",
"10 115 OFFCURVE",
"72 -17 OFFCURVE",
"225 -17 CURVE SMOOTH",
"262 -17 OFFCURVE",
"288 -9 OFFCURVE",
"317 0 CURVE",
"596 0 LINE",
"596 112 LINE",
"394 112 LINE",
"418 157 OFFCURVE",
"434 218 OFFCURVE",
"438 295 CURVE",
"558 295 LINE",
"558 407 LINE",
"437 407 LINE",
"433 481 OFFCURVE",
"420 539 OFFCURVE",
"399 581 CURVE",
"579 581 LINE",
"596 693 LINE",
"321 693 LINE",
"288 704 OFFCURVE",
"262 711 OFFCURVE",
"225 711 CURVE SMOOTH"
);
},
{
closed = 1;
nodes = (
"286 598 OFFCURVE",
"303 534 OFFCURVE",
"303 347 CURVE SMOOTH",
"303 165 OFFCURVE",
"283 95 OFFCURVE",
"226 95 CURVE SMOOTH",
"171 95 OFFCURVE",
"151 165 OFFCURVE",
"151 347 CURVE SMOOTH",
"151 529 OFFCURVE",
"167 598 OFFCURVE",
"226 598 CURVE SMOOTH"
);
}
);
width = 600;
}
);
unicode = 0152;
userData = {
public.markColor = "0.67,0.95,0.38,1";
};
},
{
color = 4;
glyphname = P;
lastChange = "2014-12-21 17:35:44 +0000";
layers = (
{
layerId = UUID0;
name = Regular;
paths = (
{
closed = 1;
nodes = (
"458 361 OFFCURVE",
"391 328 OFFCURVE",
"298 328 CURVE SMOOTH",
"205 328 LINE",
"205 615 LINE",
"300 615 LINE SMOOTH",
"392 615 OFFCURVE",
"458 578 OFFCURVE",
"458 475 CURVE SMOOTH"
);
},
{
closed = 1;
nodes = (
"559 621 OFFCURVE",
"457 689 OFFCURVE",
"290 689 CURVE SMOOTH",
"110 689 LINE",
"110 0 LINE",
"205 0 LINE",
"205 253 LINE",
"292 253 LINE SMOOTH",
"448 253 OFFCURVE",
"559 315 OFFCURVE",
"559 476 CURVE SMOOTH"
);
}
);
width = 600;
},
{
layerId = "BF448B58-7A35-489E-A1C9-12628F60690C";
name = Bold;
paths = (
{
closed = 1;
nodes = (
"406 386 OFFCURVE",
"363 350 OFFCURVE",
"291 350 CURVE SMOOTH",
"227 350 LINE",
"227 575 LINE",
"282 575 LINE SMOOTH",
"365 575 OFFCURVE",
"406 540 OFFCURVE",
"406 467 CURVE SMOOTH"
);
},
{
closed = 1;
nodes = (
"577 619 OFFCURVE",
"469 693 OFFCURVE",
"280 693 CURVE SMOOTH",
"61 693 LINE",
"61 0 LINE",
"227 0 LINE",
"227 230 LINE",
"302 230 LINE SMOOTH",
"466 230 OFFCURVE",
"577 306 OFFCURVE",
"577 467 CURVE SMOOTH"
);
}
);
width = 600;
}
);
unicode = 0050;
userData = {
public.markColor = "0.67,0.95,0.38,1";
};
},
{
color = 4;
glyphname = Thorn;
lastChange = "2014-12-21 17:35:44 +0000";
layers = (
{
layerId = UUID0;
name = Regular;
paths = (
{
closed = 1;
nodes = (
"102 689 LINE",
"102 0 LINE",
"197 0 LINE",
"197 127 LINE",
"293 127 LINE SMOOTH",
"449 127 OFFCURVE",
"558 194 OFFCURVE",
"558 355 CURVE SMOOTH",
"558 504 OFFCURVE",
"459 573 OFFCURVE",
"291 573 CURVE SMOOTH",
"197 573 LINE",
"197 689 LINE"
);
},
{
closed = 1;
nodes = (
"395 499 OFFCURVE",
"458 457 OFFCURVE",
"458 353 CURVE SMOOTH",
"458 236 OFFCURVE",
"394 202 OFFCURVE",
"302 202 CURVE SMOOTH",
"197 202 LINE",
"197 499 LINE",
"301 499 LINE SMOOTH"
);
}
);
width = 600;
},
{
layerId = "BF448B58-7A35-489E-A1C9-12628F60690C";
name = Bold;
paths = (
{
closed = 1;
nodes = (
"58 693 LINE",
"58 0 LINE",
"225 0 LINE",
"225 116 LINE",
"301 116 LINE SMOOTH",
"473 116 OFFCURVE",
"577 191 OFFCURVE",
"577 354 CURVE SMOOTH",
"577 507 OFFCURVE",
"467 581 OFFCURVE",
"279 581 CURVE SMOOTH",
"225 581 LINE",
"225 693 LINE"
);
},
{
closed = 1;
nodes = (
"362 463 OFFCURVE",
"404 430 OFFCURVE",
"404 353 CURVE SMOOTH",
"404 267 OFFCURVE",
"361 236 OFFCURVE",
"290 236 CURVE SMOOTH",
"225 236 LINE",
"225 463 LINE",
"283 463 LINE SMOOTH"
);
}
);
width = 600;
}
);
unicode = 00DE;
userData = {
public.markColor = "0.67,0.95,0.38,1";
};
},
{
color = 4;
glyphname = Q;
lastChange = "2014-12-21 17:35:44 +0000";
layers = (
{
layerId = UUID0;
name = Regular;
paths = (
{
closed = 1;
nodes = (
"556 558 OFFCURVE",
"469 701 OFFCURVE",
"300 701 CURVE SMOOTH",
"131 701 OFFCURVE",
"44 553 OFFCURVE",
"44 343 CURVE SMOOTH",
"44 129 OFFCURVE",
"130 -10 OFFCURVE",
"290 -10 CURVE SMOOTH",
"409 -10 OFFCURVE",
"459 -67 OFFCURVE",
"501 -173 CURVE",
"597 -136 LINE",
"563 -34 OFFCURVE",
"511 9 OFFCURVE",
"418 28 CURVE",
"519 86 OFFCURVE",
"556 199 OFFCURVE",
"556 344 CURVE SMOOTH"
);
},
{
closed = 1;
nodes = (
"457 162 OFFCURVE",
"412 66 OFFCURVE",
"300 66 CURVE SMOOTH",
"191 66 OFFCURVE",
"143 161 OFFCURVE",
"143 343 CURVE SMOOTH",
"143 525 OFFCURVE",
"188 623 OFFCURVE",
"300 623 CURVE SMOOTH",
"412 623 OFFCURVE",
"457 526 OFFCURVE",
"457 344 CURVE SMOOTH"
);
}
);
width = 600;
},
{
layerId = "BF448B58-7A35-489E-A1C9-12628F60690C";
name = Bold;
paths = (
{
closed = 1;
nodes = (
"575 572 OFFCURVE",
"485 711 OFFCURVE",
"303 711 CURVE SMOOTH",
"121 711 OFFCURVE",
"32 567 OFFCURVE",
"32 347 CURVE SMOOTH",
"32 122 OFFCURVE",
"116 -14 OFFCURVE",
"290 -14 CURVE SMOOTH",
"411 -14 OFFCURVE",
"456 -69 OFFCURVE",
"500 -173 CURVE",
"635 -127 LINE",
"597 -15 OFFCURVE",
"538 22 OFFCURVE",
"432 40 CURVE",
"539 96 OFFCURVE",
"575 211 OFFCURVE",
"575 347 CURVE SMOOTH"
);
},
{
closed = 1;
nodes = (
"402 179 OFFCURVE",
"382 104 OFFCURVE",
"303 104 CURVE SMOOTH",
"227 104 OFFCURVE",
"204 178 OFFCURVE",
"204 347 CURVE SMOOTH",
"204 515 OFFCURVE",
"226 589 OFFCURVE",
"303 589 CURVE SMOOTH",
"381 589 OFFCURVE",
"402 516 OFFCURVE",
"402 347 CURVE SMOOTH"
);
}
);
width = 600;
}
);
unicode = 0051;
userData = {
public.markColor = "0.67,0.95,0.38,1";
};
},
{
color = 4;
glyphname = R;
lastChange = "2014-12-21 17:35:44 +0000";
layers = (
{
anchors = (
{
name = bottom;
position = "{300, 0}";
},
{
name = top;
position = "{300, 689}";
}
);
layerId = UUID0;
name = Regular;
paths = (
{
closed = 1;
nodes = (
"540 623 OFFCURVE",
"450 689 OFFCURVE",
"278 689 CURVE SMOOTH",
"97 689 LINE",
"97 0 LINE",
"192 0 LINE",
"192 292 LINE",
"280 292 LINE",
"464 0 LINE",
"577 0 LINE",
"375 304 LINE",
"468 328 OFFCURVE",
"540 391 OFFCURVE",
"540 494 CURVE SMOOTH"
);
},
{
closed = 1;
nodes = (
"439 401 OFFCURVE",
"384 365 OFFCURVE",
"288 365 CURVE SMOOTH",
"192 365 LINE",
"192 615 LINE",
"287 615 LINE SMOOTH",
"390 615 OFFCURVE",
"439 580 OFFCURVE",
"439 494 CURVE SMOOTH"
);
}
);
width = 600;
},
{
anchors = (
{
name = bottom;
position = "{310, 0}";
},
{
name = top;
position = "{300, 693}";
}
);
layerId = "BF448B58-7A35-489E-A1C9-12628F60690C";
name = Bold;
paths = (
{
closed = 1;
nodes = (
"562 626 OFFCURVE",
"465 693 OFFCURVE",
"276 693 CURVE SMOOTH",
"57 693 LINE",
"57 0 LINE",
"223 0 LINE",
"223 264 LINE",
"268 264 LINE",
"417 0 LINE",
"605 0 LINE",
"424 292 LINE",
"501 323 OFFCURVE",
"562 383 OFFCURVE",
"562 482 CURVE SMOOTH"
);
},
{
closed = 1;
nodes = (
"391 409 OFFCURVE",
"353 378 OFFCURVE",
"283 378 CURVE SMOOTH",
"223 378 LINE",
"223 577 LINE",
"276 577 LINE SMOOTH",
"352 577 OFFCURVE",
"391 548 OFFCURVE",
"391 482 CURVE SMOOTH"
);
}
);
width = 600;
}
);
unicode = 0052;
userData = {
public.markColor = "0.67,0.95,0.38,1";
};
},
{
color = 4;
glyphname = S;
lastChange = "2014-12-21 17:35:44 +0000";
layers = (
{
anchors = (
{
name = bottom;
position = "{297, 0}";
},
{
name = top;
position = "{306, 689}";
}
);
layerId = UUID0;
name = Regular;
paths = (
{
closed = 1;
nodes = (
"540 323 OFFCURVE",
"448 369 OFFCURVE",
"338 401 CURVE SMOOTH",
"209 439 OFFCURVE",
"168 467 OFFCURVE",
"168 525 CURVE SMOOTH",
"168 591 OFFCURVE",
"228 623 OFFCURVE",
"302 623 CURVE SMOOTH",
"360 623 OFFCURVE",
"418 604 OFFCURVE",
"467 561 CURVE",
"521 621 LINE",
"463 672 OFFCURVE",
"394 701 OFFCURVE",
"298 701 CURVE SMOOTH",
"165 701 OFFCURVE",
"71 627 OFFCURVE",
"71 521 CURVE SMOOTH",
"71 412 OFFCURVE",
"154 361 OFFCURVE",
"293 320 CURVE SMOOTH",
"409 286 OFFCURVE",
"441 254 OFFCURVE",
"441 189 CURVE SMOOTH",
"441 106 OFFCURVE",
"368 66 OFFCURVE",
"286 66 CURVE SMOOTH",
"203 66 OFFCURVE",
"143 94 OFFCURVE",
"95 139 CURVE",
"40 77 LINE",
"98 21 OFFCURVE",
"181 -12 OFFCURVE",
"285 -12 CURVE SMOOTH",
"447 -12 OFFCURVE",
"540 72 OFFCURVE",
"540 192 CURVE SMOOTH"
);
}
);
width = 600;
},
{
anchors = (
{
name = bottom;
position = "{300, 0}";
},
{
name = top;
position = "{310, 693}";
}
);
layerId = "BF448B58-7A35-489E-A1C9-12628F60690C";
name = Bold;
paths = (
{
closed = 1;
nodes = (
"569 330 OFFCURVE",
"492 386 OFFCURVE",
"360 427 CURVE SMOOTH",
"250 461 OFFCURVE",
"219 478 OFFCURVE",
"219 522 CURVE SMOOTH",
"219 566 OFFCURVE",
"260 589 OFFCURVE",
"322 589 CURVE SMOOTH",
"378 589 OFFCURVE",
"433 570 OFFCURVE",
"480 531 CURVE",
"558 621 LINE",
"498 678 OFFCURVE",
"416 711 OFFCURVE",
"309 711 CURVE SMOOTH",
"165 711 OFFCURVE",
"47 637 OFFCURVE",
"47 509 CURVE SMOOTH",
"47 404 OFFCURVE",
"108 342 OFFCURVE",
"271 292 CURVE SMOOTH",
"367 263 OFFCURVE",
"396 240 OFFCURVE",
"396 190 CURVE SMOOTH",
"396 137 OFFCURVE",
"350 106 OFFCURVE",
"282 106 CURVE SMOOTH",
"208 106 OFFCURVE",
"146 131 OFFCURVE",
"95 176 CURVE",
"11 83 LINE",
"69 26 OFFCURVE",
"154 -17 OFFCURVE",
"286 -17 CURVE SMOOTH",
"463 -17 OFFCURVE",
"569 73 OFFCURVE",
"569 203 CURVE SMOOTH"
);
}
);
width = 600;
}
);
unicode = 0053;
userData = {
public.markColor = "0.67,0.95,0.38,1";
};
},
{
color = 4;
glyphname = T;
lastChange = "2014-12-21 17:35:44 +0000";
layers = (
{
anchors = (
{
name = bottom;
position = "{299, 0}";
},
{
name = bottomright;
position = "{356, 0}";
},
{
name = center;
position = "{300, 345}";
},
{
name = top;
position = "{299, 689}";
}
);
layerId = UUID0;
name = Regular;
paths = (
{
closed = 1;
nodes = (
"552 609 LINE",
"562 689 LINE",
"38 689 LINE",
"38 609 LINE",
"251 609 LINE",
"251 0 LINE",
"346 0 LINE",
"346 609 LINE"
);
}
);
width = 600;
},
{
anchors = (
{
name = bottom;
position = "{299, 0}";
},
{
name = bottomright;
position = "{392, 0}";
},
{
name = center;
position = "{300, 347}";
},
{
name = top;
position = "{299, 693}";
}
);
layerId = "BF448B58-7A35-489E-A1C9-12628F60690C";
name = Bold;
paths = (
{
closed = 1;
nodes = (
"567 566 LINE",
"584 693 LINE",
"22 693 LINE",
"22 566 LINE",
"216 566 LINE",
"216 0 LINE",
"382 0 LINE",
"382 566 LINE"
);
}
);
width = 600;
}
);
unicode = 0054;
userData = {
public.markColor = "0.67,0.95,0.38,1";
};
},
{
color = 3;
glyphname = Tbar;
lastChange = "2014-12-21 17:35:44 +0000";
layers = (
{
components = (
{
name = T;
transform = "{1, 0, 0, 1, 0, 0}";
}
);
layerId = UUID0;
name = Regular;
paths = (
{
closed = 1;
nodes = (
"476 346 LINE",
"476 416 LINE",
"251 416 LINE",
"122 416 LINE",
"122 346 LINE",
"346 346 LINE"
);
}
);
width = 600;
},
{
components = (
{
name = T;
transform = "{1, 0, 0, 1, 0, 0}";
}
);
layerId = "BF448B58-7A35-489E-A1C9-12628F60690C";
name = Bold;
paths = (
{
closed = 1;
nodes = (
"499 313 LINE",
"499 406 LINE",
"216 406 LINE",
"100 406 LINE",
"100 313 LINE",
"382 313 LINE"
);
}
);
width = 600;
}
);
unicode = 0166;
userData = {
public.markColor = "0.97,1,0,1";
};
},
{
color = 4;
glyphname = U;
lastChange = "2014-12-21 17:35:44 +0000";
layers = (
{
anchors = (
{
name = ogonek;
position = "{389, 0}";
},
{
name = top;
position = "{300, 689}";
}
);
layerId = UUID0;
name = Regular;
paths = (
{
closed = 1;
nodes = (
"435 689 LINE",
"435 228 LINE SMOOTH",
"435 121 OFFCURVE",
"388 68 OFFCURVE",
"299 68 CURVE SMOOTH",
"211 68 OFFCURVE",
"164 121 OFFCURVE",
"164 228 CURVE SMOOTH",
"164 689 LINE",
"69 689 LINE",
"69 224 LINE SMOOTH",
"69 84 OFFCURVE",
"154 -12 OFFCURVE",
"299 -12 CURVE SMOOTH",
"442 -12 OFFCURVE",
"531 84 OFFCURVE",
"531 224 CURVE SMOOTH",
"531 689 LINE"
);
}
);
width = 600;
},
{
anchors = (
{
name = ogonek;
position = "{416, 0}";
},
{
name = top;
position = "{300, 693}";
}
);
layerId = "BF448B58-7A35-489E-A1C9-12628F60690C";
name = Bold;
paths = (
{
closed = 1;
nodes = (
"392 693 LINE",
"392 295 LINE SMOOTH",
"392 170 OFFCURVE",
"379 106 OFFCURVE",
"300 106 CURVE SMOOTH",
"221 106 OFFCURVE",
"208 170 OFFCURVE",
"208 295 CURVE SMOOTH",
"208 693 LINE",
"41 693 LINE",
"41 232 LINE SMOOTH",
"41 84 OFFCURVE",
"126 -17 OFFCURVE",
"300 -17 CURVE SMOOTH",
"473 -17 OFFCURVE",
"559 90 OFFCURVE",
"559 232 CURVE SMOOTH",
"559 693 LINE"
);
}
);
width = 600;
}
);
unicode = 0055;
userData = {
public.markColor = "0.67,0.95,0.38,1";
};
},
{
color = 4;
glyphname = V;
lastChange = "2014-12-21 17:35:44 +0000";
layers = (
{
layerId = UUID0;
name = Regular;
paths = (
{
closed = 1;
nodes = (
"124 689 LINE",
"22 689 LINE",
"249 0 LINE",
"351 0 LINE",
"578 689 LINE",
"482 689 LINE",
"302 102 LINE"
);
}
);
width = 600;
},
{
layerId = "BF448B58-7A35-489E-A1C9-12628F60690C";
name = Bold;
paths = (
{
closed = 1;
nodes = (
"175 693 LINE",
"-1 693 LINE",
"197 0 LINE",
"403 0 LINE",
"602 693 LINE",
"432 693 LINE",
"303 129 LINE"
);
}
);
width = 600;
}
);
unicode = 0056;
userData = {
public.markColor = "0.67,0.95,0.38,1";
};
},
{
color = 4;
glyphname = W;
lastChange = "2014-12-21 17:35:44 +0000";
layers = (
{
anchors = (
{
name = top;
position = "{300, 689}";
}
);
layerId = UUID0;
name = Regular;
paths = (
{
closed = 1;
nodes = (
"509 689 LINE",
"433 112 LINE",
"429 112 LINE",
"356 609 LINE",
"246 609 LINE",
"167 109 LINE",
"163 109 LINE",
"98 689 LINE",
"4 689 LINE",
"98 0 LINE",
"221 0 LINE",
"296 503 LINE",
"300 503 LINE",
"374 0 LINE",
"494 0 LINE",
"596 689 LINE"
);
}
);
width = 600;
},
{
anchors = (
{
name = top;
position = "{300, 693}";
}
);
layerId = "BF448B58-7A35-489E-A1C9-12628F60690C";
name = Bold;
paths = (
{
closed = 1;
nodes = (
"459 693 LINE",
"429 152 LINE",
"425 152 LINE",
"373 613 LINE",
"231 613 LINE",
"175 151 LINE",
"171 151 LINE",
"152 693 LINE",
"-3 693 LINE",
"71 0 LINE",
"246 0 LINE",
"298 486 LINE",
"302 486 LINE",
"351 0 LINE",
"523 0 LINE",
"603 693 LINE"
);
}
);
width = 600;
}
);
unicode = 0057;
userData = {
public.markColor = "0.67,0.95,0.38,1";
};
},
{
color = 4;
glyphname = X;
lastChange = "2014-12-21 17:35:44 +0000";
layers = (
{
anchors = (
{
name = bottomright;
position = "{527, 0}";
}
);
layerId = UUID0;
name = Regular;
paths = (
{
closed = 1;
nodes = (
"242 367 LINE",
"28 0 LINE",
"130 0 LINE",
"298 306 LINE",
"464 0 LINE",
"572 0 LINE",
"355 372 LINE",
"549 689 LINE",
"447 689 LINE",
"300 429 LINE",
"154 689 LINE",
"46 689 LINE"
);
}
);
width = 600;
},
{
anchors = (
{
name = bottomright;
position = "{560, 0}";
}
);
layerId = "BF448B58-7A35-489E-A1C9-12628F60690C";
name = Bold;
paths = (
{
closed = 1;
nodes = (
"199 368 LINE",
"3 0 LINE",
"179 0 LINE",
"298 263 LINE",
"419 0 LINE",
"598 0 LINE",
"397 375 LINE",
"581 693 LINE",
"406 693 LINE",
"300 472 LINE",
"197 693 LINE",
"18 693 LINE"
);
}
);
width = 600;
}
);
unicode = 0058;
userData = {
public.markColor = "0.67,0.95,0.38,1";
};
},
{
color = 4;
glyphname = Y;
lastChange = "2014-12-21 17:35:44 +0000";
layers = (
{
anchors = (
{
name = top;
position = "{303, 689}";
}
);
layerId = UUID0;
name = Regular;
paths = (
{
closed = 1;
nodes = (
"580 689 LINE",
"481 689 LINE",
"302 349 LINE",
"125 689 LINE",
"20 689 LINE",
"252 264 LINE",
"252 0 LINE",
"348 0 LINE",
"348 265 LINE"
);
}
);
width = 600;
},
{
anchors = (
{
name = top;
position = "{300, 693}";
},
{
name = topleft;
position = "{-19, 693}";
}
);
layerId = "BF448B58-7A35-489E-A1C9-12628F60690C";
name = Bold;
paths = (
{
closed = 1;
nodes = (
"609 693 LINE",
"434 693 LINE",
"303 396 LINE",
"173 693 LINE",
"-9 693 LINE",
"217 259 LINE",
"217 0 LINE",
"383 0 LINE",
"383 260 LINE"
);
}
);
width = 600;
}
);
unicode = 0059;
userData = {
public.markColor = "0.67,0.95,0.38,1";
};
},
{
color = 4;
glyphname = Z;
lastChange = "2014-12-21 17:35:44 +0000";
layers = (
{
anchors = (
{
name = top;
position = "{318, 689}";
}
);
layerId = UUID0;
name = Regular;
paths = (
{
closed = 1;
nodes = (
"531 612 LINE",
"531 689 LINE",
"104 689 LINE",
"104 609 LINE",
"428 609 LINE",
"68 76 LINE",
"68 0 LINE",
"520 0 LINE",
"531 81 LINE",
"174 81 LINE"
);
}
);
width = 600;
},
{
anchors = (
{
name = top;
position = "{313, 693}";
}
);
layerId = "BF448B58-7A35-489E-A1C9-12628F60690C";
name = Bold;
paths = (
{
closed = 1;
nodes = (
"555 568 LINE",
"555 693 LINE",
"74 693 LINE",
"74 565 LINE",
"366 565 LINE",
"38 124 LINE",
"38 0 LINE",
"546 0 LINE",
"563 132 LINE",
"234 132 LINE"
);
}
);
width = 600;
}
);
unicode = 005A;
userData = {
public.markColor = "0.67,0.95,0.38,1";
};
},
{
color = 4;
glyphname = a;
lastChange = "2014-12-21 17:35:44 +0000";
layers = (
{
anchors = (
{
name = ogonek;
position = "{512, -12}";
},
{
name = top;
position = "{292, 527}";
}
);
layerId = UUID0;
name = Regular;
paths = (
{
closed = 1;
nodes = (
"482 367 LINE SMOOTH",
"482 473 OFFCURVE",
"415 539 OFFCURVE",
"281 539 CURVE SMOOTH",
"229 539 OFFCURVE",
"170 529 OFFCURVE",
"105 505 CURVE",
"129 437 LINE",
"183 456 OFFCURVE",
"232 464 OFFCURVE",
"267 464 CURVE SMOOTH",
"344 464 OFFCURVE",
"390 436 OFFCURVE",
"390 362 CURVE SMOOTH",
"390 321 LINE",
"313 321 LINE SMOOTH",
"153 321 OFFCURVE",
"65 260 OFFCURVE",
"65 151 CURVE SMOOTH",
"65 53 OFFCURVE",
"130 -12 OFFCURVE",
"236 -12 CURVE SMOOTH",
"304 -12 OFFCURVE",
"364 13 OFFCURVE",
"402 62 CURVE",
"418 15 OFFCURVE",
"455 -6 OFFCURVE",
"502 -12 CURVE",
"524 52 LINE",
"495 61 OFFCURVE",
"482 77 OFFCURVE",
"482 119 CURVE SMOOTH"
);
},
{
closed = 1;
nodes = (
"195 57 OFFCURVE",
"163 90 OFFCURVE",
"163 153 CURVE SMOOTH",
"163 219 OFFCURVE",
"205 260 OFFCURVE",
"318 260 CURVE SMOOTH",
"390 260 LINE",
"390 130 LINE",
"360 84 OFFCURVE",
"311 57 OFFCURVE",
"261 57 CURVE SMOOTH"
);
}
);
width = 600;
},
{
anchors = (
{
name = ogonek;
position = "{530, -15}";
},
{
name = top;
position = "{293, 531}";
}
);
layerId = "BF448B58-7A35-489E-A1C9-12628F60690C";
name = Bold;
paths = (
{
closed = 1;
nodes = (
"518 361 LINE SMOOTH",
"518 483 OFFCURVE",
"444 549 OFFCURVE",
"285 549 CURVE SMOOTH",
"226 549 OFFCURVE",
"146 535 OFFCURVE",
"77 509 CURVE",
"114 403 LINE",
"167 421 OFFCURVE",
"226 431 OFFCURVE",
"260 431 CURVE SMOOTH",
"328 431 OFFCURVE",
"364 405 OFFCURVE",
"364 350 CURVE SMOOTH",
"364 331 LINE",
"293 331 LINE SMOOTH",
"129 331 OFFCURVE",
"34 265 OFFCURVE",
"34 150 CURVE SMOOTH",
"34 52 OFFCURVE",
"104 -17 OFFCURVE",
"214 -17 CURVE SMOOTH",
"280 -17 OFFCURVE",
"348 6 OFFCURVE",
"389 55 CURVE",
"414 11 OFFCURVE",
"457 -9 OFFCURVE",
"520 -15 CURVE",
"553 90 LINE",
"528 99 OFFCURVE",
"518 114 OFFCURVE",
"518 154 CURVE SMOOTH"
);
},
{
closed = 1;
nodes = (
"225 97 OFFCURVE",
"199 121 OFFCURVE",
"199 161 CURVE SMOOTH",
"199 213 OFFCURVE",
"239 240 OFFCURVE",
"326 240 CURVE SMOOTH",
"364 240 LINE",
"364 155 LINE",
"345 118 OFFCURVE",
"303 97 OFFCURVE",
"269 97 CURVE SMOOTH"
);
}
);
width = 600;
}
);
unicode = 0061;
userData = {
public.markColor = "0.67,0.95,0.38,1";
};
},
{
color = 4;
glyphname = ae;
lastChange = "2014-12-21 17:35:44 +0000";
layers = (
{
anchors = (
{
name = top;
position = "{308, 527}";
}
);
layerId = UUID0;
name = Regular;
paths = (
{
closed = 1;
nodes = (
"371 539 OFFCURVE",
"327 506 OFFCURVE",
"308 453 CURVE",
"287 505 OFFCURVE",
"249 539 OFFCURVE",
"170 539 CURVE SMOOTH",
"126 539 OFFCURVE",
"79 526 OFFCURVE",
"34 505 CURVE",
"58 439 LINE",
"101 458 OFFCURVE",
"126 466 OFFCURVE",
"161 466 CURVE SMOOTH",
"219 466 OFFCURVE",
"252 435 OFFCURVE",
"252 362 CURVE SMOOTH",
"252 321 LINE",
"207 321 LINE SMOOTH",
"67 321 OFFCURVE",
"-6 261 OFFCURVE",
"-6 151 CURVE SMOOTH",
"-6 53 OFFCURVE",
"53 -12 OFFCURVE",
"146 -12 CURVE SMOOTH",
"213 -12 OFFCURVE",
"252 15 OFFCURVE",
"297 77 CURVE",
"330 20 OFFCURVE",
"376 -12 OFFCURVE",
"447 -12 CURVE SMOOTH",
"505 -12 OFFCURVE",
"548 9 OFFCURVE",
"588 41 CURVE",
"547 101 LINE",
"514 76 OFFCURVE",
"487 62 OFFCURVE",
"449 62 CURVE SMOOTH",
"380 62 OFFCURVE",
"347 115 OFFCURVE",
"338 232 CURVE",
"604 232 LINE",
"605 245 OFFCURVE",
"606 261 OFFCURVE",
"606 279 CURVE SMOOTH",
"606 441 OFFCURVE",
"554 539 OFFCURVE",
"434 539 CURVE SMOOTH"
);
},
{
closed = 1;
nodes = (
"252 220 OFFCURVE",
"256 182 OFFCURVE",
"265 150 CURVE",
"231 89 OFFCURVE",
"203 57 OFFCURVE",
"160 57 CURVE SMOOTH",
"117 57 OFFCURVE",
"89 91 OFFCURVE",
"89 156 CURVE SMOOTH",
"89 219 OFFCURVE",
"119 260 OFFCURVE",
"212 260 CURVE SMOOTH",
"252 260 LINE"
);
},
{
closed = 1;
nodes = (
"497 466 OFFCURVE",
"518 409 OFFCURVE",
"520 300 CURVE",
"338 300 LINE",
"346 423 OFFCURVE",
"373 466 OFFCURVE",
"431 466 CURVE SMOOTH"
);
}
);
width = 600;
},
{
anchors = (
{
name = top;
position = "{302, 531}";
}
);
layerId = "BF448B58-7A35-489E-A1C9-12628F60690C";
name = Bold;
paths = (
{
closed = 1;
nodes = (
"368 549 OFFCURVE",
"326 521 OFFCURVE",
"302 479 CURVE",
"277 521 OFFCURVE",
"237 549 OFFCURVE",
"164 549 CURVE SMOOTH",
"111 549 OFFCURVE",
"71 536 OFFCURVE",
"19 513 CURVE",
"55 426 LINE",
"95 445 OFFCURVE",
"116 451 OFFCURVE",
"148 451 CURVE SMOOTH",
"205 451 OFFCURVE",
"237 418 OFFCURVE",
"237 350 CURVE SMOOTH",
"237 327 LINE",
"196 327 LINE SMOOTH",
"59 327 OFFCURVE",
"-6 265 OFFCURVE",
"-6 152 CURVE SMOOTH",
"-6 53 OFFCURVE",
"50 -17 OFFCURVE",
"143 -17 CURVE SMOOTH",
"211 -17 OFFCURVE",
"246 10 OFFCURVE",
"284 67 CURVE",
"318 14 OFFCURVE",
"370 -17 OFFCURVE",
"444 -17 CURVE SMOOTH",
"511 -17 OFFCURVE",
"561 7 OFFCURVE",
"600 40 CURVE",
"540 120 LINE",
"511 99 OFFCURVE",
"485 88 OFFCURVE",
"453 88 CURVE SMOOTH",
"397 88 OFFCURVE",
"366 132 OFFCURVE",
"357 226 CURVE",
"597 226 LINE",
"599 242 OFFCURVE",
"600 258 OFFCURVE",
"600 276 CURVE SMOOTH",
"600 452 OFFCURVE",
"553 549 OFFCURVE",
"428 549 CURVE SMOOTH"
);
},
{
closed = 1;
nodes = (
"237 211 OFFCURVE",
"238 178 OFFCURVE",
"241 148 CURVE",
"221 108 OFFCURVE",
"200 87 OFFCURVE",
"172 87 CURVE SMOOTH",
"143 87 OFFCURVE",
"127 114 OFFCURVE",
"127 159 CURVE SMOOTH",
"127 211 OFFCURVE",
"151 241 OFFCURVE",
"216 241 CURVE SMOOTH",
"237 241 LINE"
);
},
{
closed = 1;
nodes = (
"468 449 OFFCURVE",
"479 406 OFFCURVE",
"480 312 CURVE",
"357 312 LINE",
"361 416 OFFCURVE",
"381 449 OFFCURVE",
"422 449 CURVE SMOOTH"
);
}
);
width = 600;
}
);
unicode = 00E6;
userData = {
public.markColor = "0.67,0.95,0.38,1";
};
},
{
color = 4;
glyphname = b;
lastChange = "2014-12-21 17:35:44 +0000";
layers = (
{
layerId = UUID0;
name = Regular;
paths = (
{
closed = 1;
nodes = (
"189 750 LINE",
"97 739 LINE",
"97 0 LINE",
"178 0 LINE",
"184 54 LINE",
"219 9 OFFCURVE",
"266 -12 OFFCURVE",
"326 -12 CURVE SMOOTH",
"462 -12 OFFCURVE",
"535 104 OFFCURVE",
"535 264 CURVE SMOOTH",
"535 430 OFFCURVE",
"478 539 OFFCURVE",
"338 539 CURVE SMOOTH",
"278 539 OFFCURVE",
"227 510 OFFCURVE",
"189 460 CURVE"
);
},
{
closed = 1;
nodes = (
"257 61 OFFCURVE",
"216 86 OFFCURVE",
"189 127 CURVE",
"189 384 LINE",
"217 426 OFFCURVE",
"260 466 OFFCURVE",
"316 466 CURVE SMOOTH",
"394 466 OFFCURVE",
"436 401 OFFCURVE",
"436 264 CURVE SMOOTH",
"436 126 OFFCURVE",
"388 61 OFFCURVE",
"304 61 CURVE SMOOTH"
);
}
);
width = 600;
},
{
layerId = "BF448B58-7A35-489E-A1C9-12628F60690C";
name = Bold;
paths = (
{
closed = 1;
nodes = (
"229 759 LINE",
"69 742 LINE",
"69 0 LINE",
"211 0 LINE",
"217 48 LINE",
"248 6 OFFCURVE",
"295 -17 OFFCURVE",
"348 -17 CURVE SMOOTH",
"486 -17 OFFCURVE",
"561 103 OFFCURVE",
"561 267 CURVE SMOOTH",
"561 440 OFFCURVE",
"501 549 OFFCURVE",
"365 549 CURVE SMOOTH",
"311 549 OFFCURVE",
"262 521 OFFCURVE",
"229 477 CURVE"
);
},
{
closed = 1;
nodes = (
"272 99 OFFCURVE",
"249 116 OFFCURVE",
"229 147 CURVE",
"229 370 LINE",
"252 408 OFFCURVE",
"279 431 OFFCURVE",
"314 431 CURVE SMOOTH",
"363 431 OFFCURVE",
"396 397 OFFCURVE",
"396 265 CURVE SMOOTH",
"396 146 OFFCURVE",
"361 99 OFFCURVE",
"306 99 CURVE SMOOTH"
);
}
);
width = 600;
}
);
unicode = 0062;
userData = {
public.markColor = "0.67,0.95,0.38,1";
};
},
{
color = 4;
glyphname = c;
lastChange = "2014-12-21 17:35:44 +0000";
layers = (
{
anchors = (
{
name = bottom;
position = "{339, 0}";
},
{
name = bottomAttach;
position = "{339, 0}";
},
{
name = top;
position = "{344, 518}";
}
);
layerId = UUID0;
name = Regular;
paths = (
{
closed = 1;
nodes = (
"252 66 OFFCURVE",
"188 123 OFFCURVE",
"188 261 CURVE SMOOTH",
"188 398 OFFCURVE",
"251 463 OFFCURVE",
"340 463 CURVE SMOOTH",
"386 463 OFFCURVE",
"430 447 OFFCURVE",
"473 415 CURVE",
"518 477 LINE",
"468 518 OFFCURVE",
"409 539 OFFCURVE",
"340 539 CURVE SMOOTH",
"181 539 OFFCURVE",
"89 420 OFFCURVE",
"89 261 CURVE SMOOTH",
"89 96 OFFCURVE",
"180 -12 OFFCURVE",
"339 -12 CURVE SMOOTH",
"403 -12 OFFCURVE",
"473 13 OFFCURVE",
"519 52 CURVE",
"475 115 LINE",
"436 85 OFFCURVE",
"392 66 OFFCURVE",
"340 66 CURVE SMOOTH"
);
}
);
width = 600;
},
{
anchors = (
{
name = bottom;
position = "{339, 0}";
},
{
name = bottomAttach;
position = "{339, 0}";
},
{
name = top;
position = "{344, 518}";
}
);
layerId = "BF448B58-7A35-489E-A1C9-12628F60690C";
name = Bold;
paths = (
{
closed = 1;
nodes = (
"285 109 OFFCURVE",
"235 145 OFFCURVE",
"235 262 CURVE SMOOTH",
"235 381 OFFCURVE",
"282 426 OFFCURVE",
"353 426 CURVE SMOOTH",
"396 426 OFFCURVE",
"436 411 OFFCURVE",
"472 386 CURVE",
"541 482 LINE",
"488 526 OFFCURVE",
"427 549 OFFCURVE",
"346 549 CURVE SMOOTH",
"175 549 OFFCURVE",
"68 428 OFFCURVE",
"68 262 CURVE SMOOTH",
"68 96 OFFCURVE",
"171 -17 OFFCURVE",
"343 -17 CURVE SMOOTH",
"426 -17 OFFCURVE",
"494 13 OFFCURVE",
"541 53 CURVE",
"470 154 LINE",
"432 128 OFFCURVE",
"395 109 OFFCURVE",
"352 109 CURVE SMOOTH"
);
}
);
width = 600;
}
);
unicode = 0063;
userData = {
public.markColor = "0.67,0.95,0.38,1";
};
},
{
color = 4;
glyphname = d;
lastChange = "2014-12-21 17:35:44 +0000";
layers = (
{
anchors = (
{
name = center;
position = "{300, 264}";
},
{
name = topright;
position = "{533, 739}";
}
);
layerId = UUID0;
name = Regular;
paths = (
{
closed = 1;
nodes = (
"411 478 LINE",
"376 518 OFFCURVE",
"331 539 OFFCURVE",
"272 539 CURVE SMOOTH",
"142 539 OFFCURVE",
"65 422 OFFCURVE",
"65 263 CURVE SMOOTH",
"65 99 OFFCURVE",
"128 -12 OFFCURVE",
"265 -12 CURVE SMOOTH",
"324 -12 OFFCURVE",
"376 14 OFFCURVE",
"414 68 CURVE",
"422 0 LINE",
"503 0 LINE",
"503 739 LINE",
"411 750 LINE"
);
},
{
closed = 1;
nodes = (
"343 466 OFFCURVE",
"383 442 OFFCURVE",
"411 401 CURVE",
"411 142 LINE",
"383 99 OFFCURVE",
"343 61 OFFCURVE",
"286 61 CURVE SMOOTH",
"207 61 OFFCURVE",
"164 127 OFFCURVE",
"164 263 CURVE SMOOTH",
"164 400 OFFCURVE",
"212 466 OFFCURVE",
"296 466 CURVE SMOOTH"
);
}
);
width = 600;
},
{
anchors = (
{
name = center;
position = "{300, 266}";
},
{
name = topright;
position = "{551, 742}";
}
);
layerId = "BF448B58-7A35-489E-A1C9-12628F60690C";
name = Bold;
paths = (
{
closed = 1;
nodes = (
"371 500 LINE",
"339 532 OFFCURVE",
"298 549 OFFCURVE",
"251 549 CURVE SMOOTH",
"120 549 OFFCURVE",
"39 431 OFFCURVE",
"39 267 CURVE SMOOTH",
"39 96 OFFCURVE",
"102 -17 OFFCURVE",
"234 -17 CURVE SMOOTH",
"304 -17 OFFCURVE",
"352 17 OFFCURVE",
"381 58 CURVE",
"389 0 LINE",
"531 0 LINE",
"531 742 LINE",
"371 759 LINE"
);
},
{
closed = 1;
nodes = (
"326 432 OFFCURVE",
"349 416 OFFCURVE",
"371 389 CURVE",
"371 161 LINE",
"348 123 OFFCURVE",
"320 100 OFFCURVE",
"285 100 CURVE SMOOTH",
"238 100 OFFCURVE",
"204 135 OFFCURVE",
"204 266 CURVE SMOOTH",
"204 385 OFFCURVE",
"240 432 OFFCURVE",
"294 432 CURVE SMOOTH"
);
}
);
width = 600;
}
);
unicode = 0064;
userData = {
public.markColor = "0.67,0.95,0.38,1";
};
},
{
color = 4;
glyphname = eth;
lastChange = "2014-12-21 17:35:44 +0000";
layers = (
{
layerId = UUID0;
name = Regular;
paths = (
{
closed = 1;
nodes = (
"229 531 LINE",
"305 609 LINE",
"367 564 OFFCURVE",
"413 497 OFFCURVE",
"432 414 CURVE",
"394 457 OFFCURVE",
"344 481 OFFCURVE",
"277 481 CURVE SMOOTH",
"163 481 OFFCURVE",
"64 383 OFFCURVE",
"64 235 CURVE SMOOTH",
"64 77 OFFCURVE",
"167 -12 OFFCURVE",
"295 -12 CURVE SMOOTH",
"441 -12 OFFCURVE",
"535 97 OFFCURVE",
"535 265 CURVE SMOOTH",
"535 455 OFFCURVE",
"481 584 OFFCURVE",
"361 666 CURVE",
"422 729 LINE",
"368 776 LINE",
"298 702 LINE",
"257 723 OFFCURVE",
"207 738 OFFCURVE",
"149 750 CURVE",
"129 680 LINE",
"174 671 OFFCURVE",
"211 660 OFFCURVE",
"243 645 CURVE",
"165 563 LINE"
);
},
{
closed = 1;
nodes = (
"442 131 OFFCURVE",
"385 61 OFFCURVE",
"294 61 CURVE SMOOTH",
"214 61 OFFCURVE",
"158 122 OFFCURVE",
"158 239 CURVE SMOOTH",
"158 357 OFFCURVE",
"220 409 OFFCURVE",
"291 409 CURVE SMOOTH",
"353 409 OFFCURVE",
"406 382 OFFCURVE",
"439 332 CURVE",
"441 311 OFFCURVE",
"442 290 OFFCURVE",
"442 266 CURVE SMOOTH"
);
}
);
width = 600;
},
{
layerId = "BF448B58-7A35-489E-A1C9-12628F60690C";
name = Bold;
paths = (
{
closed = 1;
nodes = (
"226 525 LINE",
"281 581 LINE",
"328 547 OFFCURVE",
"364 500 OFFCURVE",
"387 432 CURVE",
"351 465 OFFCURVE",
"313 482 OFFCURVE",
"254 482 CURVE SMOOTH",
"139 482 OFFCURVE",
"39 382 OFFCURVE",
"39 234 CURVE SMOOTH",
"39 75 OFFCURVE",
"150 -17 OFFCURVE",
"294 -17 CURVE SMOOTH",
"464 -17 OFFCURVE",
"557 113 OFFCURVE",
"557 277 CURVE SMOOTH",
"557 456 OFFCURVE",
"501 590 OFFCURVE",
"371 673 CURVE",
"424 727 LINE",
"342 798 LINE",
"269 722 LINE",
"227 738 OFFCURVE",
"178 750 OFFCURVE",
"123 758 CURVE",
"92 654 LINE",
"125 648 OFFCURVE",
"155 640 OFFCURVE",
"182 631 CURVE",
"125 571 LINE"
);
},
{
closed = 1;
nodes = (
"395 150 OFFCURVE",
"365 99 OFFCURVE",
"297 99 CURVE SMOOTH",
"239 99 OFFCURVE",
"202 139 OFFCURVE",
"202 236 CURVE SMOOTH",
"202 327 OFFCURVE",
"239 370 OFFCURVE",
"296 370 CURVE SMOOTH",
"335 370 OFFCURVE",
"369 355 OFFCURVE",
"394 328 CURVE",
"395 305 OFFCURVE",
"395 281 OFFCURVE",
"395 256 CURVE SMOOTH"
);
}
);
width = 600;
}
);
unicode = 00F0;
userData = {
public.markColor = "0.67,0.95,0.38,1";
};
},
{
color = 3;
glyphname = dcroat;
lastChange = "2014-12-21 17:35:44 +0000";
layers = (
{
components = (
{
name = d;
transform = "{1, 0, 0, 1, 0, 0}";
}
);
layerId = UUID0;
name = Regular;
paths = (
{
closed = 1;
nodes = (
"245 667 LINE",
"245 597 LINE",
"411 597 LINE",
"582 597 LINE",
"582 667 LINE",
"503 667 LINE"
);
}
);
width = 600;
},
{
components = (
{
name = d;
transform = "{1, 0, 0, 1, -19, 0}";
}
);
layerId = "BF448B58-7A35-489E-A1C9-12628F60690C";
name = Bold;
paths = (
{
closed = 1;
nodes = (
"231 686 LINE",
"231 593 LINE",
"352 593 LINE",
"592 593 LINE",
"592 686 LINE",
"512 686 LINE"
);
}
);
width = 600;
}
);
unicode = 0111;
userData = {
public.markColor = "0.97,1,0,1";
};
},
{
color = 4;
glyphname = e;
lastChange = "2014-12-21 17:35:44 +0000";
layers = (
{
anchors = (
{
name = bottom;
position = "{300, 0}";
},
{
name = ogonek;
position = "{413, 0}";
},
{
name = top;
position = "{310, 527}";
}
);
layerId = UUID0;
name = Regular;
paths = (
{
closed = 1;
nodes = (
"524 232 LINE",
"525 244 OFFCURVE",
"526 261 OFFCURVE",
"526 279 CURVE SMOOTH",
"526 440 OFFCURVE",
"443 539 OFFCURVE",
"305 539 CURVE SMOOTH",
"165 539 OFFCURVE",
"75 422 OFFCURVE",
"75 263 CURVE SMOOTH",
"75 99 OFFCURVE",
"163 -12 OFFCURVE",
"320 -12 CURVE SMOOTH",
"388 -12 OFFCURVE",
"455 12 OFFCURVE",
"504 51 CURVE",
"462 112 LINE",
"417 75 OFFCURVE",
"370 63 OFFCURVE",
"322 63 CURVE SMOOTH",
"242 63 OFFCURVE",
"176 114 OFFCURVE",
"171 232 CURVE"
);
},
{
closed = 1;
nodes = (
"387 466 OFFCURVE",
"435 409 OFFCURVE",
"437 300 CURVE",
"171 300 LINE",
"178 413 OFFCURVE",
"233 466 OFFCURVE",
"306 466 CURVE SMOOTH"
);
}
);
width = 600;
},
{
anchors = (
{
name = bottom;
position = "{300, 0}";
},
{
name = ogonek;
position = "{446, 0}";
},
{
name = top;
position = "{307, 531}";
}
);
layerId = "BF448B58-7A35-489E-A1C9-12628F60690C";
name = Bold;
paths = (
{
closed = 1;
nodes = (
"552 219 LINE",
"554 235 OFFCURVE",
"555 258 OFFCURVE",
"555 276 CURVE SMOOTH",
"555 447 OFFCURVE",
"457 549 OFFCURVE",
"303 549 CURVE SMOOTH",
"137 549 OFFCURVE",
"45 422 OFFCURVE",
"45 265 CURVE SMOOTH",
"45 100 OFFCURVE",
"139 -17 OFFCURVE",
"322 -17 CURVE SMOOTH",
"413 -17 OFFCURVE",
"485 13 OFFCURVE",
"535 56 CURVE",
"468 147 LINE",
"429 116 OFFCURVE",
"383 99 OFFCURVE",
"335 99 CURVE SMOOTH",
"268 99 OFFCURVE",
"219 133 OFFCURVE",
"208 219 CURVE"
);
},
{
closed = 1;
nodes = (
"372 442 OFFCURVE",
"398 391 OFFCURVE",
"399 315 CURVE",
"206 315 LINE",
"213 403 OFFCURVE",
"249 442 OFFCURVE",
"305 442 CURVE SMOOTH"
);
}
);
width = 600;
}
);
unicode = 0065;
userData = {
public.markColor = "0.67,0.95,0.38,1";
};
},
{
color = 4;
glyphname = f;
lastChange = "2014-12-21 17:35:44 +0000";
layers = (
{
layerId = UUID0;
name = Regular;
paths = (
{
closed = 1;
nodes = (
"298 750 OFFCURVE",
"216 687 OFFCURVE",
"216 589 CURVE SMOOTH",
"216 487 LINE",
"92 487 LINE",
"92 416 LINE",
"216 416 LINE",
"216 0 LINE",
"308 0 LINE",
"308 416 LINE",
"476 416 LINE",
"486 487 LINE",
"308 487 LINE",
"308 590 LINE SMOOTH",
"308 648 OFFCURVE",
"344 676 OFFCURVE",
"416 676 CURVE SMOOTH",
"456 676 OFFCURVE",
"495 669 OFFCURVE",
"529 654 CURVE",
"558 721 LINE",
"516 739 OFFCURVE",
"470 750 OFFCURVE",
"411 750 CURVE SMOOTH"
);
}
);
width = 600;
},
{
layerId = "BF448B58-7A35-489E-A1C9-12628F60690C";
name = Bold;
paths = (
{
closed = 1;
nodes = (
"263 759 OFFCURVE",
"187 679 OFFCURVE",
"187 574 CURVE SMOOTH",
"187 498 LINE",
"76 498 LINE",
"76 387 LINE",
"187 387 LINE",
"187 0 LINE",
"346 0 LINE",
"346 387 LINE",
"501 387 LINE",
"519 498 LINE",
"346 498 LINE",
"346 568 LINE SMOOTH",
"346 620 OFFCURVE",
"371 641 OFFCURVE",
"433 641 CURVE SMOOTH",
"471 641 OFFCURVE",
"510 635 OFFCURVE",
"547 621 CURVE",
"591 725 LINE",
"544 745 OFFCURVE",
"486 759 OFFCURVE",
"408 759 CURVE SMOOTH"
);
}
);
width = 600;
}
);
unicode = 0066;
userData = {
public.markColor = "0.67,0.95,0.38,1";
};
},
{
color = 4;
glyphname = g;
lastChange = "2014-12-21 17:35:44 +0000";
layers = (
{
layerId = UUID0;
name = Regular;
paths = (
{
closed = 1;
nodes = (
"468 558 OFFCURVE",
"420 539 OFFCURVE",
"289 539 CURVE SMOOTH",
"163 539 OFFCURVE",
"76 463 OFFCURVE",
"76 355 CURVE SMOOTH",
"76 287 OFFCURVE",
"104 241 OFFCURVE",
"165 209 CURVE",
"127 184 OFFCURVE",
"107 150 OFFCURVE",
"107 116 CURVE SMOOTH",
"107 63 OFFCURVE",
"149 16 OFFCURVE",
"243 16 CURVE SMOOTH",
"336 16 LINE SMOOTH",
"402 16 OFFCURVE",
"450 -9 OFFCURVE",
"450 -57 CURVE SMOOTH",
"450 -112 OFFCURVE",
"402 -141 OFFCURVE",
"288 -141 CURVE SMOOTH",
"172 -141 OFFCURVE",
"145 -113 OFFCURVE",
"145 -53 CURVE",
"62 -53 LINE",
"62 -160 OFFCURVE",
"116 -213 OFFCURVE",
"288 -213 CURVE SMOOTH",
"451 -213 OFFCURVE",
"543 -155 OFFCURVE",
"543 -51 CURVE SMOOTH",
"543 31 OFFCURVE",
"463 93 OFFCURVE",
"355 93 CURVE SMOOTH",
"261 93 LINE SMOOTH",
"207 93 OFFCURVE",
"192 112 OFFCURVE",
"192 136 CURVE SMOOTH",
"192 155 OFFCURVE",
"203 174 OFFCURVE",
"218 185 CURVE",
"240 178 OFFCURVE",
"261 175 OFFCURVE",
"295 175 CURVE SMOOTH",
"421 175 OFFCURVE",
"496 250 OFFCURVE",
"496 354 CURVE SMOOTH",
"496 415 OFFCURVE",
"465 459 OFFCURVE",
"403 487 CURVE",
"463 487 OFFCURVE",
"513 489 OFFCURVE",
"557 503 CURVE",
"530 586 LINE"
);
},
{
closed = 1;
nodes = (
"364 473 OFFCURVE",
"402 433 OFFCURVE",
"402 356 CURVE SMOOTH",
"402 280 OFFCURVE",
"363 236 OFFCURVE",
"291 236 CURVE SMOOTH",
"209 236 OFFCURVE",
"170 285 OFFCURVE",
"170 355 CURVE SMOOTH",
"170 424 OFFCURVE",
"208 473 OFFCURVE",
"289 473 CURVE SMOOTH"
);
}
);
width = 600;
},
{
anchors = (
{
name = top;
position = "{301, 531}";
}
);
layerId = "BF448B58-7A35-489E-A1C9-12628F60690C";
name = Bold;
paths = (
{
closed = 1;
nodes = (
"478 579 OFFCURVE",
"410 545 OFFCURVE",
"292 548 CURVE SMOOTH",
"153 548 OFFCURVE",
"54 474 OFFCURVE",
"54 354 CURVE SMOOTH",
"54 285 OFFCURVE",
"81 238 OFFCURVE",
"149 202 CURVE",
"111 178 OFFCURVE",
"89 140 OFFCURVE",
"89 101 CURVE SMOOTH",
"89 44 OFFCURVE",
"138 -5 OFFCURVE",
"254 -5 CURVE SMOOTH",
"338 -5 LINE SMOOTH",
"391 -5 OFFCURVE",
"414 -26 OFFCURVE",
"414 -57 CURVE SMOOTH",
"414 -91 OFFCURVE",
"392 -117 OFFCURVE",
"292 -117 CURVE SMOOTH",
"192 -117 OFFCURVE",
"172 -97 OFFCURVE",
"172 -51 CURVE",
"30 -51 LINE",
"30 -156 OFFCURVE",
"83 -222 OFFCURVE",
"288 -222 CURVE SMOOTH",
"477 -222 OFFCURVE",
"573 -155 OFFCURVE",
"573 -46 CURVE SMOOTH",
"573 43 OFFCURVE",
"494 108 OFFCURVE",
"370 108 CURVE SMOOTH",
"283 108 LINE SMOOTH",
"232 108 OFFCURVE",
"225 124 OFFCURVE",
"225 140 CURVE SMOOTH",
"225 152 OFFCURVE",
"231 164 OFFCURVE",
"242 170 CURVE",
"261 166 OFFCURVE",
"281 164 OFFCURVE",
"303 164 CURVE SMOOTH",
"441 164 OFFCURVE",
"529 239 OFFCURVE",
"529 342 CURVE SMOOTH",
"529 411 OFFCURVE",
"493 450 OFFCURVE",
"426 479 CURVE",
"493 479 OFFCURVE",
"542 485 OFFCURVE",
"579 500 CURVE",
"542 617 LINE"
);
},
{
closed = 1;
nodes = (
"349 444 OFFCURVE",
"376 417 OFFCURVE",
"376 358 CURVE SMOOTH",
"376 297 OFFCURVE",
"348 266 OFFCURVE",
"296 266 CURVE SMOOTH",
"248 266 OFFCURVE",
"216 298 OFFCURVE",
"216 356 CURVE SMOOTH",
"216 411 OFFCURVE",
"247 444 OFFCURVE",
"296 444 CURVE SMOOTH"
);
}
);
width = 600;
}
);
unicode = 0067;
userData = {
public.markColor = "0.67,0.95,0.38,1";
};
},
{
color = 4;
glyphname = h;
lastChange = "2014-12-21 17:35:44 +0000";
layers = (
{
anchors = (
{
name = center;
position = "{300, 264}";
},
{
name = top;
position = "{300, 739}";
}
);
layerId = UUID0;
name = Regular;
paths = (
{
closed = 1;
nodes = (
"97 738 LINE",
"97 0 LINE",
"189 0 LINE",
"189 382 LINE",
"217 423 OFFCURVE",
"268 467 OFFCURVE",
"325 467 CURVE SMOOTH",
"385 467 OFFCURVE",
"412 440 OFFCURVE",
"412 377 CURVE SMOOTH",
"412 0 LINE",
"504 0 LINE",
"504 383 LINE SMOOTH",
"504 481 OFFCURVE",
"458 539 OFFCURVE",
"356 539 CURVE SMOOTH",
"294 539 OFFCURVE",
"231 511 OFFCURVE",
"189 457 CURVE",
"189 748 LINE"
);
}
);
width = 600;
},
{
anchors = (
{
name = center;
position = "{300, 266}";
},
{
name = top;
position = "{300, 742}";
}
);
layerId = "BF448B58-7A35-489E-A1C9-12628F60690C";
name = Bold;
paths = (
{
closed = 1;
nodes = (
"69 742 LINE",
"69 0 LINE",
"229 0 LINE",
"229 367 LINE",
"259 407 OFFCURVE",
"288 431 OFFCURVE",
"321 431 CURVE SMOOTH",
"359 431 OFFCURVE",
"371 409 OFFCURVE",
"371 345 CURVE SMOOTH",
"371 0 LINE",
"531 0 LINE",
"531 390 LINE SMOOTH",
"531 491 OFFCURVE",
"479 549 OFFCURVE",
"385 549 CURVE SMOOTH",
"326 549 OFFCURVE",
"274 526 OFFCURVE",
"229 479 CURVE",
"229 758 LINE"
);
}
);
width = 600;
}
);
unicode = 0068;
userData = {
public.markColor = "0.67,0.95,0.38,1";
};
},
{
color = 3;
glyphname = hbar;
lastChange = "2014-12-21 17:35:44 +0000";
layers = (
{
components = (
{
name = h;
transform = "{1, 0, 0, 1, 0, 0}";
}
);
layerId = UUID0;
name = Regular;
paths = (
{
closed = 1;
nodes = (
"97 667 LINE",
"18 667 LINE",
"18 597 LINE",
"189 597 LINE",
"355 597 LINE",
"355 667 LINE"
);
}
);
width = 600;
},
{
components = (
{
name = h;
transform = "{1, 0, 0, 1, 0, 0}";
}
);
layerId = "BF448B58-7A35-489E-A1C9-12628F60690C";
name = Bold;
paths = (
{
closed = 1;
nodes = (
"69 686 LINE",
"8 686 LINE",
"8 593 LINE",
"229 593 LINE",
"369 593 LINE",
"369 686 LINE"
);
}
);
width = 600;
}
);
unicode = 0127;
userData = {
public.markColor = "0.97,1,0,1";
};
},
{
color = 7;
glyphname = i;
lastChange = "2014-12-21 17:35:44 +0000";
layers = (
{
layerId = UUID0;
name = Regular;
paths = (
{
closed = 1;
nodes = (
"122 527 LINE",
"122 456 LINE",
"278 456 LINE",
"278 71 LINE",
"117 71 LINE",
"117 0 LINE",
"517 0 LINE",
"517 71 LINE",
"370 71 LINE",
"370 527 LINE"
);
},
{
closed = 1;
nodes = (
"262 777 OFFCURVE",
"236 750 OFFCURVE",
"236 715 CURVE SMOOTH",
"236 679 OFFCURVE",
"262 652 OFFCURVE",
"300 652 CURVE SMOOTH",
"339 652 OFFCURVE",
"365 679 OFFCURVE",
"365 715 CURVE SMOOTH",
"365 750 OFFCURVE",
"339 777 OFFCURVE",
"300 777 CURVE SMOOTH"
);
}
);
width = 600;
},
{
layerId = "BF448B58-7A35-489E-A1C9-12628F60690C";
name = Bold;
paths = (
{
closed = 1;
nodes = (
"90 531 LINE",
"90 422 LINE",
"235 422 LINE",
"235 109 LINE",
"85 109 LINE",
"85 0 LINE",
"530 0 LINE",
"530 109 LINE",
"395 109 LINE",
"395 531 LINE"
);
},
{
closed = 1;
nodes = (
"243 810 OFFCURVE",
"204 771 OFFCURVE",
"204 720 CURVE SMOOTH",
"204 669 OFFCURVE",
"243 630 OFFCURVE",
"299 630 CURVE SMOOTH",
"354 630 OFFCURVE",
"393 669 OFFCURVE",
"393 720 CURVE SMOOTH",
"393 771 OFFCURVE",
"354 810 OFFCURVE",
"299 810 CURVE SMOOTH"
);
}
);
width = 600;
}
);
unicode = 0069;
userData = {
public.markColor = "0.18,0.16,0.78,1";
};
},
{
color = 4;
glyphname = dotlessi;
lastChange = "2014-12-21 17:35:44 +0000";
layers = (
{
anchors = (
{
name = ogonek;
position = "{380, 0}";
},
{
name = top;
position = "{301, 527}";
}
);
layerId = UUID0;
name = Regular;
paths = (
{
closed = 1;
nodes = (
"122 527 LINE",
"122 456 LINE",
"278 456 LINE",
"278 71 LINE",
"117 71 LINE",
"117 0 LINE",
"517 0 LINE",
"517 71 LINE",
"370 71 LINE",
"370 527 LINE"
);
}
);
width = 600;
},
{
anchors = (
{
name = ogonek;
position = "{405, 0}";
},
{
name = top;
position = "{299, 531}";
}
);
layerId = "BF448B58-7A35-489E-A1C9-12628F60690C";
name = Bold;
paths = (
{
closed = 1;
nodes = (
"90 531 LINE",
"90 422 LINE",
"235 422 LINE",
"235 109 LINE",
"85 109 LINE",
"85 0 LINE",
"530 0 LINE",
"530 109 LINE",
"395 109 LINE",
"395 531 LINE"
);
}
);
width = 600;
}
);
unicode = 0131;
userData = {
public.markColor = "0.67,0.95,0.38,1";
};
},
{
color = 4;
glyphname = ij;
lastChange = "2014-12-21 17:35:44 +0000";
layers = (
{
layerId = UUID0;
name = Regular;
paths = (
{
closed = 1;
nodes = (
"52 527 LINE",
"52 458 LINE",
"138 458 LINE",
"138 71 LINE",
"47 71 LINE",
"47 0 LINE",
"318 0 LINE",
"318 71 LINE",
"227 71 LINE",
"227 458 LINE",
"415 458 LINE",
"415 56 LINE SMOOTH",
"415 -57 OFFCURVE",
"316 -105 OFFCURVE",
"217 -142 CURVE",
"245 -213 LINE",
"391 -166 OFFCURVE",
"505 -90 OFFCURVE",
"505 62 CURVE SMOOTH",
"505 527 LINE"
);
},
{
closed = 1;
nodes = (
"146 777 OFFCURVE",
"120 750 OFFCURVE",
"120 715 CURVE SMOOTH",
"120 679 OFFCURVE",
"146 652 OFFCURVE",
"184 652 CURVE SMOOTH",
"222 652 OFFCURVE",
"249 679 OFFCURVE",
"249 715 CURVE SMOOTH",
"249 750 OFFCURVE",
"222 777 OFFCURVE",
"184 777 CURVE SMOOTH"
);
},
{
closed = 1;
nodes = (
"411 777 OFFCURVE",
"385 750 OFFCURVE",
"385 715 CURVE SMOOTH",
"385 679 OFFCURVE",
"411 652 OFFCURVE",
"449 652 CURVE SMOOTH",
"487 652 OFFCURVE",
"514 679 OFFCURVE",
"514 715 CURVE SMOOTH",
"514 750 OFFCURVE",
"487 777 OFFCURVE",
"449 777 CURVE SMOOTH"
);
}
);
width = 600;
},
{
layerId = "BF448B58-7A35-489E-A1C9-12628F60690C";
name = Bold;
paths = (
{
closed = 1;
nodes = (
"40 531 LINE",
"40 423 LINE",
"103 423 LINE",
"103 109 LINE",
"35 109 LINE",
"35 0 LINE",
"312 0 LINE",
"312 109 LINE",
"261 109 LINE",
"261 423 LINE",
"387 423 LINE",
"387 110 LINE SMOOTH",
"387 -23 OFFCURVE",
"323 -64 OFFCURVE",
"192 -104 CURVE",
"245 -222 LINE",
"437 -164 OFFCURVE",
"546 -86 OFFCURVE",
"546 124 CURVE SMOOTH",
"546 531 LINE"
);
},
{
closed = 1;
nodes = (
"127 810 OFFCURVE",
"88 771 OFFCURVE",
"88 720 CURVE SMOOTH",
"88 669 OFFCURVE",
"127 630 OFFCURVE",
"182 630 CURVE SMOOTH",
"238 630 OFFCURVE",
"278 669 OFFCURVE",
"278 720 CURVE SMOOTH",
"278 771 OFFCURVE",
"238 810 OFFCURVE",
"182 810 CURVE SMOOTH"
);
},
{
closed = 1;
nodes = (
"401 810 OFFCURVE",
"361 771 OFFCURVE",
"361 720 CURVE SMOOTH",
"361 669 OFFCURVE",
"401 630 OFFCURVE",
"456 630 CURVE SMOOTH",
"511 630 OFFCURVE",
"551 669 OFFCURVE",
"551 720 CURVE SMOOTH",
"551 771 OFFCURVE",
"511 810 OFFCURVE",
"456 810 CURVE SMOOTH"
);
}
);
width = 600;
}
);
unicode = 0133;
userData = {
public.markColor = "0.67,0.95,0.38,1";
};
},
{
color = 7;
glyphname = j;
lastChange = "2014-12-21 17:35:44 +0000";
layers = (
{
anchors = (
{
name = top;
position = "{368, 527}";
}
);
layerId = UUID0;
name = Regular;
paths = (
{
closed = 1;
nodes = (
"140 527 LINE",
"140 456 LINE",
"356 456 LINE",
"356 86 LINE SMOOTH",
"356 -57 OFFCURVE",
"249 -115 OFFCURVE",
"93 -142 CURVE",
"108 -213 LINE",
"324 -176 OFFCURVE",
"448 -90 OFFCURVE",
"448 92 CURVE SMOOTH",
"448 527 LINE"
);
},
{
closed = 1;
nodes = (
"329 777 OFFCURVE",
"303 750 OFFCURVE",
"303 715 CURVE SMOOTH",
"303 679 OFFCURVE",
"329 652 OFFCURVE",
"367 652 CURVE SMOOTH",
"406 652 OFFCURVE",
"432 679 OFFCURVE",
"432 715 CURVE SMOOTH",
"432 750 OFFCURVE",
"406 777 OFFCURVE",
"367 777 CURVE SMOOTH"
);
}
);
width = 600;
},
{
anchors = (
{
name = top;
position = "{370, 531}";
}
);
layerId = "BF448B58-7A35-489E-A1C9-12628F60690C";
name = Bold;
paths = (
{
closed = 1;
nodes = (
"123 531 LINE",
"123 422 LINE",
"313 422 LINE",
"313 146 LINE SMOOTH",
"313 -9 OFFCURVE",
"230 -63 OFFCURVE",
"69 -100 CURVE",
"94 -222 LINE",
"343 -173 OFFCURVE",
"473 -76 OFFCURVE",
"473 156 CURVE SMOOTH",
"473 531 LINE"
);
},
{
closed = 1;
nodes = (
"314 810 OFFCURVE",
"275 771 OFFCURVE",
"275 720 CURVE SMOOTH",
"275 669 OFFCURVE",
"314 630 OFFCURVE",
"370 630 CURVE SMOOTH",
"425 630 OFFCURVE",
"464 669 OFFCURVE",
"464 720 CURVE SMOOTH",
"464 771 OFFCURVE",
"425 810 OFFCURVE",
"370 810 CURVE SMOOTH"
);
}
);
width = 600;
}
);
unicode = 006A;
userData = {
public.markColor = "0.18,0.16,0.78,1";
};
},
{
color = 4;
glyphname = k;
lastChange = "2014-12-21 17:35:44 +0000";
layers = (
{
anchors = (
{
name = bottom;
position = "{305, 0}";
}
);
layerId = UUID0;
name = Regular;
paths = (
{
closed = 1;
nodes = (
"430 527 LINE",
"203 288 LINE",
"453 0 LINE",
"571 0 LINE",
"315 290 LINE",
"545 527 LINE"
);
},
{
closed = 1;
nodes = (
"102 739 LINE",
"102 0 LINE",
"194 0 LINE",
"194 750 LINE"
);
}
);
width = 600;
},
{
anchors = (
{
name = bottom;
position = "{300, 0}";
}
);
layerId = "BF448B58-7A35-489E-A1C9-12628F60690C";
name = Bold;
paths = (
{
closed = 1;
nodes = (
"408 531 LINE",
"235 291 LINE",
"407 0 LINE",
"589 0 LINE",
"402 296 LINE",
"575 531 LINE"
);
},
{
closed = 1;
nodes = (
"69 742 LINE",
"69 0 LINE",
"229 0 LINE",
"229 759 LINE"
);
}
);
width = 600;
}
);
unicode = 006B;
userData = {
public.markColor = "0.67,0.95,0.38,1";
};
},
{
color = 4;
glyphname = kgreenlandic;
lastChange = "2014-12-21 17:35:44 +0000";
layers = (
{
layerId = UUID0;
name = Regular;
paths = (
{
closed = 1;
nodes = (
"425 527 LINE",
"198 282 LINE",
"448 0 LINE",
"566 0 LINE",
"308 288 LINE",
"540 527 LINE"
);
},
{
closed = 1;
nodes = (
"97 527 LINE",
"97 0 LINE",
"189 0 LINE",
"189 527 LINE"
);
}
);
width = 600;
},
{
layerId = "BF448B58-7A35-489E-A1C9-12628F60690C";
name = Bold;
paths = (
{
closed = 1;
nodes = (
"408 531 LINE",
"235 276 LINE",
"407 0 LINE",
"589 0 LINE",
"401 287 LINE",
"575 531 LINE"
);
},
{
closed = 1;
nodes = (
"69 531 LINE",
"69 0 LINE",
"229 0 LINE",
"229 531 LINE"
);
}
);
width = 600;
}
);
unicode = 0138;
userData = {
public.markColor = "0.67,0.95,0.38,1";
};
},
{
color = 4;
glyphname = l;
lastChange = "2014-12-21 17:35:44 +0000";
layers = (
{
anchors = (
{
name = bottom;
position = "{360, 0}";
},
{
name = center;
position = "{561, 383}";
},
{
name = top;
position = "{264, 739}";
},
{
name = topright;
position = "{350, 739}";
}
);
layerId = UUID0;
name = Regular;
paths = (
{
closed = 1;
nodes = (
"57 739 LINE",
"57 668 LINE",
"218 668 LINE",
"218 140 LINE SMOOTH",
"218 45 OFFCURVE",
"281 -12 OFFCURVE",
"378 -12 CURVE SMOOTH",
"433 -12 OFFCURVE",
"477 1 OFFCURVE",
"506 16 CURVE",
"482 82 LINE",
"454 71 OFFCURVE",
"426 64 OFFCURVE",
"395 64 CURVE SMOOTH",
"345 64 OFFCURVE",
"310 83 OFFCURVE",
"310 134 CURVE SMOOTH",
"310 739 LINE"
);
}
);
width = 600;
},
{
anchors = (
{
name = bottom;
position = "{355, 0}";
},
{
name = center;
position = "{568, 383}";
},
{
name = top;
position = "{256, 742}";
},
{
name = topright;
position = "{378, 742}";
}
);
layerId = "BF448B58-7A35-489E-A1C9-12628F60690C";
name = Bold;
paths = (
{
closed = 1;
nodes = (
"32 742 LINE",
"32 633 LINE",
"188 633 LINE",
"188 188 LINE SMOOTH",
"188 63 OFFCURVE",
"246 -17 OFFCURVE",
"375 -17 CURVE SMOOTH",
"443 -17 OFFCURVE",
"493 -1 OFFCURVE",
"529 18 CURVE",
"491 125 LINE",
"469 116 OFFCURVE",
"443 109 OFFCURVE",
"416 109 CURVE SMOOTH",
"374 109 OFFCURVE",
"348 125 OFFCURVE",
"348 168 CURVE SMOOTH",
"348 742 LINE"
);
}
);
width = 600;
}
);
unicode = 006C;
userData = {
public.markColor = "0.67,0.95,0.38,1";
};
},
{
color = 3;
glyphname = lslash;
lastChange = "2014-12-21 17:35:44 +0000";
layers = (
{
components = (
{
name = l;
transform = "{1, 0, 0, 1, 0, 0}";
}
);
layerId = UUID0;
name = Regular;
paths = (
{
closed = 1;
nodes = (
"115 319 LINE",
"153 261 LINE",
"310 357 LINE",
"435 434 LINE",
"397 492 LINE",
"218 381 LINE"
);
}
);
width = 600;
},
{
components = (
{
name = l;
transform = "{1, 0, 0, 1, 0, 0}";
}
);
layerId = "BF448B58-7A35-489E-A1C9-12628F60690C";
name = Bold;
paths = (
{
closed = 1;
nodes = (
"88 319 LINE",
"144 230 LINE",
"348 354 LINE",
"469 428 LINE",
"412 518 LINE",
"188 380 LINE"
);
}
);
width = 600;
}
);
unicode = 0142;
userData = {
public.markColor = "0.97,1,0,1";
};
},
{
color = 4;
glyphname = m;
lastChange = "2014-12-21 17:35:44 +0000";
layers = (
{
layerId = UUID0;
name = Regular;
paths = (
{
closed = 1;
nodes = (
"396 539 OFFCURVE",
"362 511 OFFCURVE",
"333 470 CURVE",
"317 523 OFFCURVE",
"279 539 OFFCURVE",
"239 539 CURVE SMOOTH",
"187 539 OFFCURVE",
"154 508 OFFCURVE",
"125 467 CURVE",
"119 527 LINE",
"48 527 LINE",
"48 0 LINE",
"132 0 LINE",
"132 407 LINE",
"160 450 OFFCURVE",
"189 467 OFFCURVE",
"220 467 CURVE SMOOTH",
"256 467 OFFCURVE",
"259 441 OFFCURVE",
"259 378 CURVE SMOOTH",
"259 0 LINE",
"341 0 LINE",
"341 407 LINE",
"369 450 OFFCURVE",
"399 467 OFFCURVE",
"429 467 CURVE SMOOTH",
"465 467 OFFCURVE",
"468 441 OFFCURVE",
"468 378 CURVE SMOOTH",
"468 0 LINE",
"552 0 LINE",
"552 392 LINE SMOOTH",
"552 512 OFFCURVE",
"502 539 OFFCURVE",
"449 539 CURVE SMOOTH"
);
}
);
width = 600;
},
{
layerId = "BF448B58-7A35-489E-A1C9-12628F60690C";
name = Bold;
paths = (
{
closed = 1;
nodes = (
"416 549 OFFCURVE",
"378 523 OFFCURVE",
"346 486 CURVE",
"334 529 OFFCURVE",
"305 549 OFFCURVE",
"265 549 CURVE SMOOTH",
"218 549 OFFCURVE",
"187 525 OFFCURVE",
"154 480 CURVE",
"143 531 LINE",
"26 531 LINE",
"26 0 LINE",
"165 0 LINE",
"165 391 LINE",
"186 417 OFFCURVE",
"203 425 OFFCURVE",
"219 425 CURVE SMOOTH",
"240 425 OFFCURVE",
"245 411 OFFCURVE",
"245 375 CURVE SMOOTH",
"245 0 LINE",
"357 0 LINE",
"357 391 LINE",
"378 417 OFFCURVE",
"395 425 OFFCURVE",
"411 425 CURVE SMOOTH",
"432 425 OFFCURVE",
"437 411 OFFCURVE",
"437 375 CURVE SMOOTH",
"437 0 LINE",
"574 0 LINE",
"574 393 LINE SMOOTH",
"574 502 OFFCURVE",
"539 549 OFFCURVE",
"463 549 CURVE SMOOTH"
);
}
);
width = 600;
}
);
unicode = 006D;
userData = {
public.markColor = "0.67,0.95,0.38,1";
};
},
{
color = 4;
glyphname = n;
lastChange = "2014-12-21 17:35:44 +0000";
layers = (
{
anchors = (
{
name = bottom;
position = "{301, 0}";
},
{
name = top;
position = "{300, 527}";
}
);
layerId = UUID0;
name = Regular;
paths = (
{
closed = 1;
nodes = (
"189 0 LINE",
"189 382 LINE",
"217 423 OFFCURVE",
"267 467 OFFCURVE",
"326 467 CURVE SMOOTH",
"401 467 OFFCURVE",
"412 426 OFFCURVE",
"412 323 CURVE SMOOTH",
"412 0 LINE",
"504 0 LINE",
"504 383 LINE SMOOTH",
"504 481 OFFCURVE",
"458 539 OFFCURVE",
"356 539 CURVE SMOOTH",
"294 539 OFFCURVE",
"226 509 OFFCURVE",
"183 455 CURVE",
"176 527 LINE",
"97 527 LINE",
"97 0 LINE"
);
}
);
width = 600;
},
{
anchors = (
{
name = bottom;
position = "{301, 0}";
},
{
name = bottomAttach;
position = "{301, 0}";
},
{
name = top;
position = "{301, 518}";
}
);
layerId = "BF448B58-7A35-489E-A1C9-12628F60690C";
name = Bold;
paths = (
{
closed = 1;
nodes = (
"229 0 LINE",
"229 367 LINE",
"259 407 OFFCURVE",
"288 431 OFFCURVE",
"321 431 CURVE SMOOTH",
"359 431 OFFCURVE",
"371 409 OFFCURVE",
"371 345 CURVE SMOOTH",
"371 0 LINE",
"531 0 LINE",
"531 390 LINE SMOOTH",
"531 491 OFFCURVE",
"479 549 OFFCURVE",
"385 549 CURVE SMOOTH",
"322 549 OFFCURVE",
"267 523 OFFCURVE",
"220 470 CURVE",
"209 531 LINE",
"69 531 LINE",
"69 0 LINE"
);
}
);
width = 600;
}
);
unicode = 006E;
userData = {
public.markColor = "0.67,0.95,0.38,1";
};
},
{
color = 4;
glyphname = eng;
lastChange = "2014-12-21 17:35:44 +0000";
layers = (
{
layerId = UUID0;
name = Regular;
paths = (
{
closed = 1;
nodes = (
"504 383 LINE SMOOTH",
"504 481 OFFCURVE",
"458 539 OFFCURVE",
"356 539 CURVE SMOOTH",
"294 539 OFFCURVE",
"226 509 OFFCURVE",
"183 455 CURVE",
"176 527 LINE",
"97 527 LINE",
"97 0 LINE",
"189 0 LINE",
"189 382 LINE",
"217 423 OFFCURVE",
"268 467 OFFCURVE",
"325 467 CURVE SMOOTH",
"402 467 OFFCURVE",
"412 426 OFFCURVE",
"412 323 CURVE SMOOTH",
"412 26 LINE SMOOTH",
"412 -87 OFFCURVE",
"378 -113 OFFCURVE",
"309 -145 CURVE",
"343 -212 LINE",
"449 -165 OFFCURVE",
"504 -120 OFFCURVE",
"504 32 CURVE SMOOTH"
);
}
);
width = 600;
},
{
layerId = "BF448B58-7A35-489E-A1C9-12628F60690C";
name = Bold;
paths = (
{
closed = 1;
nodes = (
"531 390 LINE SMOOTH",
"531 491 OFFCURVE",
"479 549 OFFCURVE",
"385 549 CURVE SMOOTH",
"322 549 OFFCURVE",
"267 523 OFFCURVE",
"220 470 CURVE",
"209 531 LINE",
"69 531 LINE",
"69 0 LINE",
"229 0 LINE",
"229 367 LINE",
"259 407 OFFCURVE",
"288 431 OFFCURVE",
"321 431 CURVE SMOOTH",
"360 431 OFFCURVE",
"371 409 OFFCURVE",
"371 345 CURVE SMOOTH",
"371 51 LINE SMOOTH",
"371 -45 OFFCURVE",
"331 -75 OFFCURVE",
"262 -105 CURVE",
"318 -222 LINE",
"446 -170 OFFCURVE",
"531 -114 OFFCURVE",
"531 61 CURVE SMOOTH"
);
}
);
width = 600;
}
);
unicode = 014B;
userData = {
public.markColor = "0.67,0.95,0.38,1";
};
},
{
color = 4;
glyphname = o;
lastChange = "2014-12-21 17:35:44 +0000";
layers = (
{
anchors = (
{
name = top;
position = "{300, 527}";
}
);
layerId = UUID0;
name = Regular;
paths = (
{
closed = 1;
nodes = (
"151 539 OFFCURVE",
"70 426 OFFCURVE",
"70 263 CURVE SMOOTH",
"70 96 OFFCURVE",
"150 -12 OFFCURVE",
"300 -12 CURVE SMOOTH",
"449 -12 OFFCURVE",
"530 101 OFFCURVE",
"530 264 CURVE SMOOTH",
"530 431 OFFCURVE",
"451 539 OFFCURVE",
"301 539 CURVE SMOOTH"
);
},
{
closed = 1;
nodes = (
"388 465 OFFCURVE",
"432 401 OFFCURVE",
"432 264 CURVE SMOOTH",
"432 126 OFFCURVE",
"388 62 OFFCURVE",
"300 62 CURVE SMOOTH",
"212 62 OFFCURVE",
"168 126 OFFCURVE",
"168 263 CURVE SMOOTH",
"168 401 OFFCURVE",
"213 465 OFFCURVE",
"301 465 CURVE SMOOTH"
);
}
);
width = 600;
},
{
anchors = (
{
name = top;
position = "{300, 531}";
}
);
layerId = "BF448B58-7A35-489E-A1C9-12628F60690C";
name = Bold;
paths = (
{
closed = 1;
nodes = (
"137 549 OFFCURVE",
"41 435 OFFCURVE",
"41 266 CURVE SMOOTH",
"41 87 OFFCURVE",
"137 -17 OFFCURVE",
"300 -17 CURVE SMOOTH",
"463 -17 OFFCURVE",
"559 89 OFFCURVE",
"559 267 CURVE SMOOTH",
"559 437 OFFCURVE",
"464 549 OFFCURVE",
"300 549 CURVE SMOOTH"
);
},
{
closed = 1;
nodes = (
"364 431 OFFCURVE",
"394 381 OFFCURVE",
"394 267 CURVE SMOOTH",
"394 149 OFFCURVE",
"364 100 OFFCURVE",
"300 100 CURVE SMOOTH",
"236 100 OFFCURVE",
"206 149 OFFCURVE",
"206 266 CURVE SMOOTH",
"206 381 OFFCURVE",
"236 431 OFFCURVE",
"300 431 CURVE SMOOTH"
);
}
);
width = 600;
}
);
unicode = 006F;
userData = {
public.markColor = "0.67,0.95,0.38,1";
};
},
{
color = 4;
glyphname = oslash;
lastChange = "2014-12-21 17:35:44 +0000";
layers = (
{
anchors = (
{
name = top;
position = "{300, 527}";
}
);
layerId = UUID0;
name = Regular;
paths = (
{
closed = 1;
nodes = (
"151 539 OFFCURVE",
"70 426 OFFCURVE",
"70 263 CURVE SMOOTH",
"70 96 OFFCURVE",
"155 -12 OFFCURVE",
"300 -12 CURVE SMOOTH",
"449 -12 OFFCURVE",
"530 101 OFFCURVE",
"530 264 CURVE SMOOTH",
"530 431 OFFCURVE",
"446 539 OFFCURVE",
"301 539 CURVE SMOOTH"
);
},
{
closed = 1;
nodes = (
"346 529 LINE",
"338 482 LINE",
"214 82 LINE",
"186 31 LINE",
"140 -109 LINE",
"215 -131 LINE",
"254 0 LINE",
"267 58 LINE",
"391 457 LINE",
"417 500 LINE",
"461 633 LINE",
"386 655 LINE"
);
},
{
closed = 1;
nodes = (
"388 465 OFFCURVE",
"432 411 OFFCURVE",
"432 264 CURVE SMOOTH",
"432 126 OFFCURVE",
"388 62 OFFCURVE",
"300 62 CURVE SMOOTH",
"212 62 OFFCURVE",
"168 116 OFFCURVE",
"168 263 CURVE SMOOTH",
"168 401 OFFCURVE",
"213 465 OFFCURVE",
"301 465 CURVE SMOOTH"
);
}
);
width = 600;
},
{
anchors = (
{
name = top;
position = "{300, 531}";
}
);
layerId = "BF448B58-7A35-489E-A1C9-12628F60690C";
name = Bold;
paths = (
{
closed = 1;
nodes = (
"137 549 OFFCURVE",
"41 435 OFFCURVE",
"41 266 CURVE SMOOTH",
"41 87 OFFCURVE",
"137 -17 OFFCURVE",
"300 -17 CURVE SMOOTH",
"463 -17 OFFCURVE",
"559 89 OFFCURVE",
"559 267 CURVE SMOOTH",
"559 437 OFFCURVE",
"464 549 OFFCURVE",
"300 549 CURVE SMOOTH"
);
},
{
closed = 1;
nodes = (
"328 539 LINE",
"321 451 LINE",
"216 123 LINE",
"160 33 LINE",
"115 -103 LINE",
"232 -137 LINE",
"272 -7 LINE",
"281 79 LINE",
"384 401 LINE",
"442 499 LINE",
"485 629 LINE",
"369 663 LINE"
);
},
{
closed = 1;
nodes = (
"377 434 OFFCURVE",
"397 394 OFFCURVE",
"397 267 CURVE SMOOTH",
"397 146 OFFCURVE",
"367 97 OFFCURVE",
"300 97 CURVE SMOOTH",
"223 97 OFFCURVE",
"203 136 OFFCURVE",
"203 266 CURVE SMOOTH",
"203 384 OFFCURVE",
"233 434 OFFCURVE",
"300 434 CURVE SMOOTH"
);
}
);
width = 600;
}
);
unicode = 00F8;
userData = {
public.markColor = "0.67,0.95,0.38,1";
};
},
{
color = 4;
glyphname = oe;
lastChange = "2014-12-21 17:35:44 +0000";
layers = (
{
layerId = UUID0;
name = Regular;
paths = (
{
closed = 1;
nodes = (
"374 539 OFFCURVE",
"333 496 OFFCURVE",
"309 438 CURVE",
"286 499 OFFCURVE",
"249 539 OFFCURVE",
"168 539 CURVE SMOOTH",
"48 539 OFFCURVE",
"-3 426 OFFCURVE",
"-3 263 CURVE SMOOTH",
"-3 96 OFFCURVE",
"50 -12 OFFCURVE",
"168 -12 CURVE SMOOTH",
"245 -12 OFFCURVE",
"283 28 OFFCURVE",
"308 87 CURVE",
"335 24 OFFCURVE",
"385 -12 OFFCURVE",
"458 -12 CURVE SMOOTH",
"515 -12 OFFCURVE",
"556 9 OFFCURVE",
"596 41 CURVE",
"555 101 LINE",
"522 76 OFFCURVE",
"497 62 OFFCURVE",
"460 62 CURVE SMOOTH",
"392 62 OFFCURVE",
"361 115 OFFCURVE",
"352 232 CURVE",
"612 232 LINE",
"613 245 OFFCURVE",
"614 261 OFFCURVE",
"614 279 CURVE SMOOTH",
"614 441 OFFCURVE",
"565 539 OFFCURVE",
"448 539 CURVE SMOOTH"
);
},
{
closed = 1;
nodes = (
"240 466 OFFCURVE",
"263 402 OFFCURVE",
"263 264 CURVE SMOOTH",
"263 116 OFFCURVE",
"241 62 OFFCURVE",
"178 62 CURVE SMOOTH",
"115 62 OFFCURVE",
"91 121 OFFCURVE",
"91 263 CURVE SMOOTH",
"91 401 OFFCURVE",
"115 466 OFFCURVE",
"178 466 CURVE SMOOTH"
);
},
{
closed = 1;
nodes = (
"508 466 OFFCURVE",
"526 409 OFFCURVE",
"528 300 CURVE",
"352 300 LINE",
"360 423 OFFCURVE",
"387 466 OFFCURVE",
"445 466 CURVE SMOOTH"
);
}
);
width = 600;
},
{
layerId = "BF448B58-7A35-489E-A1C9-12628F60690C";
name = Bold;
paths = (
{
closed = 1;
nodes = (
"372 549 OFFCURVE",
"331 515 OFFCURVE",
"305 466 CURVE",
"281 518 OFFCURVE",
"244 549 OFFCURVE",
"176 549 CURVE SMOOTH",
"48 549 OFFCURVE",
"-8 435 OFFCURVE",
"-8 266 CURVE SMOOTH",
"-8 87 OFFCURVE",
"49 -17 OFFCURVE",
"176 -17 CURVE SMOOTH",
"241 -17 OFFCURVE",
"278 13 OFFCURVE",
"302 62 CURVE",
"334 12 OFFCURVE",
"384 -17 OFFCURVE",
"454 -17 CURVE SMOOTH",
"519 -17 OFFCURVE",
"567 7 OFFCURVE",
"606 40 CURVE",
"546 120 LINE",
"517 99 OFFCURVE",
"493 88 OFFCURVE",
"462 88 CURVE SMOOTH",
"407 88 OFFCURVE",
"377 130 OFFCURVE",
"369 226 CURVE",
"603 226 LINE",
"605 242 OFFCURVE",
"606 258 OFFCURVE",
"606 276 CURVE SMOOTH",
"606 452 OFFCURVE",
"561 549 OFFCURVE",
"438 549 CURVE SMOOTH"
);
},
{
closed = 1;
nodes = (
"224 431 OFFCURVE",
"240 387 OFFCURVE",
"240 267 CURVE SMOOTH",
"240 139 OFFCURVE",
"224 100 OFFCURVE",
"182 100 CURVE SMOOTH",
"139 100 OFFCURVE",
"124 141 OFFCURVE",
"124 266 CURVE SMOOTH",
"124 387 OFFCURVE",
"139 431 OFFCURVE",
"182 431 CURVE SMOOTH"
);
},
{
closed = 1;
nodes = (
"475 449 OFFCURVE",
"485 406 OFFCURVE",
"486 312 CURVE",
"368 312 LINE",
"373 416 OFFCURVE",
"393 449 OFFCURVE",
"432 449 CURVE SMOOTH"
);
}
);
width = 600;
}
);
unicode = 0153;
userData = {
public.markColor = "0.67,0.95,0.38,1";
};
},
{
color = 4;
glyphname = p;
lastChange = "2014-12-21 17:35:44 +0000";
layers = (
{
layerId = UUID0;
name = Regular;
paths = (
{
closed = 1;
nodes = (
"277 539 OFFCURVE",
"222 509 OFFCURVE",
"183 455 CURVE",
"176 527 LINE",
"97 527 LINE",
"97 -213 LINE",
"189 -202 LINE",
"189 48 LINE",
"224 8 OFFCURVE",
"270 -12 OFFCURVE",
"327 -12 CURVE SMOOTH",
"463 -12 OFFCURVE",
"530 104 OFFCURVE",
"530 264 CURVE SMOOTH",
"530 430 OFFCURVE",
"479 539 OFFCURVE",
"339 539 CURVE SMOOTH"
);
},
{
closed = 1;
nodes = (
"395 466 OFFCURVE",
"432 401 OFFCURVE",
"432 264 CURVE SMOOTH",
"432 126 OFFCURVE",
"389 63 OFFCURVE",
"305 63 CURVE SMOOTH",
"257 63 OFFCURVE",
"216 87 OFFCURVE",
"189 127 CURVE",
"189 384 LINE",
"217 426 OFFCURVE",
"260 466 OFFCURVE",
"316 466 CURVE SMOOTH"
);
}
);
width = 600;
},
{
layerId = "BF448B58-7A35-489E-A1C9-12628F60690C";
name = Bold;
paths = (
{
closed = 1;
nodes = (
"315 549 OFFCURVE",
"261 527 OFFCURVE",
"218 472 CURVE",
"211 531 LINE",
"69 531 LINE",
"69 -222 LINE",
"229 -205 LINE",
"229 38 LINE",
"261 2 OFFCURVE",
"303 -17 OFFCURVE",
"355 -17 CURVE SMOOTH",
"484 -17 OFFCURVE",
"559 103 OFFCURVE",
"559 267 CURVE SMOOTH",
"559 440 OFFCURVE",
"503 549 OFFCURVE",
"365 549 CURVE SMOOTH"
);
},
{
closed = 1;
nodes = (
"364 431 OFFCURVE",
"394 397 OFFCURVE",
"394 265 CURVE SMOOTH",
"394 146 OFFCURVE",
"361 100 OFFCURVE",
"306 100 CURVE SMOOTH",
"273 100 OFFCURVE",
"251 115 OFFCURVE",
"229 147 CURVE",
"229 370 LINE",
"252 408 OFFCURVE",
"279 431 OFFCURVE",
"315 431 CURVE SMOOTH"
);
}
);
width = 600;
}
);
unicode = 0070;
userData = {
public.markColor = "0.67,0.95,0.38,1";
};
},
{
color = 4;
glyphname = thorn;
lastChange = "2014-12-21 17:35:44 +0000";
layers = (
{
layerId = UUID0;
name = Regular;
paths = (
{
closed = 1;
nodes = (
"97 739 LINE",
"97 -213 LINE",
"189 -202 LINE",
"189 48 LINE",
"224 8 OFFCURVE",
"270 -12 OFFCURVE",
"327 -12 CURVE SMOOTH",
"463 -12 OFFCURVE",
"530 104 OFFCURVE",
"530 264 CURVE SMOOTH",
"530 430 OFFCURVE",
"479 539 OFFCURVE",
"339 539 CURVE SMOOTH",
"280 539 OFFCURVE",
"227 512 OFFCURVE",
"189 463 CURVE",
"189 750 LINE"
);
},
{
closed = 1;
nodes = (
"395 466 OFFCURVE",
"432 401 OFFCURVE",
"432 264 CURVE SMOOTH",
"432 126 OFFCURVE",
"389 63 OFFCURVE",
"305 63 CURVE SMOOTH",
"257 63 OFFCURVE",
"216 87 OFFCURVE",
"189 127 CURVE",
"189 384 LINE",
"217 426 OFFCURVE",
"260 466 OFFCURVE",
"316 466 CURVE SMOOTH"
);
}
);
width = 600;
},
{
layerId = "BF448B58-7A35-489E-A1C9-12628F60690C";
name = Bold;
paths = (
{
closed = 1;
nodes = (
"69 742 LINE",
"69 -222 LINE",
"229 -205 LINE",
"229 38 LINE",
"261 2 OFFCURVE",
"303 -17 OFFCURVE",
"355 -17 CURVE SMOOTH",
"484 -17 OFFCURVE",
"559 103 OFFCURVE",
"559 267 CURVE SMOOTH",
"559 440 OFFCURVE",
"503 549 OFFCURVE",
"365 549 CURVE SMOOTH",
"309 549 OFFCURVE",
"261 523 OFFCURVE",
"229 478 CURVE",
"229 759 LINE"
);
},
{
closed = 1;
nodes = (
"364 431 OFFCURVE",
"394 397 OFFCURVE",
"394 265 CURVE SMOOTH",
"394 146 OFFCURVE",
"361 100 OFFCURVE",
"306 100 CURVE SMOOTH",
"273 100 OFFCURVE",
"251 115 OFFCURVE",
"229 147 CURVE",
"229 370 LINE",
"252 408 OFFCURVE",
"279 431 OFFCURVE",
"315 431 CURVE SMOOTH"
);
}
);
width = 600;
}
);
unicode = 00FE;
userData = {
public.markColor = "0.67,0.95,0.38,1";
};
},
{
color = 4;
glyphname = q;
lastChange = "2014-12-21 17:35:44 +0000";
layers = (
{
layerId = UUID0;
name = Regular;
paths = (
{
closed = 1;
nodes = (
"141 539 OFFCURVE",
"70 422 OFFCURVE",
"70 263 CURVE SMOOTH",
"70 97 OFFCURVE",
"123 -12 OFFCURVE",
"264 -12 CURVE SMOOTH",
"322 -12 OFFCURVE",
"373 12 OFFCURVE",
"411 64 CURVE",
"411 -202 LINE",
"503 -213 LINE",
"503 527 LINE",
"424 527 LINE",
"417 471 LINE",
"382 515 OFFCURVE",
"334 539 OFFCURVE",
"272 539 CURVE SMOOTH"
);
},
{
closed = 1;
nodes = (
"343 466 OFFCURVE",
"384 442 OFFCURVE",
"411 401 CURVE",
"411 142 LINE",
"383 99 OFFCURVE",
"341 63 OFFCURVE",
"285 63 CURVE SMOOTH",
"207 63 OFFCURVE",
"168 127 OFFCURVE",
"168 263 CURVE SMOOTH",
"168 400 OFFCURVE",
"211 466 OFFCURVE",
"295 466 CURVE SMOOTH"
);
}
);
width = 600;
},
{
layerId = "BF448B58-7A35-489E-A1C9-12628F60690C";
name = Bold;
paths = (
{
closed = 1;
nodes = (
"118 549 OFFCURVE",
"41 431 OFFCURVE",
"41 267 CURVE SMOOTH",
"41 95 OFFCURVE",
"99 -17 OFFCURVE",
"235 -17 CURVE SMOOTH",
"298 -17 OFFCURVE",
"340 8 OFFCURVE",
"371 44 CURVE",
"371 -205 LINE",
"531 -222 LINE",
"531 531 LINE",
"391 531 LINE",
"384 489 LINE",
"352 528 OFFCURVE",
"306 549 OFFCURVE",
"254 549 CURVE SMOOTH"
);
},
{
closed = 1;
nodes = (
"328 432 OFFCURVE",
"350 416 OFFCURVE",
"371 389 CURVE",
"371 161 LINE",
"349 123 OFFCURVE",
"322 101 OFFCURVE",
"286 101 CURVE SMOOTH",
"238 101 OFFCURVE",
"206 135 OFFCURVE",
"206 266 CURVE SMOOTH",
"206 385 OFFCURVE",
"239 432 OFFCURVE",
"296 432 CURVE SMOOTH"
);
}
);
width = 600;
}
);
unicode = 0071;
userData = {
public.markColor = "0.67,0.95,0.38,1";
};
},
{
color = 4;
glyphname = r;
lastChange = "2014-12-21 17:35:44 +0000";
layers = (
{
anchors = (
{
name = bottom;
position = "{259, 0}";
},
{
name = top;
position = "{310, 527}";
}
);
layerId = UUID0;
name = Regular;
paths = (
{
closed = 1;
nodes = (
"452 71 LINE",
"305 71 LINE",
"305 309 LINE",
"323 382 OFFCURVE",
"376 449 OFFCURVE",
"446 449 CURVE SMOOTH",
"469 449 OFFCURVE",
"485 446 OFFCURVE",
"507 440 CURVE",
"524 531 LINE",
"499 537 OFFCURVE",
"481 539 OFFCURVE",
"455 539 CURVE SMOOTH",
"392 539 OFFCURVE",
"334 500 OFFCURVE",
"304 426 CURVE",
"293 527 LINE",
"92 527 LINE",
"92 456 LINE",
"213 456 LINE",
"213 71 LINE",
"92 71 LINE",
"92 0 LINE",
"452 0 LINE"
);
}
);
width = 600;
},
{
anchors = (
{
name = bottom;
position = "{264, 0}";
},
{
name = top;
position = "{315, 531}";
}
);
layerId = "BF448B58-7A35-489E-A1C9-12628F60690C";
name = Bold;
paths = (
{
closed = 1;
nodes = (
"479 109 LINE",
"344 109 LINE",
"344 267 LINE",
"361 338 OFFCURVE",
"398 391 OFFCURVE",
"464 391 CURVE SMOOTH",
"488 391 OFFCURVE",
"506 388 OFFCURVE",
"525 383 CURVE",
"551 538 LINE",
"528 544 OFFCURVE",
"512 547 OFFCURVE",
"485 547 CURVE SMOOTH",
"420 547 OFFCURVE",
"363 503 OFFCURVE",
"339 432 CURVE",
"326 531 LINE",
"74 531 LINE",
"74 422 LINE",
"184 422 LINE",
"184 109 LINE",
"74 109 LINE",
"74 0 LINE",
"479 0 LINE"
);
}
);
width = 600;
}
);
unicode = 0072;
userData = {
public.markColor = "0.67,0.95,0.38,1";
};
},
{
color = 4;
glyphname = s;
lastChange = "2014-12-21 17:35:44 +0000";
layers = (
{
anchors = (
{
name = bottom;
position = "{297, 0}";
},
{
name = top;
position = "{308, 527}";
}
);
layerId = UUID0;
name = Regular;
paths = (
{
closed = 1;
nodes = (
"218 62 OFFCURVE",
"163 85 OFFCURVE",
"122 119 CURVE",
"71 60 LINE",
"117 20 OFFCURVE",
"184 -12 OFFCURVE",
"280 -12 CURVE SMOOTH",
"395 -12 OFFCURVE",
"505 34 OFFCURVE",
"505 147 CURVE SMOOTH",
"505 246 OFFCURVE",
"437 282 OFFCURVE",
"334 310 CURVE SMOOTH",
"228 339 OFFCURVE",
"196 355 OFFCURVE",
"196 400 CURVE SMOOTH",
"196 439 OFFCURVE",
"226 466 OFFCURVE",
"306 466 CURVE SMOOTH",
"372 466 OFFCURVE",
"418 446 OFFCURVE",
"458 419 CURVE",
"498 480 LINE",
"453 513 OFFCURVE",
"390 539 OFFCURVE",
"304 539 CURVE SMOOTH",
"182 539 OFFCURVE",
"101 482 OFFCURVE",
"101 393 CURVE SMOOTH",
"101 301 OFFCURVE",
"171 267 OFFCURVE",
"279 240 CURVE SMOOTH",
"390 212 OFFCURVE",
"406 188 OFFCURVE",
"406 142 CURVE SMOOTH",
"406 93 OFFCURVE",
"358 62 OFFCURVE",
"280 62 CURVE SMOOTH"
);
}
);
width = 600;
},
{
anchors = (
{
name = bottom;
position = "{301, 0}";
},
{
name = top;
position = "{313, 531}";
}
);
layerId = "BF448B58-7A35-489E-A1C9-12628F60690C";
name = Bold;
paths = (
{
closed = 1;
nodes = (
"221 97 OFFCURVE",
"168 121 OFFCURVE",
"127 153 CURVE",
"47 63 LINE",
"102 15 OFFCURVE",
"181 -17 OFFCURVE",
"284 -17 CURVE SMOOTH",
"420 -17 OFFCURVE",
"536 42 OFFCURVE",
"536 159 CURVE SMOOTH",
"536 263 OFFCURVE",
"469 298 OFFCURVE",
"366 327 CURVE SMOOTH",
"262 357 OFFCURVE",
"241 368 OFFCURVE",
"241 395 CURVE SMOOTH",
"241 422 OFFCURVE",
"265 435 OFFCURVE",
"316 435 CURVE SMOOTH",
"367 435 OFFCURVE",
"419 417 OFFCURVE",
"463 390 CURVE",
"527 484 LINE",
"475 522 OFFCURVE",
"406 549 OFFCURVE",
"311 549 CURVE SMOOTH",
"161 549 OFFCURVE",
"80 479 OFFCURVE",
"80 384 CURVE SMOOTH",
"80 290 OFFCURVE",
"147 247 OFFCURVE",
"244 221 CURVE SMOOTH",
"350 192 OFFCURVE",
"370 180 OFFCURVE",
"370 146 CURVE SMOOTH",
"370 113 OFFCURVE",
"335 97 OFFCURVE",
"283 97 CURVE SMOOTH"
);
}
);
width = 600;
}
);
unicode = 0073;
userData = {
public.markColor = "0.67,0.95,0.38,1";
};
},
{
color = 4;
glyphname = germandbls;
lastChange = "2014-12-21 17:35:44 +0000";
layers = (
{
layerId = UUID0;
name = Regular;
paths = (
{
closed = 1;
nodes = (
"168 750 OFFCURVE",
"92 675 OFFCURVE",
"92 533 CURVE SMOOTH",
"92 0 LINE",
"184 0 LINE",
"184 539 LINE SMOOTH",
"184 639 OFFCURVE",
"223 678 OFFCURVE",
"295 678 CURVE SMOOTH",
"363 678 OFFCURVE",
"385 633 OFFCURVE",
"385 597 CURVE SMOOTH",
"385 523 OFFCURVE",
"273 512 OFFCURVE",
"273 417 CURVE SMOOTH",
"273 286 OFFCURVE",
"466 289 OFFCURVE",
"466 163 CURVE SMOOTH",
"466 95 OFFCURVE",
"427 62 OFFCURVE",
"363 62 CURVE SMOOTH",
"335 62 OFFCURVE",
"303 71 OFFCURVE",
"279 85 CURVE",
"243 22 LINE",
"278 0 OFFCURVE",
"319 -12 OFFCURVE",
"372 -12 CURVE SMOOTH",
"474 -12 OFFCURVE",
"560 51 OFFCURVE",
"560 167 CURVE SMOOTH",
"560 336 OFFCURVE",
"362 343 OFFCURVE",
"362 429 CURVE SMOOTH",
"362 491 OFFCURVE",
"473 508 OFFCURVE",
"473 605 CURVE SMOOTH",
"473 690 OFFCURVE",
"402 750 OFFCURVE",
"296 750 CURVE SMOOTH"
);
}
);
width = 600;
},
{
layerId = "BF448B58-7A35-489E-A1C9-12628F60690C";
name = Bold;
paths = (
{
closed = 1;
nodes = (
"138 759 OFFCURVE",
"59 674 OFFCURVE",
"59 531 CURVE SMOOTH",
"59 0 LINE",
"219 0 LINE",
"219 538 LINE SMOOTH",
"219 611 OFFCURVE",
"238 647 OFFCURVE",
"287 647 CURVE SMOOTH",
"319 647 OFFCURVE",
"339 629 OFFCURVE",
"339 596 CURVE SMOOTH",
"339 524 OFFCURVE",
"265 494 OFFCURVE",
"265 404 CURVE SMOOTH",
"265 273 OFFCURVE",
"413 276 OFFCURVE",
"413 167 CURVE SMOOTH",
"413 128 OFFCURVE",
"394 106 OFFCURVE",
"356 106 CURVE SMOOTH",
"338 106 OFFCURVE",
"320 111 OFFCURVE",
"300 121 CURVE",
"249 14 LINE",
"284 -5 OFFCURVE",
"325 -17 OFFCURVE",
"376 -17 CURVE SMOOTH",
"492 -17 OFFCURVE",
"578 50 OFFCURVE",
"578 168 CURVE SMOOTH",
"578 342 OFFCURVE",
"404 356 OFFCURVE",
"404 432 CURVE SMOOTH",
"404 493 OFFCURVE",
"494 512 OFFCURVE",
"494 603 CURVE SMOOTH",
"494 690 OFFCURVE",
"421 759 OFFCURVE",
"291 759 CURVE SMOOTH"
);
}
);
width = 600;
}
);
unicode = 00DF;
userData = {
public.markColor = "0.67,0.95,0.38,1";
};
},
{
color = 4;
glyphname = t;
lastChange = "2014-12-21 17:35:44 +0000";
layers = (
{
anchors = (
{
name = bottom;
position = "{370, 0}";
},
{
name = center;
position = "{300, 264}";
},
{
name = topright;
position = "{331, 759}";
}
);
layerId = UUID0;
name = Regular;
paths = (
{
closed = 1;
nodes = (
"487 89 LINE",
"459 74 OFFCURVE",
"426 64 OFFCURVE",
"387 64 CURVE SMOOTH",
"317 64 OFFCURVE",
"289 94 OFFCURVE",
"289 152 CURVE SMOOTH",
"289 457 LINE",
"459 457 LINE",
"470 527 LINE",
"289 527 LINE",
"289 657 LINE",
"197 646 LINE",
"197 527 LINE",
"77 527 LINE",
"77 457 LINE",
"197 457 LINE",
"197 151 LINE SMOOTH",
"197 55 OFFCURVE",
"261 -12 OFFCURVE",
"377 -12 CURVE SMOOTH",
"429 -12 OFFCURVE",
"485 3 OFFCURVE",
"522 27 CURVE"
);
}
);
width = 600;
},
{
anchors = (
{
name = bottom;
position = "{360, 0}";
},
{
name = center;
position = "{300, 266}";
},
{
name = topright;
position = "{355, 742}";
}
);
layerId = "BF448B58-7A35-489E-A1C9-12628F60690C";
name = Bold;
paths = (
{
closed = 1;
nodes = (
"496 133 LINE",
"471 119 OFFCURVE",
"440 109 OFFCURVE",
"403 109 CURVE SMOOTH",
"351 109 OFFCURVE",
"328 129 OFFCURVE",
"328 182 CURVE SMOOTH",
"328 421 LINE",
"483 421 LINE",
"499 531 LINE",
"328 531 LINE",
"328 665 LINE",
"168 646 LINE",
"168 531 LINE",
"57 531 LINE",
"57 421 LINE",
"168 421 LINE",
"168 182 LINE SMOOTH",
"168 59 OFFCURVE",
"234 -17 OFFCURVE",
"374 -17 CURVE SMOOTH",
"448 -17 OFFCURVE",
"507 4 OFFCURVE",
"549 31 CURVE"
);
}
);
width = 600;
}
);
unicode = 0074;
userData = {
public.markColor = "0.67,0.95,0.38,1";
};
},
{
color = 3;
glyphname = tbar;
lastChange = "2014-12-21 17:35:44 +0000";
layers = (
{
components = (
{
name = t;
transform = "{1, 0, 0, 1, 0, 0}";
}
);
layerId = UUID0;
name = Regular;
paths = (
{
closed = 1;
nodes = (
"197 353 LINE",
"88 353 LINE",
"88 285 LINE",
"289 285 LINE",
"460 285 LINE",
"460 353 LINE"
);
}
);
width = 600;
},
{
components = (
{
name = t;
transform = "{1, 0, 0, 1, 0, 0}";
}
);
layerId = "BF448B58-7A35-489E-A1C9-12628F60690C";
name = Bold;
paths = (
{
closed = 1;
nodes = (
"168 361 LINE",
"69 361 LINE",
"69 261 LINE",
"328 261 LINE",
"482 261 LINE",
"482 361 LINE"
);
}
);
width = 600;
}
);
unicode = 0167;
userData = {
public.markColor = "0.97,1,0,1";
};
},
{
color = 4;
glyphname = u;
lastChange = "2014-12-21 17:35:44 +0000";
layers = (
{
anchors = (
{
name = ogonek;
position = "{513, 0}";
},
{
name = top;
position = "{300, 527}";
}
);
layerId = UUID0;
name = Regular;
paths = (
{
closed = 1;
nodes = (
"97 527 LINE",
"97 144 LINE SMOOTH",
"97 46 OFFCURVE",
"147 -12 OFFCURVE",
"249 -12 CURVE SMOOTH",
"311 -12 OFFCURVE",
"376 17 OFFCURVE",
"417 70 CURVE",
"424 0 LINE",
"503 0 LINE",
"503 527 LINE",
"411 527 LINE",
"411 141 LINE",
"383 97 OFFCURVE",
"329 60 OFFCURVE",
"274 60 CURVE SMOOTH",
"216 60 OFFCURVE",
"189 88 OFFCURVE",
"189 155 CURVE SMOOTH",
"189 527 LINE"
);
}
);
width = 600;
},
{
anchors = (
{
name = ogonek;
position = "{541, 0}";
},
{
name = top;
position = "{300, 531}";
}
);
layerId = "BF448B58-7A35-489E-A1C9-12628F60690C";
name = Bold;
paths = (
{
closed = 1;
nodes = (
"69 531 LINE",
"69 148 LINE SMOOTH",
"69 47 OFFCURVE",
"118 -17 OFFCURVE",
"221 -17 CURVE SMOOTH",
"285 -17 OFFCURVE",
"348 10 OFFCURVE",
"384 62 CURVE",
"391 0 LINE",
"531 0 LINE",
"531 531 LINE",
"371 531 LINE",
"371 158 LINE",
"349 123 OFFCURVE",
"314 101 OFFCURVE",
"282 101 CURVE SMOOTH",
"249 101 OFFCURVE",
"229 117 OFFCURVE",
"229 168 CURVE SMOOTH",
"229 531 LINE"
);
}
);
width = 600;
}
);
unicode = 0075;
userData = {
public.markColor = "0.67,0.95,0.38,1";
};
},
{
color = 4;
glyphname = v;
lastChange = "2014-12-21 17:35:44 +0000";
layers = (
{
layerId = UUID0;
name = Regular;
paths = (
{
closed = 1;
nodes = (
"448 527 LINE",
"302 81 LINE",
"155 527 LINE",
"57 527 LINE",
"246 0 LINE",
"353 0 LINE",
"543 527 LINE"
);
}
);
width = 600;
},
{
layerId = "BF448B58-7A35-489E-A1C9-12628F60690C";
name = Bold;
paths = (
{
closed = 1;
nodes = (
"410 531 LINE",
"303 122 LINE",
"201 531 LINE",
"28 531 LINE",
"207 0 LINE",
"395 0 LINE",
"572 531 LINE"
);
}
);
width = 600;
}
);
unicode = 0076;
userData = {
public.markColor = "0.67,0.95,0.38,1";
};
},
{
color = 4;
glyphname = w;
lastChange = "2014-12-21 17:35:44 +0000";
layers = (
{
anchors = (
{
name = top;
position = "{300, 527}";
}
);
layerId = UUID0;
name = Regular;
paths = (
{
closed = 1;
nodes = (
"584 527 LINE",
"496 527 LINE",
"432 72 LINE",
"428 72 LINE",
"356 460 LINE",
"253 460 LINE",
"176 70 LINE",
"172 70 LINE",
"108 527 LINE",
"16 527 LINE",
"110 0 LINE",
"232 0 LINE",
"300 373 LINE",
"304 373 LINE",
"369 0 LINE",
"494 0 LINE"
);
}
);
width = 600;
},
{
anchors = (
{
name = top;
position = "{300, 531}";
}
);
layerId = "BF448B58-7A35-489E-A1C9-12628F60690C";
name = Bold;
paths = (
{
closed = 1;
nodes = (
"597 531 LINE",
"456 531 LINE",
"423 119 LINE",
"419 119 LINE",
"372 464 LINE",
"238 464 LINE",
"184 117 LINE",
"180 117 LINE",
"149 531 LINE",
"3 531 LINE",
"81 0 LINE",
"254 0 LINE",
"299 338 LINE",
"303 338 LINE",
"346 0 LINE",
"522 0 LINE"
);
}
);
width = 600;
}
);
unicode = 0077;
userData = {
public.markColor = "0.67,0.95,0.38,1";
};
},
{
color = 4;
glyphname = x;
lastChange = "2014-12-21 17:35:44 +0000";
layers = (
{
anchors = (
{
name = bottomright;
position = "{493, 0}";
}
);
layerId = UUID0;
name = Regular;
paths = (
{
closed = 1;
nodes = (
"297 223 LINE",
"437 0 LINE",
"548 0 LINE",
"355 282 LINE",
"524 527 LINE",
"420 527 LINE",
"301 334 LINE",
"183 527 LINE",
"75 527 LINE",
"245 278 LINE",
"52 0 LINE",
"156 0 LINE"
);
}
);
width = 600;
},
{
anchors = (
{
name = bottomright;
position = "{519, 0}";
}
);
layerId = "BF448B58-7A35-489E-A1C9-12628F60690C";
name = Bold;
paths = (
{
closed = 1;
nodes = (
"294 198 LINE",
"398 0 LINE",
"579 0 LINE",
"396 285 LINE",
"552 531 LINE",
"382 531 LINE",
"301 362 LINE",
"217 531 LINE",
"38 531 LINE",
"203 279 LINE",
"21 0 LINE",
"194 0 LINE"
);
}
);
width = 600;
}
);
unicode = 0078;
userData = {
public.markColor = "0.67,0.95,0.38,1";
};
},
{
color = 4;
glyphname = y;
lastChange = "2014-12-21 17:35:44 +0000";
layers = (
{
anchors = (
{
name = top;
position = "{300, 527}";
}
);
layerId = UUID0;
name = Regular;
paths = (
{
closed = 1;
nodes = (
"447 527 LINE",
"302 68 LINE",
"156 527 LINE",
"58 527 LINE",
"240 0 LINE",
"271 0 LINE",
"243 -80 OFFCURVE",
"211 -123 OFFCURVE",
"103 -141 CURVE",
"116 -213 LINE",
"258 -199 OFFCURVE",
"320 -114 OFFCURVE",
"358 -3 CURVE SMOOTH",
"542 527 LINE"
);
}
);
width = 600;
},
{
anchors = (
{
name = top;
position = "{300, 531}";
}
);
layerId = "BF448B58-7A35-489E-A1C9-12628F60690C";
name = Bold;
paths = (
{
closed = 1;
nodes = (
"409 531 LINE",
"298 102 LINE",
"196 531 LINE",
"27 531 LINE",
"195 0 LINE",
"250 0 LINE",
"221 -68 OFFCURVE",
"183 -97 OFFCURVE",
"79 -110 CURVE",
"97 -223 LINE",
"259 -214 OFFCURVE",
"349 -142 OFFCURVE",
"396 0 CURVE SMOOTH",
"573 531 LINE"
);
}
);
width = 600;
}
);
unicode = 0079;
userData = {
public.markColor = "0.67,0.95,0.38,1";
};
},
{
color = 4;
glyphname = z;
lastChange = "2014-12-21 17:35:44 +0000";
layers = (
{
anchors = (
{
name = top;
position = "{310, 527}";
}
);
layerId = UUID0;
name = Regular;
paths = (
{
closed = 1;
nodes = (
"498 457 LINE",
"498 527 LINE",
"122 527 LINE",
"122 449 LINE",
"388 449 LINE",
"99 69 LINE",
"99 0 LINE",
"490 0 LINE",
"501 77 LINE",
"211 77 LINE"
);
}
);
width = 600;
},
{
anchors = (
{
name = top;
position = "{307, 531}";
}
);
layerId = "BF448B58-7A35-489E-A1C9-12628F60690C";
name = Bold;
paths = (
{
closed = 1;
nodes = (
"520 419 LINE",
"520 531 LINE",
"93 531 LINE",
"93 411 LINE",
"334 411 LINE",
"71 113 LINE",
"71 0 LINE",
"510 0 LINE",
"525 121 LINE",
"260 121 LINE"
);
}
);
width = 600;
}
);
unicode = 007A;
userData = {
public.markColor = "0.67,0.95,0.38,1";
};
},
{
color = 4;
glyphname = fi;
lastChange = "2014-12-21 17:35:44 +0000";
layers = (
{
layerId = UUID0;
name = Regular;
paths = (
{
closed = 1;
nodes = (
"587 71 LINE",
"496 71 LINE",
"496 527 LINE",
"200 527 LINE",
"200 590 LINE SMOOTH",
"200 648 OFFCURVE",
"236 676 OFFCURVE",
"310 676 CURVE SMOOTH",
"350 676 OFFCURVE",
"389 669 OFFCURVE",
"423 654 CURVE",
"452 721 LINE",
"410 739 OFFCURVE",
"364 750 OFFCURVE",
"305 750 CURVE SMOOTH",
"192 750 OFFCURVE",
"108 687 OFFCURVE",
"108 589 CURVE SMOOTH",
"108 527 LINE",
"19 527 LINE",
"19 456 LINE",
"108 456 LINE",
"108 0 LINE",
"200 0 LINE",
"200 456 LINE",
"404 456 LINE",
"404 71 LINE",
"314 71 LINE",
"314 0 LINE",
"587 0 LINE"
);
}
);
width = 600;
},
{
layerId = "BF448B58-7A35-489E-A1C9-12628F60690C";
name = Bold;
paths = (
{
closed = 1;
nodes = (
"592 109 LINE",
"529 109 LINE",
"529 531 LINE",
"240 531 LINE",
"240 568 LINE SMOOTH",
"240 620 OFFCURVE",
"265 641 OFFCURVE",
"328 641 CURVE SMOOTH",
"366 641 OFFCURVE",
"405 635 OFFCURVE",
"442 621 CURVE",
"485 725 LINE",
"439 745 OFFCURVE",
"381 759 OFFCURVE",
"302 759 CURVE SMOOTH",
"158 759 OFFCURVE",
"87 679 OFFCURVE",
"87 574 CURVE SMOOTH",
"87 531 LINE",
"10 531 LINE",
"10 420 LINE",
"87 420 LINE",
"87 0 LINE",
"240 0 LINE",
"240 420 LINE",
"375 420 LINE",
"375 109 LINE",
"315 109 LINE",
"315 0 LINE",
"592 0 LINE"
);
}
);
width = 600;
}
);
unicode = FB01;
userData = {
public.markColor = "0.67,0.95,0.38,1";
};
},
{
color = 4;
glyphname = fl;
lastChange = "2014-12-21 17:35:44 +0000";
layers = (
{
layerId = UUID0;
name = Regular;
paths = (
{
closed = 1;
nodes = (
"578 75 LINE",
"560 68 OFFCURVE",
"545 64 OFFCURVE",
"526 64 CURVE SMOOTH",
"495 64 OFFCURVE",
"476 78 OFFCURVE",
"476 124 CURVE SMOOTH",
"476 748 LINE",
"398 732 LINE",
"367 743 OFFCURVE",
"337 750 OFFCURVE",
"299 750 CURVE SMOOTH",
"186 750 OFFCURVE",
"102 687 OFFCURVE",
"102 589 CURVE SMOOTH",
"102 527 LINE",
"13 527 LINE",
"13 456 LINE",
"102 456 LINE",
"102 0 LINE",
"194 0 LINE",
"194 456 LINE",
"305 456 LINE",
"316 527 LINE",
"194 527 LINE",
"194 590 LINE SMOOTH",
"194 648 OFFCURVE",
"230 676 OFFCURVE",
"304 676 CURVE SMOOTH",
"331 676 OFFCURVE",
"358 673 OFFCURVE",
"384 666 CURVE",
"384 120 LINE SMOOTH",
"384 28 OFFCURVE",
"438 -12 OFFCURVE",
"511 -12 CURVE SMOOTH",
"552 -12 OFFCURVE",
"577 -3 OFFCURVE",
"602 9 CURVE"
);
}
);
width = 600;
},
{
layerId = "BF448B58-7A35-489E-A1C9-12628F60690C";
name = Bold;
paths = (
{
closed = 1;
nodes = (
"576 117 LINE",
"565 113 OFFCURVE",
"552 109 OFFCURVE",
"540 109 CURVE SMOOTH",
"518 109 OFFCURVE",
"504 120 OFFCURVE",
"504 157 CURVE SMOOTH",
"504 758 LINE",
"395 742 LINE",
"363 752 OFFCURVE",
"327 759 OFFCURVE",
"289 759 CURVE SMOOTH",
"151 759 OFFCURVE",
"76 679 OFFCURVE",
"76 574 CURVE SMOOTH",
"76 531 LINE",
"6 531 LINE",
"6 420 LINE",
"76 420 LINE",
"76 0 LINE",
"230 0 LINE",
"230 420 LINE",
"295 420 LINE",
"312 531 LINE",
"230 531 LINE",
"230 568 LINE SMOOTH",
"230 620 OFFCURVE",
"251 644 OFFCURVE",
"305 644 CURVE SMOOTH",
"321 644 OFFCURVE",
"336 642 OFFCURVE",
"350 638 CURVE",
"350 143 LINE SMOOTH",
"350 37 OFFCURVE",
"406 -17 OFFCURVE",
"504 -17 CURVE SMOOTH",
"546 -17 OFFCURVE",
"580 -8 OFFCURVE",
"607 3 CURVE"
);
}
);
width = 600;
}
);
unicode = FB02;
userData = {
public.markColor = "0.67,0.95,0.38,1";
};
},
{
color = 4;
glyphname = ordfeminine;
lastChange = "2014-12-21 17:35:44 +0000";
layers = (
{
layerId = UUID0;
name = Regular;
paths = (
{
closed = 1;
nodes = (
"245 750 OFFCURVE",
"192 742 OFFCURVE",
"133 720 CURVE",
"157 658 LINE",
"205 675 OFFCURVE",
"250 682 OFFCURVE",
"278 682 CURVE SMOOTH",
"340 682 OFFCURVE",
"375 661 OFFCURVE",
"375 606 CURVE SMOOTH",
"375 578 LINE",
"317 578 LINE SMOOTH",
"181 578 OFFCURVE",
"100 529 OFFCURVE",
"100 440 CURVE SMOOTH",
"100 360 OFFCURVE",
"161 307 OFFCURVE",
"252 307 CURVE SMOOTH",
"303 307 OFFCURVE",
"353 328 OFFCURVE",
"386 366 CURVE",
"401 329 OFFCURVE",
"429 312 OFFCURVE",
"472 307 CURVE",
"492 365 LINE",
"470 372 OFFCURVE",
"459 385 OFFCURVE",
"459 415 CURVE SMOOTH",
"459 609 LINE SMOOTH",
"459 697 OFFCURVE",
"405 750 OFFCURVE",
"290 750 CURVE SMOOTH"
);
},
{
closed = 1;
nodes = (
"105 79 LINE",
"105 0 LINE",
"500 0 LINE",
"500 79 LINE"
);
},
{
closed = 1;
nodes = (
"375 425 LINE",
"350 391 OFFCURVE",
"312 370 OFFCURVE",
"273 370 CURVE SMOOTH",
"221 370 OFFCURVE",
"191 395 OFFCURVE",
"191 444 CURVE SMOOTH",
"191 492 OFFCURVE",
"229 519 OFFCURVE",
"320 519 CURVE SMOOTH",
"375 519 LINE"
);
}
);
width = 600;
},
{
layerId = "BF448B58-7A35-489E-A1C9-12628F60690C";
name = Bold;
paths = (
{
closed = 1;
nodes = (
"245 759 OFFCURVE",
"182 749 OFFCURVE",
"121 728 CURVE",
"154 637 LINE",
"201 653 OFFCURVE",
"246 660 OFFCURVE",
"271 660 CURVE SMOOTH",
"330 660 OFFCURVE",
"353 649 OFFCURVE",
"353 602 CURVE SMOOTH",
"353 590 LINE",
"300 590 LINE SMOOTH",
"161 590 OFFCURVE",
"83 534 OFFCURVE",
"83 443 CURVE SMOOTH",
"83 361 OFFCURVE",
"144 304 OFFCURVE",
"236 304 CURVE SMOOTH",
"289 304 OFFCURVE",
"337 325 OFFCURVE",
"370 364 CURVE",
"390 328 OFFCURVE",
"424 312 OFFCURVE",
"482 306 CURVE",
"513 395 LINE",
"492 402 OFFCURVE",
"483 414 OFFCURVE",
"483 443 CURVE SMOOTH",
"483 606 LINE SMOOTH",
"483 705 OFFCURVE",
"430 759 OFFCURVE",
"291 759 CURVE SMOOTH"
);
},
{
closed = 1;
nodes = (
"100 109 LINE",
"100 0 LINE",
"514 0 LINE",
"514 109 LINE"
);
},
{
closed = 1;
nodes = (
"353 445 LINE",
"334 416 OFFCURVE",
"305 398 OFFCURVE",
"276 398 CURVE SMOOTH",
"244 398 OFFCURVE",
"227 415 OFFCURVE",
"227 448 CURVE SMOOTH",
"227 488 OFFCURVE",
"253 507 OFFCURVE",
"322 507 CURVE SMOOTH",
"353 507 LINE"
);
}
);
width = 600;
}
);
unicode = 00AA;
userData = {
public.markColor = "0.67,0.95,0.38,1";
};
},
{
color = 4;
glyphname = ordmasculine;
lastChange = "2014-12-21 17:35:44 +0000";
layers = (
{
layerId = UUID0;
name = Regular;
paths = (
{
closed = 1;
nodes = (
"175 750 OFFCURVE",
"94 659 OFFCURVE",
"94 529 CURVE SMOOTH",
"94 395 OFFCURVE",
"174 307 OFFCURVE",
"300 307 CURVE SMOOTH",
"425 307 OFFCURVE",
"505 398 OFFCURVE",
"505 529 CURVE SMOOTH",
"505 663 OFFCURVE",
"426 750 OFFCURVE",
"300 750 CURVE SMOOTH"
);
},
{
closed = 1;
nodes = (
"103 79 LINE",
"103 0 LINE",
"498 0 LINE",
"498 79 LINE"
);
},
{
closed = 1;
nodes = (
"371 682 OFFCURVE",
"415 634 OFFCURVE",
"415 529 CURVE SMOOTH",
"415 423 OFFCURVE",
"371 375 OFFCURVE",
"300 375 CURVE SMOOTH",
"229 375 OFFCURVE",
"184 423 OFFCURVE",
"184 529 CURVE SMOOTH",
"184 634 OFFCURVE",
"229 682 OFFCURVE",
"300 682 CURVE SMOOTH"
);
}
);
width = 600;
},
{
layerId = "BF448B58-7A35-489E-A1C9-12628F60690C";
name = Bold;
paths = (
{
closed = 1;
nodes = (
"162 759 OFFCURVE",
"78 661 OFFCURVE",
"78 532 CURVE SMOOTH",
"78 396 OFFCURVE",
"161 304 OFFCURVE",
"300 304 CURVE SMOOTH",
"438 304 OFFCURVE",
"522 397 OFFCURVE",
"522 532 CURVE SMOOTH",
"522 662 OFFCURVE",
"438 759 OFFCURVE",
"300 759 CURVE SMOOTH"
);
},
{
closed = 1;
nodes = (
"93 109 LINE",
"93 0 LINE",
"507 0 LINE",
"507 109 LINE"
);
},
{
closed = 1;
nodes = (
"351 660 OFFCURVE",
"382 624 OFFCURVE",
"382 532 CURVE SMOOTH",
"382 439 OFFCURVE",
"351 404 OFFCURVE",
"300 404 CURVE SMOOTH",
"249 404 OFFCURVE",
"218 439 OFFCURVE",
"218 532 CURVE SMOOTH",
"218 624 OFFCURVE",
"249 660 OFFCURVE",
"300 660 CURVE SMOOTH"
);
}
);
width = 600;
}
);
unicode = 00BA;
userData = {
public.markColor = "0.67,0.95,0.38,1";
};
},
{
color = 4;
glyphname = nsuperior;
lastChange = "2014-12-21 17:35:44 +0000";
layers = (
{
anchors = (
{
name = bottom;
position = "{301, 0}";
},
{
name = bottomAttach;
position = "{301, 0}";
},
{
name = top;
position = "{301, 518}";
}
);
layerId = UUID0;
name = Regular;
paths = (
{
closed = 1;
nodes = (
"302 723 OFFCURVE",
"264 709 OFFCURVE",
"237 686 CURVE",
"234 716 LINE",
"166 716 LINE",
"166 378 LINE",
"242 378 LINE",
"242 617 LINE",
"259 640 OFFCURVE",
"287 663 OFFCURVE",
"315 663 CURVE SMOOTH",
"353 663 OFFCURVE",
"359 640 OFFCURVE",
"359 583 CURVE",
"359 378 LINE",
"435 378 LINE",
"435 620 LINE",
"435 685 OFFCURVE",
"404 723 OFFCURVE",
"334 723 CURVE SMOOTH"
);
}
);
width = 600;
},
{
anchors = (
{
name = bottomAttach;
position = "{273, 0}";
}
);
layerId = "BF448B58-7A35-489E-A1C9-12628F60690C";
name = Bold;
paths = (
{
closed = 1;
nodes = (
"316 723 OFFCURVE",
"286 713 OFFCURVE",
"259 688 CURVE",
"254 713 LINE",
"151 713 LINE",
"151 378 LINE",
"267 378 LINE",
"267 604 LINE",
"283 625 OFFCURVE",
"297 637 OFFCURVE",
"313 637 CURVE SMOOTH",
"328 637 OFFCURVE",
"333 625 OFFCURVE",
"333 593 CURVE SMOOTH",
"333 378 LINE",
"449 378 LINE",
"449 620 LINE SMOOTH",
"449 686 OFFCURVE",
"413 723 OFFCURVE",
"351 723 CURVE SMOOTH"
);
}
);
width = 600;
}
);
unicode = 207F;
userData = {
public.markColor = "0.67,0.95,0.38,1";
};
},
{
color = 4;
glyphname = uni0411;
lastChange = "2014-12-21 17:35:44 +0000";
layers = (
{
layerId = UUID0;
name = Regular;
paths = (
{
closed = 1;
nodes = (
"96 689 LINE",
"96 0 LINE",
"278 0 LINE SMOOTH",
"434 0 OFFCURVE",
"545 59 OFFCURVE",
"545 216 CURVE SMOOTH",
"545 361 OFFCURVE",
"443 423 OFFCURVE",
"276 423 CURVE SMOOTH",
"191 423 LINE",
"191 611 LINE",
"477 611 LINE",
"486 689 LINE"
);
},
{
closed = 1;
nodes = (
"380 349 OFFCURVE",
"446 313 OFFCURVE",
"446 215 CURVE SMOOTH",
"446 103 OFFCURVE",
"379 76 OFFCURVE",
"286 76 CURVE SMOOTH",
"191 76 LINE",
"191 349 LINE",
"286 349 LINE SMOOTH"
);
}
);
width = 600;
},
{
layerId = "BF448B58-7A35-489E-A1C9-12628F60690C";
name = Bold;
paths = (
{
closed = 1;
nodes = (
"56 693 LINE",
"56 0 LINE",
"300 0 LINE SMOOTH",
"456 0 OFFCURVE",
"569 77 OFFCURVE",
"569 228 CURVE SMOOTH",
"569 374 OFFCURVE",
"466 444 OFFCURVE",
"291 444 CURVE SMOOTH",
"222 444 LINE",
"222 567 LINE",
"477 567 LINE",
"493 693 LINE"
);
},
{
closed = 1;
nodes = (
"360 325 OFFCURVE",
"399 293 OFFCURVE",
"399 227 CURVE SMOOTH",
"399 153 OFFCURVE",
"358 124 OFFCURVE",
"282 124 CURVE SMOOTH",
"222 124 LINE",
"222 325 LINE",
"280 325 LINE SMOOTH"
);
}
);
width = 600;
}
);
unicode = 0411;
userData = {
public.markColor = "0.67,0.95,0.38,1";
};
},
{
color = 4;
glyphname = uni0413;
lastChange = "2014-12-21 17:35:44 +0000";
layers = (
{
anchors = (
{
name = bottomright;
position = "{236, 0}";
},
{
name = top;
position = "{347, 689}";
}
);
layerId = UUID0;
name = Regular;
paths = (
{
closed = 1;
nodes = (
"131 689 LINE",
"131 0 LINE",
"226 0 LINE",
"226 607 LINE",
"536 607 LINE",
"546 689 LINE"
);
}
);
width = 600;
},
{
anchors = (
{
name = bottomright;
position = "{285, 0}";
},
{
name = top;
position = "{332, 693}";
}
);
layerId = "BF448B58-7A35-489E-A1C9-12628F60690C";
name = Bold;
paths = (
{
closed = 1;
nodes = (
"89 693 LINE",
"89 0 LINE",
"255 0 LINE",
"255 563 LINE",
"543 563 LINE",
"559 693 LINE"
);
}
);
width = 600;
}
);
unicode = 0413;
userData = {
public.markColor = "0.67,0.95,0.38,1";
};
},
{
color = 3;
glyphname = uni0490;
lastChange = "2014-12-21 17:35:44 +0000";
layers = (
{
components = (
{
name = uni0413;
transform = "{1, 0, 0, 1, 0, 0}";
}
);
layerId = UUID0;
name = Regular;
paths = (
{
closed = 1;
nodes = (
"454 836 LINE",
"454 679 LINE",
"546 689 LINE",
"546 836 LINE"
);
}
);
width = 600;
},
{
components = (
{
name = uni0413;
transform = "{1, 0, 0, 1, 0, 0}";
}
);
layerId = "BF448B58-7A35-489E-A1C9-12628F60690C";
name = Bold;
paths = (
{
closed = 1;
nodes = (
"406 848 LINE",
"406 683 LINE",
"559 693 LINE",
"559 848 LINE"
);
}
);
width = 600;
}
);
unicode = 0490;
userData = {
public.markColor = "0.97,1,0,1";
};
},
{
color = 3;
glyphname = uni0414;
lastChange = "2014-12-21 17:35:44 +0000";
layers = (
{
components = (
{
name = "descStraight-cy.case";
transform = "{1, 0, 0, 1, 207, 0}";
},
{
name = "descStraight-cy.case";
transform = "{-1, 0, 0, 1, 358, 0}";
}
);
layerId = UUID0;
name = Regular;
paths = (
{
closed = 1;
nodes = (
"165 689 LINE",
"140 489 LINE SMOOTH",
"103 201 OFFCURVE",
"95 131 OFFCURVE",
"41 78 CURVE",
"89 0 LINE",
"476 0 LINE",
"515 78 LINE",
"515 689 LINE"
);
},
{
closed = 1;
nodes = (
"420 78 LINE",
"130 78 LINE",
"191 133 OFFCURVE",
"203 213 OFFCURVE",
"234 485 CURVE SMOOTH",
"248 611 LINE",
"420 611 LINE"
);
}
);
width = 600;
},
{
components = (
{
name = "descStraight-cy.case";
transform = "{1, 0, 0, 1, 185, 0}";
},
{
name = "descStraight-cy.case";
transform = "{-1, 0, 0, 1, 382, 0}";
}
);
layerId = "BF448B58-7A35-489E-A1C9-12628F60690C";
name = Bold;
paths = (
{
closed = 1;
nodes = (
"138 693 LINE",
"118 475 LINE SMOOTH",
"96 240 OFFCURVE",
"73 170 OFFCURVE",
"29 123 CURVE",
"116 0 LINE",
"451 -1 LINE",
"525 123 LINE",
"525 693 LINE"
);
},
{
closed = 1;
nodes = (
"373 123 LINE",
"159 123 LINE",
"224 177 OFFCURVE",
"251 260 OFFCURVE",
"270 489 CURVE SMOOTH",
"277 576 LINE",
"373 576 LINE"
);
}
);
width = 600;
}
);
unicode = 0414;
userData = {
public.markColor = "0.97,1,0,1";
};
},
{
color = 4;
glyphname = uni0416;
lastChange = "2014-12-21 17:35:44 +0000";
layers = (
{
anchors = (
{
name = bottomright;
position = "{565, 0}";
},
{
name = top;
position = "{300, 689}";
}
);
layerId = UUID0;
name = Regular;
paths = (
{
closed = 1;
nodes = (
"260 0 LINE",
"340 0 LINE",
"340 326 LINE",
"397 326 LINE",
"497 0 LINE",
"589 0 LINE",
"468 366 LINE",
"575 689 LINE",
"487 689 LINE",
"397 398 LINE",
"340 398 LINE",
"340 689 LINE",
"260 689 LINE",
"260 398 LINE",
"203 398 LINE",
"114 689 LINE",
"25 689 LINE",
"132 366 LINE",
"11 0 LINE",
"101 0 LINE",
"202 326 LINE",
"260 326 LINE"
);
}
);
width = 600;
},
{
anchors = (
{
name = bottomright;
position = "{583, 0}";
},
{
name = top;
position = "{300, 693}";
}
);
layerId = "BF448B58-7A35-489E-A1C9-12628F60690C";
name = Bold;
paths = (
{
closed = 1;
nodes = (
"250 0 LINE",
"350 0 LINE",
"350 320 LINE",
"377 320 LINE",
"455 0 LINE",
"598 0 LINE",
"491 379 LINE",
"588 693 LINE",
"452 693 LINE",
"376 402 LINE",
"350 402 LINE",
"350 693 LINE",
"250 693 LINE",
"250 402 LINE",
"224 402 LINE",
"148 693 LINE",
"12 693 LINE",
"109 379 LINE",
"2 0 LINE",
"143 0 LINE",
"221 320 LINE",
"250 320 LINE"
);
}
);
width = 600;
}
);
unicode = 0416;
userData = {
public.markColor = "0.67,0.95,0.38,1";
};
},
{
color = 4;
glyphname = uni0417;
lastChange = "2014-12-21 17:35:44 +0000";
layers = (
{
anchors = (
{
name = bottom;
position = "{293, 0}";
},
{
name = top;
position = "{297, 689}";
}
);
layerId = UUID0;
name = Regular;
paths = (
{
closed = 1;
nodes = (
"189 701 OFFCURVE",
"110 672 OFFCURVE",
"46 615 CURVE",
"99 558 LINE",
"146 600 OFFCURVE",
"203 625 OFFCURVE",
"278 625 CURVE SMOOTH",
"361 625 OFFCURVE",
"423 589 OFFCURVE",
"423 518 CURVE SMOOTH",
"423 441 OFFCURVE",
"354 408 OFFCURVE",
"278 408 CURVE SMOOTH",
"174 408 LINE",
"163 330 LINE",
"284 330 LINE SMOOTH",
"375 330 OFFCURVE",
"442 292 OFFCURVE",
"442 202 CURVE SMOOTH",
"442 118 OFFCURVE",
"382 66 OFFCURVE",
"277 66 CURVE SMOOTH",
"204 66 OFFCURVE",
"136 92 OFFCURVE",
"92 138 CURVE",
"32 86 LINE",
"89 22 OFFCURVE",
"178 -12 OFFCURVE",
"279 -12 CURVE SMOOTH",
"442 -12 OFFCURVE",
"543 80 OFFCURVE",
"543 204 CURVE SMOOTH",
"543 310 OFFCURVE",
"464 366 OFFCURVE",
"376 374 CURVE",
"456 386 OFFCURVE",
"520 436 OFFCURVE",
"520 521 CURVE SMOOTH",
"520 627 OFFCURVE",
"428 701 OFFCURVE",
"281 701 CURVE SMOOTH"
);
}
);
width = 600;
},
{
anchors = (
{
name = bottom;
position = "{287, 0}";
},
{
name = top;
position = "{289, 693}";
}
);
layerId = "BF448B58-7A35-489E-A1C9-12628F60690C";
name = Bold;
paths = (
{
closed = 1;
nodes = (
"179 711 OFFCURVE",
"91 680 OFFCURVE",
"24 621 CURVE",
"104 537 LINE",
"148 572 OFFCURVE",
"204 591 OFFCURVE",
"266 591 CURVE SMOOTH",
"338 591 OFFCURVE",
"379 560 OFFCURVE",
"379 510 CURVE SMOOTH",
"379 454 OFFCURVE",
"334 426 OFFCURVE",
"265 426 CURVE SMOOTH",
"169 426 LINE",
"150 308 LINE",
"265 308 LINE SMOOTH",
"348 308 OFFCURVE",
"397 275 OFFCURVE",
"397 205 CURVE SMOOTH",
"397 142 OFFCURVE",
"347 104 OFFCURVE",
"267 104 CURVE SMOOTH",
"199 104 OFFCURVE",
"140 126 OFFCURVE",
"96 167 CURVE",
"6 82 LINE",
"65 19 OFFCURVE",
"156 -17 OFFCURVE",
"270 -17 CURVE SMOOTH",
"457 -17 OFFCURVE",
"563 69 OFFCURVE",
"563 198 CURVE SMOOTH",
"563 300 OFFCURVE",
"493 358 OFFCURVE",
"384 369 CURVE",
"485 389 OFFCURVE",
"542 441 OFFCURVE",
"542 526 CURVE SMOOTH",
"542 635 OFFCURVE",
"440 711 OFFCURVE",
"287 711 CURVE SMOOTH"
);
}
);
width = 600;
}
);
unicode = 0417;
userData = {
public.markColor = "0.67,0.95,0.38,1";
};
},
{
color = 4;
glyphname = uni0418;
lastChange = "2014-12-21 17:35:44 +0000";
layers = (
{
anchors = (
{
name = top;
position = "{300, 689}";
}
);
layerId = UUID0;
name = Regular;
paths = (
{
closed = 1;
nodes = (
"201 0 LINE",
"436 585 LINE",
"440 585 LINE",
"435 535 OFFCURVE",
"427 444 OFFCURVE",
"427 336 CURVE SMOOTH",
"427 0 LINE",
"520 0 LINE",
"520 689 LINE",
"401 689 LINE",
"164 101 LINE",
"160 101 LINE",
"166 160 OFFCURVE",
"173 229 OFFCURVE",
"173 353 CURVE SMOOTH",
"173 689 LINE",
"80 689 LINE",
"80 0 LINE"
);
}
);
width = 600;
},
{
anchors = (
{
name = top;
position = "{300, 693}";
}
);
layerId = "BF448B58-7A35-489E-A1C9-12628F60690C";
name = Bold;
paths = (
{
closed = 1;
nodes = (
"237 0 LINE",
"417 528 LINE",
"421 528 LINE",
"409 461 OFFCURVE",
"397 362 OFFCURVE",
"397 227 CURVE SMOOTH",
"397 0 LINE",
"549 0 LINE",
"549 693 LINE",
"366 693 LINE",
"183 164 LINE",
"179 164 LINE",
"190 229 OFFCURVE",
"203 317 OFFCURVE",
"203 461 CURVE SMOOTH",
"203 693 LINE",
"51 693 LINE",
"51 0 LINE"
);
}
);
width = 600;
}
);
unicode = 0418;
userData = {
public.markColor = "0.67,0.95,0.38,1";
};
},
{
color = 4;
glyphname = uni041A;
lastChange = "2014-12-21 17:35:44 +0000";
layers = (
{
anchors = (
{
name = bottomright;
position = "{539, 0}";
},
{
name = top;
position = "{320, 689}";
}
);
layerId = UUID0;
name = Regular;
paths = (
{
closed = 1;
nodes = (
"476 0 LINE",
"589 0 LINE",
"344 366 LINE",
"570 689 LINE",
"469 689 LINE",
"264 401 LINE",
"185 401 LINE",
"185 689 LINE",
"90 689 LINE",
"90 0 LINE",
"185 0 LINE",
"185 323 LINE",
"263 323 LINE"
);
}
);
width = 600;
},
{
anchors = (
{
name = bottomright;
position = "{571, 0}";
},
{
name = top;
position = "{324, 693}";
}
);
layerId = "BF448B58-7A35-489E-A1C9-12628F60690C";
name = Bold;
paths = (
{
closed = 1;
nodes = (
"428 0 LINE",
"609 0 LINE",
"415 379 LINE",
"590 693 LINE",
"429 693 LINE",
"277 421 LINE",
"217 421 LINE",
"217 693 LINE",
"51 693 LINE",
"51 0 LINE",
"217 0 LINE",
"217 301 LINE",
"279 301 LINE"
);
}
);
width = 600;
}
);
unicode = 041A;
userData = {
public.markColor = "0.67,0.95,0.38,1";
};
},
{
color = 4;
glyphname = uni041B;
lastChange = "2014-12-21 17:35:44 +0000";
layers = (
{
layerId = UUID0;
name = Regular;
paths = (
{
closed = 1;
nodes = (
"165 689 LINE",
"128 395 LINE SMOOTH",
"94 126 OFFCURVE",
"59 96 OFFCURVE",
"12 57 CURVE",
"53 -12 LINE",
"148 50 OFFCURVE",
"187 95 OFFCURVE",
"225 415 CURVE SMOOTH",
"248 609 LINE",
"425 609 LINE",
"425 0 LINE",
"520 0 LINE",
"520 689 LINE"
);
}
);
width = 600;
},
{
layerId = "BF448B58-7A35-489E-A1C9-12628F60690C";
name = Bold;
paths = (
{
closed = 1;
nodes = (
"131 693 LINE",
"111 475 LINE SMOOTH",
"84 181 OFFCURVE",
"54 138 OFFCURVE",
"-13 89 CURVE",
"52 -20 LINE",
"192 46 OFFCURVE",
"235 125 OFFCURVE",
"266 458 CURVE SMOOTH",
"276 567 LINE",
"383 567 LINE",
"383 0 LINE",
"549 0 LINE",
"549 693 LINE"
);
}
);
width = 600;
}
);
unicode = 041B;
userData = {
public.markColor = "0.67,0.95,0.38,1";
};
},
{
color = 4;
glyphname = uni041F;
lastChange = "2014-12-21 17:35:44 +0000";
layers = (
{
anchors = (
{
name = bottomright;
position = "{530, 0}";
}
);
layerId = UUID0;
name = Regular;
paths = (
{
closed = 1;
nodes = (
"520 0 LINE",
"520 689 LINE",
"80 689 LINE",
"80 0 LINE",
"175 0 LINE",
"175 608 LINE",
"425 608 LINE",
"425 0 LINE"
);
}
);
width = 600;
},
{
anchors = (
{
name = bottomright;
position = "{559, 0}";
}
);
layerId = "BF448B58-7A35-489E-A1C9-12628F60690C";
name = Bold;
paths = (
{
closed = 1;
nodes = (
"549 0 LINE",
"549 693 LINE",
"51 693 LINE",
"51 0 LINE",
"217 0 LINE",
"217 566 LINE",
"383 566 LINE",
"383 0 LINE"
);
}
);
width = 600;
}
);
unicode = 041F;
userData = {
public.markColor = "0.67,0.95,0.38,1";
};
},
{
color = 4;
glyphname = uni0423;
lastChange = "2014-12-21 17:35:44 +0000";
layers = (
{
anchors = (
{
name = top;
position = "{310, 689}";
}
);
layerId = UUID0;
name = Regular;
paths = (
{
closed = 1;
nodes = (
"487 689 LINE",
"313 249 LINE",
"122 689 LINE",
"23 689 LINE",
"249 189 LINE",
"288 189 LINE",
"260 115 OFFCURVE",
"227 79 OFFCURVE",
"106 62 CURVE",
"120 -12 LINE",
"270 6 OFFCURVE",
"326 65 OFFCURVE",
"376 186 CURVE SMOOTH",
"583 689 LINE"
);
}
);
width = 600;
},
{
anchors = (
{
name = top;
position = "{310, 693}";
}
);
layerId = "BF448B58-7A35-489E-A1C9-12628F60690C";
name = Bold;
paths = (
{
closed = 1;
nodes = (
"440 693 LINE",
"311 278 LINE",
"166 693 LINE",
"-6 693 LINE",
"209 183 LINE",
"262 183 LINE",
"231 129 OFFCURVE",
"190 106 OFFCURVE",
"84 96 CURVE",
"106 -17 LINE",
"296 -2 OFFCURVE",
"364 58 OFFCURVE",
"433 237 CURVE SMOOTH",
"608 693 LINE"
);
}
);
width = 600;
}
);
unicode = 0423;
userData = {
public.markColor = "0.67,0.95,0.38,1";
};
},
{
color = 4;
glyphname = uni0424;
lastChange = "2014-12-21 17:35:44 +0000";
layers = (
{
layerId = UUID0;
name = Regular;
paths = (
{
closed = 1;
nodes = (
"256 719 LINE",
"256 659 LINE",
"90 647 OFFCURVE",
"12 544 OFFCURVE",
"12 347 CURVE SMOOTH",
"12 143 OFFCURVE",
"98 39 OFFCURVE",
"256 32 CURVE",
"256 -30 LINE",
"344 -30 LINE",
"344 32 LINE",
"501 40 OFFCURVE",
"588 144 OFFCURVE",
"588 347 CURVE SMOOTH",
"588 544 OFFCURVE",
"510 647 OFFCURVE",
"344 659 CURVE",
"344 719 LINE"
);
},
{
closed = 1;
nodes = (
"258 99 LINE",
"151 108 OFFCURVE",
"107 180 OFFCURVE",
"107 347 CURVE SMOOTH",
"107 523 OFFCURVE",
"155 588 OFFCURVE",
"258 592 CURVE"
);
},
{
closed = 1;
nodes = (
"445 588 OFFCURVE",
"493 523 OFFCURVE",
"493 347 CURVE SMOOTH",
"493 180 OFFCURVE",
"449 108 OFFCURVE",
"342 99 CURVE",
"342 592 LINE"
);
}
);
width = 600;
},
{
layerId = "BF448B58-7A35-489E-A1C9-12628F60690C";
name = Bold;
paths = (
{
closed = 1;
nodes = (
"243 730 LINE",
"243 656 LINE",
"80 645 OFFCURVE",
"4 545 OFFCURVE",
"4 350 CURVE SMOOTH",
"4 156 OFFCURVE",
"81 48 OFFCURVE",
"243 38 CURVE",
"243 -39 LINE",
"357 -39 LINE",
"357 38 LINE",
"518 48 OFFCURVE",
"596 157 OFFCURVE",
"596 350 CURVE SMOOTH",
"596 545 OFFCURVE",
"519 645 OFFCURVE",
"357 656 CURVE",
"357 730 LINE"
);
},
{
closed = 1;
nodes = (
"253 129 LINE",
"179 137 OFFCURVE",
"159 202 OFFCURVE",
"159 350 CURVE SMOOTH",
"159 500 OFFCURVE",
"183 559 OFFCURVE",
"253 567 CURVE"
);
},
{
closed = 1;
nodes = (
"418 559 OFFCURVE",
"441 500 OFFCURVE",
"441 350 CURVE SMOOTH",
"441 202 OFFCURVE",
"421 137 OFFCURVE",
"347 129 CURVE",
"347 567 LINE"
);
}
);
width = 600;
}
);
unicode = 0424;
userData = {
public.markColor = "0.67,0.95,0.38,1";
};
},
{
color = 4;
glyphname = uni0427;
lastChange = "2014-12-21 17:35:44 +0000";
layers = (
{
anchors = (
{
name = top;
position = "{289, 689}";
}
);
layerId = UUID0;
name = Regular;
paths = (
{
closed = 1;
nodes = (
"48 689 LINE",
"48 424 LINE SMOOTH",
"48 297 OFFCURVE",
"128 217 OFFCURVE",
"250 217 CURVE SMOOTH",
"329 217 OFFCURVE",
"378 240 OFFCURVE",
"444 292 CURVE",
"434 365 LINE",
"401 329 OFFCURVE",
"351 298 OFFCURVE",
"274 298 CURVE SMOOTH",
"190 298 OFFCURVE",
"143 339 OFFCURVE",
"143 431 CURVE SMOOTH",
"143 689 LINE"
);
},
{
closed = 1;
nodes = (
"425 689 LINE",
"425 0 LINE",
"520 0 LINE",
"520 689 LINE"
);
}
);
width = 600;
},
{
anchors = (
{
name = bottomleft;
position = "{373, 0}";
},
{
name = bottomright;
position = "{559, 0}";
},
{
name = top;
position = "{286, 693}";
}
);
layerId = "BF448B58-7A35-489E-A1C9-12628F60690C";
name = Bold;
paths = (
{
closed = 1;
nodes = (
"24 693 LINE",
"24 434 LINE SMOOTH",
"24 278 OFFCURVE",
"104 197 OFFCURVE",
"240 197 CURVE SMOOTH",
"304 197 OFFCURVE",
"355 218 OFFCURVE",
"395 252 CURVE",
"392 364 LINE",
"370 341 OFFCURVE",
"340 320 OFFCURVE",
"286 320 CURVE SMOOTH",
"218 320 OFFCURVE",
"190 352 OFFCURVE",
"190 439 CURVE SMOOTH",
"190 693 LINE"
);
},
{
closed = 1;
nodes = (
"383 693 LINE",
"383 0 LINE",
"549 0 LINE",
"549 693 LINE"
);
}
);
width = 600;
}
);
unicode = 0427;
userData = {
public.markColor = "0.67,0.95,0.38,1";
};
},
{
color = 4;
glyphname = uni0428;
lastChange = "2014-12-21 17:35:44 +0000";
layers = (
{
anchors = (
{
name = bottomright;
position = "{565, 0}";
}
);
layerId = UUID0;
name = Regular;
paths = (
{
closed = 1;
nodes = (
"468 689 LINE",
"468 77 LINE",
"341 77 LINE",
"341 689 LINE",
"259 689 LINE",
"259 77 LINE",
"132 77 LINE",
"132 689 LINE",
"45 689 LINE",
"45 0 LINE",
"555 0 LINE",
"555 689 LINE"
);
}
);
width = 600;
},
{
anchors = (
{
name = bottomright;
position = "{575, 0}";
}
);
layerId = "BF448B58-7A35-489E-A1C9-12628F60690C";
name = Bold;
paths = (
{
closed = 1;
nodes = (
"434 693 LINE",
"434 113 LINE",
"358 113 LINE",
"358 693 LINE",
"242 693 LINE",
"242 113 LINE",
"166 113 LINE",
"166 693 LINE",
"35 693 LINE",
"35 0 LINE",
"565 0 LINE",
"565 693 LINE"
);
}
);
width = 600;
}
);
unicode = 0428;
userData = {
public.markColor = "0.67,0.95,0.38,1";
};
},
{
color = 4;
glyphname = uni042F;
lastChange = "2014-12-21 17:35:44 +0000";
layers = (
{
layerId = UUID0;
name = Regular;
paths = (
{
closed = 1;
nodes = (
"334 689 LINE SMOOTH",
"162 689 OFFCURVE",
"71 614 OFFCURVE",
"71 483 CURVE SMOOTH",
"71 398 OFFCURVE",
"111 331 OFFCURVE",
"191 295 CURVE",
"30 0 LINE",
"136 0 LINE",
"279 274 LINE",
"425 274 LINE",
"425 0 LINE",
"520 0 LINE",
"520 689 LINE"
);
},
{
closed = 1;
nodes = (
"425 349 LINE",
"309 349 LINE SMOOTH",
"220 349 OFFCURVE",
"172 391 OFFCURVE",
"172 483 CURVE SMOOTH",
"172 574 OFFCURVE",
"222 615 OFFCURVE",
"325 615 CURVE SMOOTH",
"425 615 LINE"
);
}
);
width = 600;
},
{
layerId = "BF448B58-7A35-489E-A1C9-12628F60690C";
name = Bold;
paths = (
{
closed = 1;
nodes = (
"321 693 LINE SMOOTH",
"133 693 OFFCURVE",
"36 620 OFFCURVE",
"36 473 CURVE SMOOTH",
"36 375 OFFCURVE",
"77 316 OFFCURVE",
"154 281 CURVE",
"1 0 LINE",
"180 0 LINE",
"300 250 LINE",
"383 250 LINE",
"383 0 LINE",
"549 0 LINE",
"549 693 LINE"
);
},
{
closed = 1;
nodes = (
"383 363 LINE",
"328 363 LINE SMOOTH",
"252 363 OFFCURVE",
"207 390 OFFCURVE",
"207 469 CURVE SMOOTH",
"207 540 OFFCURVE",
"247 577 OFFCURVE",
"324 577 CURVE SMOOTH",
"383 577 LINE"
);
}
);
width = 600;
}
);
unicode = 042F;
userData = {
public.markColor = "0.67,0.95,0.38,1";
};
},
{
color = 4;
glyphname = uni042C;
lastChange = "2014-12-21 17:35:44 +0000";
layers = (
{
layerId = UUID0;
name = Regular;
paths = (
{
closed = 1;
nodes = (
"90 689 LINE",
"90 0 LINE",
"287 0 LINE SMOOTH",
"443 0 OFFCURVE",
"554 63 OFFCURVE",
"554 223 CURVE SMOOTH",
"554 372 OFFCURVE",
"452 436 OFFCURVE",
"285 436 CURVE SMOOTH",
"185 436 LINE",
"185 689 LINE"
);
},
{
closed = 1;
nodes = (
"387 362 OFFCURVE",
"453 325 OFFCURVE",
"453 222 CURVE SMOOTH",
"453 105 OFFCURVE",
"386 76 OFFCURVE",
"295 76 CURVE SMOOTH",
"185 76 LINE",
"185 362 LINE",
"295 362 LINE SMOOTH"
);
}
);
width = 600;
},
{
layerId = "BF448B58-7A35-489E-A1C9-12628F60690C";
name = Bold;
paths = (
{
closed = 1;
nodes = (
"54 693 LINE",
"54 0 LINE",
"298 0 LINE SMOOTH",
"466 0 OFFCURVE",
"577 76 OFFCURVE",
"577 236 CURVE SMOOTH",
"577 389 OFFCURVE",
"468 460 OFFCURVE",
"287 460 CURVE SMOOTH",
"220 460 LINE",
"220 693 LINE"
);
},
{
closed = 1;
nodes = (
"366 342 OFFCURVE",
"406 309 OFFCURVE",
"406 235 CURVE SMOOTH",
"406 155 OFFCURVE",
"364 121 OFFCURVE",
"287 121 CURVE SMOOTH",
"220 121 LINE",
"220 342 LINE",
"281 342 LINE SMOOTH"
);
}
);
width = 600;
}
);
unicode = 042C;
userData = {
public.markColor = "0.67,0.95,0.38,1";
};
},
{
color = 4;
glyphname = uni042A;
lastChange = "2014-12-21 17:35:44 +0000";
layers = (
{
layerId = UUID0;
name = Regular;
paths = (
{
closed = 1;
nodes = (
"0 689 LINE",
"0 608 LINE",
"118 608 LINE",
"118 0 LINE",
"315 0 LINE SMOOTH",
"471 0 OFFCURVE",
"582 62 OFFCURVE",
"582 223 CURVE SMOOTH",
"582 372 OFFCURVE",
"480 436 OFFCURVE",
"313 436 CURVE SMOOTH",
"213 436 LINE",
"213 689 LINE"
);
},
{
closed = 1;
nodes = (
"417 362 OFFCURVE",
"483 325 OFFCURVE",
"483 222 CURVE SMOOTH",
"483 104 OFFCURVE",
"416 76 OFFCURVE",
"325 76 CURVE SMOOTH",
"213 76 LINE",
"213 362 LINE",
"325 362 LINE SMOOTH"
);
}
);
width = 600;
},
{
layerId = "BF448B58-7A35-489E-A1C9-12628F60690C";
name = Bold;
paths = (
{
closed = 1;
nodes = (
"-3 693 LINE",
"-3 572 LINE",
"90 572 LINE",
"90 0 LINE",
"309 0 LINE SMOOTH",
"472 0 OFFCURVE",
"587 73 OFFCURVE",
"587 236 CURVE SMOOTH",
"587 389 OFFCURVE",
"478 460 OFFCURVE",
"297 460 CURVE SMOOTH",
"246 460 LINE",
"246 693 LINE"
);
},
{
closed = 1;
nodes = (
"379 345 OFFCURVE",
"418 309 OFFCURVE",
"418 235 CURVE SMOOTH",
"418 145 OFFCURVE",
"366 118 OFFCURVE",
"278 118 CURVE SMOOTH",
"246 118 LINE",
"246 345 LINE",
"291 345 LINE SMOOTH"
);
}
);
width = 600;
}
);
unicode = 042A;
userData = {
public.markColor = "0.67,0.95,0.38,1";
};
},
{
color = 4;
glyphname = uni042B;
lastChange = "2014-12-21 17:35:44 +0000";
layers = (
{
anchors = (
{
name = top;
position = "{300, 689}";
}
);
layerId = UUID0;
name = Regular;
paths = (
{
closed = 1;
nodes = (
"30 689 LINE",
"30 0 LINE",
"182 0 LINE SMOOTH",
"338 0 OFFCURVE",
"429 72 OFFCURVE",
"429 223 CURVE SMOOTH",
"429 361 OFFCURVE",
"347 436 OFFCURVE",
"180 436 CURVE SMOOTH",
"123 436 LINE",
"123 689 LINE"
);
},
{
closed = 1;
nodes = (
"284 365 OFFCURVE",
"332 317 OFFCURVE",
"332 222 CURVE SMOOTH",
"332 114 OFFCURVE",
"281 74 OFFCURVE",
"190 74 CURVE SMOOTH",
"123 74 LINE",
"123 365 LINE",
"190 365 LINE SMOOTH"
);
},
{
closed = 1;
nodes = (
"477 689 LINE",
"477 0 LINE",
"570 0 LINE",
"570 689 LINE"
);
}
);
width = 600;
},
{
anchors = (
{
name = top;
position = "{300, 693}";
}
);
layerId = "BF448B58-7A35-489E-A1C9-12628F60690C";
name = Bold;
paths = (
{
closed = 1;
nodes = (
"21 693 LINE",
"21 0 LINE",
"166 0 LINE SMOOTH",
"318 0 OFFCURVE",
"418 72 OFFCURVE",
"418 237 CURVE SMOOTH",
"418 389 OFFCURVE",
"324 463 OFFCURVE",
"164 463 CURVE",
"156 463 LINE",
"156 693 LINE"
);
},
{
closed = 1;
nodes = (
"244 351 OFFCURVE",
"277 314 OFFCURVE",
"277 236 CURVE SMOOTH",
"277 142 OFFCURVE",
"237 114 OFFCURVE",
"168 114 CURVE SMOOTH",
"156 114 LINE",
"156 351 LINE",
"178 351 LINE SMOOTH"
);
},
{
closed = 1;
nodes = (
"444 693 LINE",
"444 0 LINE",
"579 0 LINE",
"579 693 LINE"
);
}
);
width = 600;
}
);
unicode = 042B;
userData = {
public.markColor = "0.67,0.95,0.38,1";
};
},
{
color = 4;
glyphname = uni0409;
lastChange = "2014-12-21 17:35:44 +0000";
layers = (
{
layerId = UUID0;
name = Regular;
paths = (
{
closed = 1;
nodes = (
"95 689 LINE",
"66 314 LINE SMOOTH",
"51 119 OFFCURVE",
"30 82 OFFCURVE",
"0 49 CURVE",
"46 -12 LINE",
"107 34 OFFCURVE",
"136 66 OFFCURVE",
"154 310 CURVE SMOOTH",
"176 614 LINE",
"266 614 LINE",
"266 0 LINE",
"363 0 LINE SMOOTH",
"509 0 OFFCURVE",
"600 64 OFFCURVE",
"600 223 CURVE SMOOTH",
"600 370 OFFCURVE",
"518 436 OFFCURVE",
"356 436 CURVE",
"356 689 LINE"
);
},
{
closed = 1;
nodes = (
"459 365 OFFCURVE",
"505 326 OFFCURVE",
"505 222 CURVE SMOOTH",
"505 105 OFFCURVE",
"457 74 OFFCURVE",
"371 74 CURVE SMOOTH",
"356 74 LINE",
"356 365 LINE",
"371 365 LINE SMOOTH"
);
}
);
width = 600;
},
{
layerId = "BF448B58-7A35-489E-A1C9-12628F60690C";
name = Bold;
paths = (
{
closed = 1;
nodes = (
"60 693 LINE",
"40 322 LINE SMOOTH",
"30 135 OFFCURVE",
"13 99 OFFCURVE",
"-15 75 CURVE",
"44 -20 LINE",
"122 32 OFFCURVE",
"158 70 OFFCURVE",
"169 304 CURVE SMOOTH",
"182 588 LINE",
"238 588 LINE",
"238 0 LINE",
"365 0 LINE SMOOTH",
"508 0 OFFCURVE",
"600 74 OFFCURVE",
"600 236 CURVE SMOOTH",
"600 388 OFFCURVE",
"514 460 OFFCURVE",
"364 460 CURVE",
"364 693 LINE"
);
},
{
closed = 1;
nodes = (
"439 356 OFFCURVE",
"464 312 OFFCURVE",
"464 235 CURVE SMOOTH",
"464 155 OFFCURVE",
"440 107 OFFCURVE",
"379 107 CURVE SMOOTH",
"364 107 LINE",
"364 356 LINE",
"374 356 LINE SMOOTH"
);
}
);
width = 600;
}
);
unicode = 0409;
userData = {
public.markColor = "0.67,0.95,0.38,1";
};
},
{
color = 4;
glyphname = uni040A;
lastChange = "2014-12-21 17:35:44 +0000";
layers = (
{
layerId = UUID0;
name = Regular;
paths = (
{
closed = 1;
nodes = (
"266 689 LINE",
"266 416 LINE",
"130 416 LINE",
"130 689 LINE",
"40 689 LINE",
"40 0 LINE",
"130 0 LINE",
"130 346 LINE",
"266 346 LINE",
"266 0 LINE",
"363 0 LINE SMOOTH",
"509 0 OFFCURVE",
"600 58 OFFCURVE",
"600 214 CURVE SMOOTH",
"600 354 OFFCURVE",
"518 416 OFFCURVE",
"356 416 CURVE",
"356 689 LINE"
);
},
{
closed = 1;
nodes = (
"459 346 OFFCURVE",
"505 313 OFFCURVE",
"505 213 CURVE SMOOTH",
"505 98 OFFCURVE",
"457 73 OFFCURVE",
"371 73 CURVE SMOOTH",
"356 73 LINE",
"356 346 LINE",
"371 346 LINE SMOOTH"
);
}
);
width = 600;
},
{
layerId = "BF448B58-7A35-489E-A1C9-12628F60690C";
name = Bold;
paths = (
{
closed = 1;
nodes = (
"240 693 LINE",
"240 435 LINE",
"158 435 LINE",
"158 693 LINE",
"28 693 LINE",
"28 0 LINE",
"158 0 LINE",
"158 321 LINE",
"240 321 LINE",
"240 0 LINE",
"360 0 LINE SMOOTH",
"520 0 OFFCURVE",
"600 76 OFFCURVE",
"600 227 CURVE SMOOTH",
"600 369 OFFCURVE",
"511 433 OFFCURVE",
"370 435 CURVE",
"370 693 LINE"
);
},
{
closed = 1;
nodes = (
"439 323 OFFCURVE",
"467 298 OFFCURVE",
"467 226 CURVE SMOOTH",
"467 149 OFFCURVE",
"443 116 OFFCURVE",
"375 114 CURVE",
"370 114 LINE",
"370 324 LINE",
"375 324 LINE"
);
}
);
width = 600;
}
);
unicode = 040A;
userData = {
public.markColor = "0.67,0.95,0.38,1";
};
},
{
color = 4;
glyphname = uni0404;
lastChange = "2014-12-21 17:35:44 +0000";
layers = (
{
layerId = UUID0;
name = Regular;
paths = (
{
closed = 1;
nodes = (
"191 701 OFFCURVE",
"55 577 OFFCURVE",
"55 345 CURVE SMOOTH",
"55 113 OFFCURVE",
"180 -12 OFFCURVE",
"354 -12 CURVE SMOOTH",
"454 -12 OFFCURVE",
"522 25 OFFCURVE",
"565 65 CURVE",
"516 125 LINE",
"482 95 OFFCURVE",
"434 66 OFFCURVE",
"358 66 CURVE SMOOTH",
"248 66 OFFCURVE",
"161 139 OFFCURVE",
"153 315 CURVE",
"454 315 LINE",
"454 393 LINE",
"155 393 LINE",
"168 563 OFFCURVE",
"256 625 OFFCURVE",
"359 625 CURVE SMOOTH",
"412 625 OFFCURVE",
"461 609 OFFCURVE",
"503 574 CURVE",
"555 633 LINE",
"501 676 OFFCURVE",
"443 701 OFFCURVE",
"353 701 CURVE SMOOTH"
);
}
);
width = 600;
},
{
layerId = "BF448B58-7A35-489E-A1C9-12628F60690C";
name = Bold;
paths = (
{
closed = 1;
nodes = (
"172 711 OFFCURVE",
"33 580 OFFCURVE",
"33 348 CURVE SMOOTH",
"33 110 OFFCURVE",
"163 -17 OFFCURVE",
"354 -17 CURVE SMOOTH",
"464 -17 OFFCURVE",
"539 24 OFFCURVE",
"590 73 CURVE",
"515 166 LINE",
"476 135 OFFCURVE",
"433 108 OFFCURVE",
"365 108 CURVE SMOOTH",
"276 108 OFFCURVE",
"210 166 OFFCURVE",
"202 291 CURVE",
"457 291 LINE",
"457 418 LINE",
"202 418 LINE",
"212 537 OFFCURVE",
"282 591 OFFCURVE",
"369 591 CURVE SMOOTH",
"422 591 OFFCURVE",
"462 572 OFFCURVE",
"500 541 CURVE",
"581 634 LINE",
"523 681 OFFCURVE",
"457 711 OFFCURVE",
"357 711 CURVE SMOOTH"
);
}
);
width = 600;
}
);
unicode = 0404;
userData = {
public.markColor = "0.67,0.95,0.38,1";
};
},
{
color = 4;
glyphname = uni042D;
lastChange = "2014-12-21 17:35:44 +0000";
layers = (
{
anchors = (
{
name = top;
position = "{288, 689}";
}
);
layerId = UUID0;
name = Regular;
paths = (
{
closed = 1;
nodes = (
"170 701 OFFCURVE",
"100 662 OFFCURVE",
"47 616 CURVE",
"98 561 LINE",
"139 594 OFFCURVE",
"187 625 OFFCURVE",
"263 625 CURVE SMOOTH",
"370 625 OFFCURVE",
"434 562 OFFCURVE",
"443 393 CURVE",
"145 393 LINE",
"145 315 LINE",
"443 315 LINE",
"435 143 OFFCURVE",
"371 66 OFFCURVE",
"254 66 CURVE SMOOTH",
"190 66 OFFCURVE",
"141 88 OFFCURVE",
"94 130 CURVE",
"39 76 LINE",
"91 23 OFFCURVE",
"168 -12 OFFCURVE",
"259 -12 CURVE SMOOTH",
"431 -12 OFFCURVE",
"541 112 OFFCURVE",
"541 353 CURVE SMOOTH",
"541 586 OFFCURVE",
"436 701 OFFCURVE",
"268 701 CURVE SMOOTH"
);
}
);
width = 600;
},
{
anchors = (
{
name = top;
position = "{278, 689}";
}
);
layerId = "BF448B58-7A35-489E-A1C9-12628F60690C";
name = Bold;
paths = (
{
closed = 1;
nodes = (
"158 711 OFFCURVE",
"85 677 OFFCURVE",
"21 624 CURVE",
"99 534 LINE",
"135 564 OFFCURVE",
"181 591 OFFCURVE",
"246 591 CURVE SMOOTH",
"334 591 OFFCURVE",
"386 543 OFFCURVE",
"392 413 CURVE",
"137 413 LINE",
"137 296 LINE",
"392 296 LINE",
"387 160 OFFCURVE",
"329 108 OFFCURVE",
"241 108 CURVE SMOOTH",
"178 108 OFFCURVE",
"135 128 OFFCURVE",
"92 163 CURVE",
"13 71 LINE",
"70 15 OFFCURVE",
"149 -17 OFFCURVE",
"242 -17 CURVE SMOOTH",
"432 -17 OFFCURVE",
"561 104 OFFCURVE",
"561 351 CURVE SMOOTH",
"561 587 OFFCURVE",
"449 711 OFFCURVE",
"260 711 CURVE SMOOTH"
);
}
);
width = 600;
}
);
unicode = 042D;
userData = {
public.markColor = "0.67,0.95,0.38,1";
};
},
{
color = 4;
glyphname = uni040B;
lastChange = "2014-12-21 17:35:44 +0000";
layers = (
{
layerId = UUID0;
name = Regular;
paths = (
{
closed = 1;
nodes = (
"-5 689 LINE",
"-5 612 LINE",
"154 612 LINE",
"154 0 LINE",
"248 0 LINE",
"248 321 LINE",
"273 344 OFFCURVE",
"309 372 OFFCURVE",
"368 372 CURVE SMOOTH",
"445 372 OFFCURVE",
"474 335 OFFCURVE",
"474 243 CURVE SMOOTH",
"474 0 LINE",
"568 0 LINE",
"568 247 LINE SMOOTH",
"568 381 OFFCURVE",
"510 452 OFFCURVE",
"390 452 CURVE SMOOTH",
"329 452 OFFCURVE",
"284 428 OFFCURVE",
"248 394 CURVE",
"248 612 LINE",
"406 612 LINE",
"416 689 LINE"
);
}
);
width = 600;
},
{
layerId = "BF448B58-7A35-489E-A1C9-12628F60690C";
name = Bold;
paths = (
{
closed = 1;
nodes = (
"-8 693 LINE",
"-8 575 LINE",
"130 575 LINE",
"130 0 LINE",
"285 0 LINE",
"285 320 LINE",
"304 338 OFFCURVE",
"327 352 OFFCURVE",
"360 352 CURVE SMOOTH",
"408 352 OFFCURVE",
"427 329 OFFCURVE",
"427 267 CURVE SMOOTH",
"427 0 LINE",
"582 0 LINE",
"582 252 LINE SMOOTH",
"582 398 OFFCURVE",
"520 471 OFFCURVE",
"403 471 CURVE SMOOTH",
"355 471 OFFCURVE",
"317 454 OFFCURVE",
"285 427 CURVE",
"285 575 LINE",
"424 575 LINE",
"441 693 LINE"
);
}
);
width = 600;
}
);
unicode = 040B;
userData = {
public.markColor = "0.67,0.95,0.38,1";
};
},
{
color = 4;
glyphname = uni042E;
lastChange = "2014-12-21 17:35:44 +0000";
layers = (
{
layerId = UUID0;
name = Regular;
paths = (
{
closed = 1;
nodes = (
"258 701 OFFCURVE",
"207 592 OFFCURVE",
"199 395 CURVE",
"133 395 LINE",
"133 689 LINE",
"45 689 LINE",
"45 0 LINE",
"133 0 LINE",
"133 319 LINE",
"198 319 LINE",
"201 119 OFFCURVE",
"246 -12 OFFCURVE",
"389 -12 CURVE SMOOTH",
"526 -12 OFFCURVE",
"580 114 OFFCURVE",
"580 344 CURVE SMOOTH",
"580 579 OFFCURVE",
"533 701 OFFCURVE",
"389 701 CURVE SMOOTH"
);
},
{
closed = 1;
nodes = (
"456 626 OFFCURVE",
"486 556 OFFCURVE",
"486 344 CURVE SMOOTH",
"486 132 OFFCURVE",
"456 63 OFFCURVE",
"389 63 CURVE SMOOTH",
"318 63 OFFCURVE",
"292 133 OFFCURVE",
"292 345 CURVE SMOOTH",
"292 557 OFFCURVE",
"318 626 OFFCURVE",
"389 626 CURVE SMOOTH"
);
}
);
width = 600;
},
{
layerId = "BF448B58-7A35-489E-A1C9-12628F60690C";
name = Bold;
paths = (
{
closed = 1;
nodes = (
"263 711 OFFCURVE",
"211 603 OFFCURVE",
"203 414 CURVE",
"157 414 LINE",
"157 693 LINE",
"31 693 LINE",
"31 0 LINE",
"157 0 LINE",
"157 302 LINE",
"202 302 LINE",
"207 94 OFFCURVE",
"255 -17 OFFCURVE",
"394 -17 CURVE SMOOTH",
"539 -17 OFFCURVE",
"588 107 OFFCURVE",
"588 347 CURVE SMOOTH",
"588 590 OFFCURVE",
"541 711 OFFCURVE",
"394 711 CURVE SMOOTH"
);
},
{
closed = 1;
nodes = (
"440 602 OFFCURVE",
"451 552 OFFCURVE",
"451 347 CURVE SMOOTH",
"451 144 OFFCURVE",
"439 92 OFFCURVE",
"394 92 CURVE SMOOTH",
"348 92 OFFCURVE",
"337 145 OFFCURVE",
"337 348 CURVE SMOOTH",
"337 552 OFFCURVE",
"350 602 OFFCURVE",
"394 602 CURVE SMOOTH"
);
}
);
width = 600;
}
);
unicode = 042E;
userData = {
public.markColor = "0.67,0.95,0.38,1";
};
},
{
color = 4;
glyphname = uni0402;
lastChange = "2014-12-21 17:35:44 +0000";
layers = (
{
layerId = UUID0;
name = Regular;
paths = (
{
closed = 1;
nodes = (
"406 612 LINE",
"416 689 LINE",
"-5 689 LINE",
"-5 612 LINE",
"154 612 LINE",
"154 0 LINE",
"248 0 LINE",
"248 321 LINE",
"273 344 OFFCURVE",
"309 372 OFFCURVE",
"368 372 CURVE SMOOTH",
"445 372 OFFCURVE",
"474 335 OFFCURVE",
"474 243 CURVE SMOOTH",
"474 96 LINE SMOOTH",
"474 7 OFFCURVE",
"454 -30 OFFCURVE",
"367 -65 CURVE",
"391 -139 LINE",
"501 -102 OFFCURVE",
"568 -46 OFFCURVE",
"568 96 CURVE SMOOTH",
"568 247 LINE SMOOTH",
"568 381 OFFCURVE",
"510 452 OFFCURVE",
"390 452 CURVE SMOOTH",
"331 452 OFFCURVE",
"284 426 OFFCURVE",
"248 394 CURVE",
"248 612 LINE"
);
}
);
width = 600;
},
{
layerId = "BF448B58-7A35-489E-A1C9-12628F60690C";
name = Bold;
paths = (
{
closed = 1;
nodes = (
"424 575 LINE",
"441 693 LINE",
"-8 693 LINE",
"-8 575 LINE",
"130 575 LINE",
"130 0 LINE",
"285 0 LINE",
"285 320 LINE",
"304 338 OFFCURVE",
"327 352 OFFCURVE",
"360 352 CURVE SMOOTH",
"408 352 OFFCURVE",
"427 329 OFFCURVE",
"427 267 CURVE SMOOTH",
"427 102 LINE SMOOTH",
"427 18 OFFCURVE",
"411 -24 OFFCURVE",
"329 -58 CURVE",
"372 -171 LINE",
"489 -132 OFFCURVE",
"582 -66 OFFCURVE",
"582 99 CURVE SMOOTH",
"582 252 LINE SMOOTH",
"582 398 OFFCURVE",
"520 471 OFFCURVE",
"403 471 CURVE SMOOTH",
"355 471 OFFCURVE",
"317 454 OFFCURVE",
"285 427 CURVE",
"285 575 LINE"
);
}
);
width = 600;
}
);
unicode = 0402;
userData = {
public.markColor = "0.67,0.95,0.38,1";
};
},
{
color = 4;
glyphname = uni0462;
lastChange = "2014-12-21 17:35:44 +0000";
layers = (
{
layerId = UUID0;
name = Regular;
paths = (
{
closed = 1;
nodes = (
"410 612 LINE",
"420 689 LINE",
"-1 689 LINE",
"-1 612 LINE",
"158 612 LINE",
"158 0 LINE",
"318 0 LINE SMOOTH",
"474 0 OFFCURVE",
"585 59 OFFCURVE",
"585 216 CURVE SMOOTH",
"585 361 OFFCURVE",
"483 423 OFFCURVE",
"316 423 CURVE SMOOTH",
"252 423 LINE",
"252 612 LINE"
);
},
{
closed = 1;
nodes = (
"326 351 LINE SMOOTH",
"423 351 OFFCURVE",
"487 313 OFFCURVE",
"487 215 CURVE SMOOTH",
"487 103 OFFCURVE",
"420 74 OFFCURVE",
"326 74 CURVE SMOOTH",
"252 74 LINE",
"252 351 LINE"
);
}
);
width = 600;
},
{
layerId = "BF448B58-7A35-489E-A1C9-12628F60690C";
name = Bold;
paths = (
{
closed = 1;
nodes = (
"424 575 LINE",
"441 693 LINE",
"-8 693 LINE",
"-8 575 LINE",
"130 575 LINE",
"130 0 LINE",
"314 0 LINE SMOOTH",
"480 0 OFFCURVE",
"588 72 OFFCURVE",
"588 228 CURVE SMOOTH",
"588 373 OFFCURVE",
"491 444 OFFCURVE",
"323 444 CURVE SMOOTH",
"285 444 LINE",
"285 575 LINE"
);
},
{
closed = 1;
nodes = (
"315 333 LINE SMOOTH",
"391 333 OFFCURVE",
"429 301 OFFCURVE",
"429 227 CURVE SMOOTH",
"429 147 OFFCURVE",
"389 117 OFFCURVE",
"318 117 CURVE SMOOTH",
"285 117 LINE",
"285 333 LINE"
);
}
);
width = 600;
}
);
unicode = 0462;
userData = {
public.markColor = "0.67,0.95,0.38,1";
};
},
{
color = 4;
glyphname = uni0474;
lastChange = "2014-12-21 17:35:44 +0000";
layers = (
{
layerId = UUID0;
name = Regular;
paths = (
{
closed = 1;
nodes = (
"470 664 OFFCURVE",
"458 637 OFFCURVE",
"436 561 CURVE SMOOTH",
"302 97 LINE",
"124 689 LINE",
"22 689 LINE",
"249 0 LINE",
"353 0 LINE",
"522 538 LINE SMOOTH",
"545 612 OFFCURVE",
"560 645 OFFCURVE",
"587 684 CURVE",
"493 701 LINE"
);
}
);
width = 600;
},
{
layerId = "BF448B58-7A35-489E-A1C9-12628F60690C";
name = Bold;
paths = (
{
closed = 1;
nodes = (
"430 669 OFFCURVE",
"417 640 OFFCURVE",
"400 564 CURVE SMOOTH",
"303 126 LINE",
"175 693 LINE",
"-1 693 LINE",
"197 0 LINE",
"404 0 LINE",
"553 530 LINE SMOOTH",
"574 607 OFFCURVE",
"589 639 OFFCURVE",
"611 674 CURVE",
"450 704 LINE"
);
}
);
width = 600;
}
);
unicode = 0474;
userData = {
public.markColor = "0.67,0.95,0.38,1";
};
},
{
color = 3;
glyphname = uni0492;
lastChange = "2014-12-21 17:35:44 +0000";
layers = (
{
components = (
{
name = uni0413;
transform = "{1, 0, 0, 1, 30, 0}";
}
);
layerId = UUID0;
name = Regular;
paths = (
{
closed = 1;
nodes = (
"161 433 LINE",
"63 433 LINE",
"63 363 LINE",
"256 363 LINE",
"412 363 LINE",
"412 433 LINE"
);
}
);
width = 600;
},
{
components = (
{
name = uni0413;
transform = "{1, 0, 0, 1, 25, 0}";
}
);
layerId = "BF448B58-7A35-489E-A1C9-12628F60690C";
name = Bold;
paths = (
{
closed = 1;
nodes = (
"114 433 LINE",
"37 433 LINE",
"37 334 LINE",
"280 334 LINE",
"422 334 LINE",
"422 433 LINE"
);
}
);
width = 600;
}
);
unicode = 0492;
userData = {
public.markColor = "0.97,1,0,1";
};
},
{
color = 4;
glyphname = uni049C;
lastChange = "2014-12-21 17:35:44 +0000";
layers = (
{
layerId = UUID0;
name = Regular;
paths = (
{
closed = 1;
nodes = (
"283 150 LINE",
"283 324 LINE",
"308 324 LINE",
"484 0 LINE",
"589 0 LINE",
"382 366 LINE",
"570 689 LINE",
"472 689 LINE",
"308 400 LINE",
"283 400 LINE",
"283 570 LINE",
"229 570 LINE",
"229 400 LINE",
"182 400 LINE",
"182 689 LINE",
"90 689 LINE",
"90 0 LINE",
"182 0 LINE",
"182 324 LINE",
"229 324 LINE",
"229 150 LINE"
);
}
);
width = 600;
},
{
layerId = "BF448B58-7A35-489E-A1C9-12628F60690C";
name = Bold;
paths = (
{
closed = 1;
nodes = (
"291 147 LINE",
"291 309 LINE",
"310 309 LINE",
"430 0 LINE",
"604 0 LINE",
"430 379 LINE",
"585 693 LINE",
"426 693 LINE",
"307 413 LINE",
"291 413 LINE",
"291 573 LINE",
"236 573 LINE",
"236 413 LINE",
"201 413 LINE",
"201 693 LINE",
"51 693 LINE",
"51 0 LINE",
"201 0 LINE",
"201 309 LINE",
"236 309 LINE",
"236 147 LINE"
);
}
);
width = 600;
}
);
unicode = 049C;
userData = {
public.markColor = "0.67,0.95,0.38,1";
};
},
{
color = 4;
glyphname = uni04A0;
lastChange = "2014-12-21 17:35:44 +0000";
layers = (
{
layerId = UUID0;
name = Regular;
paths = (
{
closed = 1;
nodes = (
"487 0 LINE",
"600 0 LINE",
"372 366 LINE",
"581 689 LINE",
"480 689 LINE",
"292 401 LINE",
"223 401 LINE",
"223 689 LINE",
"10 689 LINE",
"10 608 LINE",
"128 608 LINE",
"128 0 LINE",
"223 0 LINE",
"223 323 LINE",
"291 323 LINE"
);
}
);
width = 600;
},
{
layerId = "BF448B58-7A35-489E-A1C9-12628F60690C";
name = Bold;
paths = (
{
closed = 1;
nodes = (
"430 0 LINE",
"605 0 LINE",
"432 379 LINE",
"587 693 LINE",
"430 693 LINE",
"302 418 LINE",
"247 418 LINE",
"247 693 LINE",
"0 693 LINE",
"0 572 LINE",
"93 572 LINE",
"93 0 LINE",
"247 0 LINE",
"247 304 LINE",
"304 304 LINE"
);
}
);
width = 600;
}
);
unicode = 04A0;
userData = {
public.markColor = "0.67,0.95,0.38,1";
};
},
{
color = 3;
glyphname = uni04B0;
lastChange = "2014-12-21 17:35:44 +0000";
layers = (
{
components = (
{
name = Y;
transform = "{1, 0, 0, 1, 0, 0}";
}
);
layerId = UUID0;
name = Regular;
paths = (
{
closed = 1;
nodes = (
"223 316 LINE",
"125 316 LINE",
"125 246 LINE",
"348 246 LINE",
"475 246 LINE",
"475 316 LINE"
);
}
);
width = 600;
},
{
components = (
{
name = Y;
transform = "{1, 0, 0, 1, 0, 0}";
}
);
layerId = "BF448B58-7A35-489E-A1C9-12628F60690C";
name = Bold;
paths = (
{
closed = 1;
nodes = (
"199 293 LINE",
"101 293 LINE",
"101 200 LINE",
"383 200 LINE",
"499 200 LINE",
"499 293 LINE"
);
}
);
width = 600;
}
);
unicode = 04B0;
userData = {
public.markColor = "0.97,1,0,1";
};
},
{
color = 3;
glyphname = uni04B8;
lastChange = "2014-12-21 17:35:44 +0000";
layers = (
{
components = (
{
name = uni0427;
transform = "{1, 0, 0, 1, 0, 0}";
}
);
layerId = UUID0;
name = Regular;
paths = (
{
closed = 1;
nodes = (
"260 540 LINE",
"260 299 LINE",
"260 120 LINE",
"319 120 LINE",
"319 540 LINE"
);
}
);
width = 600;
},
{
components = (
{
name = uni0427;
transform = "{1, 0, 0, 1, 0, 0}";
}
);
layerId = "BF448B58-7A35-489E-A1C9-12628F60690C";
name = Bold;
paths = (
{
closed = 1;
nodes = (
"259 555 LINE",
"259 323 LINE",
"259 125 LINE",
"325 125 LINE",
"325 555 LINE"
);
}
);
width = 600;
}
);
unicode = 04B8;
userData = {
public.markColor = "0.97,1,0,1";
};
},
{
color = 4;
glyphname = uni04BA;
lastChange = "2014-12-21 17:35:44 +0000";
layers = (
{
anchors = (
{
name = bottomright;
position = "{561, 0}";
}
);
layerId = UUID0;
name = Regular;
paths = (
{
closed = 1;
nodes = (
"262 452 OFFCURVE",
"206 421 OFFCURVE",
"165 372 CURVE",
"165 284 LINE",
"204 338 OFFCURVE",
"250 371 OFFCURVE",
"325 371 CURVE SMOOTH",
"416 371 OFFCURVE",
"456 323 OFFCURVE",
"456 234 CURVE SMOOTH",
"456 0 LINE",
"551 0 LINE",
"551 235 LINE SMOOTH",
"551 371 OFFCURVE",
"477 452 OFFCURVE",
"347 452 CURVE SMOOTH"
);
},
{
closed = 1;
nodes = (
"80 689 LINE",
"80 0 LINE",
"175 0 LINE",
"175 689 LINE"
);
}
);
width = 600;
},
{
anchors = (
{
name = bottomright;
position = "{586, 0}";
}
);
layerId = "BF448B58-7A35-489E-A1C9-12628F60690C";
name = Bold;
paths = (
{
closed = 1;
nodes = (
"298 471 OFFCURVE",
"246 447 OFFCURVE",
"205 412 CURVE",
"208 303 LINE",
"230 326 OFFCURVE",
"262 348 OFFCURVE",
"316 348 CURVE SMOOTH",
"383 348 OFFCURVE",
"410 317 OFFCURVE",
"410 230 CURVE SMOOTH",
"410 0 LINE",
"576 0 LINE",
"576 231 LINE SMOOTH",
"576 386 OFFCURVE",
"504 471 OFFCURVE",
"363 471 CURVE SMOOTH"
);
},
{
closed = 1;
nodes = (
"51 693 LINE",
"51 0 LINE",
"217 0 LINE",
"217 693 LINE"
);
}
);
width = 600;
}
);
unicode = 04BA;
userData = {
public.markColor = "0.67,0.95,0.38,1";
};
},
{
color = 3;
glyphname = uni0526;
lastChange = "2014-12-21 17:35:44 +0000";
layers = (
{
anchors = (
{
name = bottomright;
position = "{561, 0}";
}
);
components = (
{
name = "descStraight-cy.case";
transform = "{1, 0, 0, 1, 242, 0}";
}
);
layerId = UUID0;
name = Regular;
paths = (
{
closed = 1;
nodes = (
"262 452 OFFCURVE",
"206 421 OFFCURVE",
"165 372 CURVE",
"165 284 LINE",
"204 338 OFFCURVE",
"250 371 OFFCURVE",
"320 371 CURVE SMOOTH",
"408 371 OFFCURVE",
"448 323 OFFCURVE",
"448 234 CURVE SMOOTH",
"448 0 LINE",
"543 0 LINE",
"543 235 LINE SMOOTH",
"543 371 OFFCURVE",
"469 452 OFFCURVE",
"342 452 CURVE SMOOTH"
);
},
{
closed = 1;
nodes = (
"80 689 LINE",
"80 0 LINE",
"175 0 LINE",
"175 689 LINE"
);
}
);
width = 600;
},
{
components = (
{
name = "descStraight-cy.case";
transform = "{1, 0, 0, 1, 212, 0}";
}
);
layerId = "BF448B58-7A35-489E-A1C9-12628F60690C";
name = Bold;
paths = (
{
closed = 1;
nodes = (
"298 471 OFFCURVE",
"246 447 OFFCURVE",
"205 412 CURVE",
"208 303 LINE",
"230 326 OFFCURVE",
"262 348 OFFCURVE",
"306 348 CURVE SMOOTH",
"363 348 OFFCURVE",
"390 317 OFFCURVE",
"390 230 CURVE SMOOTH",
"390 0 LINE",
"556 0 LINE",
"556 231 LINE SMOOTH",
"556 386 OFFCURVE",
"484 471 OFFCURVE",
"353 471 CURVE SMOOTH"
);
},
{
closed = 1;
nodes = (
"51 693 LINE",
"51 0 LINE",
"217 0 LINE",
"217 693 LINE"
);
}
);
width = 600;
}
);
leftKerningGroup = H;
rightKerningGroup = "Shhadescender-cy";
unicode = 0526;
userData = {
public.markColor = "0.97,1,0,1";
};
},
{
color = 4;
glyphname = uni04D8;
lastChange = "2014-12-21 17:35:44 +0000";
layers = (
{
anchors = (
{
name = top;
position = "{293, 689}";
}
);
layerId = UUID0;
name = Regular;
paths = (
{
closed = 1;
nodes = (
"42 105 OFFCURVE",
"138 -12 OFFCURVE",
"297 -12 CURVE SMOOTH",
"456 -12 OFFCURVE",
"554 123 OFFCURVE",
"554 353 CURVE SMOOTH",
"554 585 OFFCURVE",
"462 701 OFFCURVE",
"293 701 CURVE SMOOTH",
"204 701 OFFCURVE",
"139 669 OFFCURVE",
"85 623 CURVE",
"136 565 LINE",
"178 601 OFFCURVE",
"222 626 OFFCURVE",
"289 626 CURVE SMOOTH",
"390 626 OFFCURVE",
"451 559 OFFCURVE",
"457 383 CURVE",
"45 383 LINE",
"43 365 OFFCURVE",
"42 345 OFFCURVE",
"42 332 CURVE SMOOTH"
);
},
{
closed = 1;
nodes = (
"195 64 OFFCURVE",
"141 131 OFFCURVE",
"134 307 CURVE",
"457 307 LINE",
"448 138 OFFCURVE",
"392 64 OFFCURVE",
"298 64 CURVE SMOOTH"
);
}
);
width = 600;
},
{
anchors = (
{
name = top;
position = "{292, 694}";
}
);
layerId = "BF448B58-7A35-489E-A1C9-12628F60690C";
name = Bold;
paths = (
{
closed = 1;
nodes = (
"19 119 OFFCURVE",
"107 -17 OFFCURVE",
"296 -17 CURVE SMOOTH",
"472 -17 OFFCURVE",
"577 114 OFFCURVE",
"577 351 CURVE SMOOTH",
"577 588 OFFCURVE",
"475 711 OFFCURVE",
"292 711 CURVE SMOOTH",
"193 711 OFFCURVE",
"123 679 OFFCURVE",
"59 624 CURVE",
"137 534 LINE",
"174 565 OFFCURVE",
"212 592 OFFCURVE",
"277 592 CURVE SMOOTH",
"361 592 OFFCURVE",
"408 535 OFFCURVE",
"412 404 CURVE",
"25 404 LINE",
"21 384 OFFCURVE",
"19 360 OFFCURVE",
"19 337 CURVE SMOOTH"
);
},
{
closed = 1;
nodes = (
"223 102 OFFCURVE",
"178 153 OFFCURVE",
"176 292 CURVE",
"412 292 LINE",
"408 154 OFFCURVE",
"366 102 OFFCURVE",
"296 102 CURVE SMOOTH"
);
}
);
width = 600;
}
);
unicode = 04D8;
userData = {
public.markColor = "0.67,0.95,0.38,1";
};
},
{
color = 4;
glyphname = uni04E8;
lastChange = "2014-12-21 17:35:44 +0000";
layers = (
{
anchors = (
{
name = top;
position = "{300, 689}";
}
);
layerId = UUID0;
name = Regular;
paths = (
{
closed = 1;
nodes = (
"556 558 OFFCURVE",
"469 701 OFFCURVE",
"300 701 CURVE SMOOTH",
"131 701 OFFCURVE",
"44 553 OFFCURVE",
"44 343 CURVE SMOOTH",
"44 129 OFFCURVE",
"131 -12 OFFCURVE",
"300 -12 CURVE SMOOTH",
"469 -12 OFFCURVE",
"556 134 OFFCURVE",
"556 344 CURVE SMOOTH"
);
},
{
closed = 1;
nodes = (
"195 66 OFFCURVE",
"147 153 OFFCURVE",
"143 316 CURVE",
"456 316 LINE",
"452 153 OFFCURVE",
"407 66 OFFCURVE",
"300 66 CURVE SMOOTH"
);
},
{
closed = 1;
nodes = (
"402 623 OFFCURVE",
"448 542 OFFCURVE",
"455 386 CURVE",
"144 386 LINE",
"152 542 OFFCURVE",
"198 623 OFFCURVE",
"300 623 CURVE SMOOTH"
);
}
);
width = 600;
},
{
anchors = (
{
name = top;
position = "{300, 693}";
}
);
layerId = "BF448B58-7A35-489E-A1C9-12628F60690C";
name = Bold;
paths = (
{
closed = 1;
nodes = (
"578 572 OFFCURVE",
"482 711 OFFCURVE",
"300 711 CURVE SMOOTH",
"118 711 OFFCURVE",
"22 567 OFFCURVE",
"22 347 CURVE SMOOTH",
"22 122 OFFCURVE",
"118 -17 OFFCURVE",
"300 -17 CURVE SMOOTH",
"482 -17 OFFCURVE",
"578 127 OFFCURVE",
"578 347 CURVE SMOOTH"
);
},
{
closed = 1;
nodes = (
"226 104 OFFCURVE",
"191 166 OFFCURVE",
"187 301 CURVE",
"413 301 LINE",
"408 167 OFFCURVE",
"376 104 OFFCURVE",
"300 104 CURVE SMOOTH"
);
},
{
closed = 1;
nodes = (
"372 590 OFFCURVE",
"406 532 OFFCURVE",
"412 402 CURVE",
"187 402 LINE",
"194 532 OFFCURVE",
"228 590 OFFCURVE",
"300 590 CURVE SMOOTH"
);
}
);
width = 600;
}
);
unicode = 04E8;
userData = {
public.markColor = "0.67,0.95,0.38,1";
};
},
{
color = 4;
glyphname = uni0431;
lastChange = "2014-12-21 17:35:44 +0000";
layers = (
{
layerId = UUID0;
name = Regular;
paths = (
{
closed = 1;
nodes = (
"383 717 OFFCURVE",
"345 701 OFFCURVE",
"267 674 CURVE SMOOTH",
"112 621 OFFCURVE",
"72 509 OFFCURVE",
"72 290 CURVE SMOOTH",
"72 79 OFFCURVE",
"169 -12 OFFCURVE",
"299 -12 CURVE SMOOTH",
"433 -12 OFFCURVE",
"527 81 OFFCURVE",
"527 251 CURVE SMOOTH",
"527 402 OFFCURVE",
"449 493 OFFCURVE",
"334 493 CURVE SMOOTH",
"245 493 OFFCURVE",
"179 438 OFFCURVE",
"149 357 CURVE",
"150 268 LINE",
"182 374 OFFCURVE",
"249 419 OFFCURVE",
"317 419 CURVE SMOOTH",
"384 419 OFFCURVE",
"428 374 OFFCURVE",
"428 248 CURVE SMOOTH",
"428 99 OFFCURVE",
"370 62 OFFCURVE",
"299 62 CURVE SMOOTH",
"220 62 OFFCURVE",
"171 131 OFFCURVE",
"171 256 CURVE",
"171 393 LINE",
"168 393 LINE",
"181 538 OFFCURVE",
"225 575 OFFCURVE",
"311 606 CURVE SMOOTH",
"389 634 OFFCURVE",
"435 658 OFFCURVE",
"473 682 CURVE",
"434 751 LINE"
);
}
);
width = 600;
},
{
layerId = "BF448B58-7A35-489E-A1C9-12628F60690C";
name = Bold;
paths = (
{
closed = 1;
nodes = (
"379 722 OFFCURVE",
"341 705 OFFCURVE",
"257 680 CURVE SMOOTH",
"87 630 OFFCURVE",
"43 520 OFFCURVE",
"43 300 CURVE SMOOTH",
"43 80 OFFCURVE",
"135 -17 OFFCURVE",
"300 -17 CURVE SMOOTH",
"448 -17 OFFCURVE",
"556 72 OFFCURVE",
"556 245 CURVE SMOOTH",
"556 407 OFFCURVE",
"467 501 OFFCURVE",
"352 501 CURVE SMOOTH",
"275 501 OFFCURVE",
"219 468 OFFCURVE",
"177 396 CURVE",
"178 286 LINE",
"196 316 OFFCURVE",
"234 388 OFFCURVE",
"304 388 CURVE SMOOTH",
"366 388 OFFCURVE",
"398 350 OFFCURVE",
"398 243 CURVE SMOOTH",
"398 127 OFFCURVE",
"355 97 OFFCURVE",
"300 97 CURVE SMOOTH",
"233 97 OFFCURVE",
"203 153 OFFCURVE",
"203 262 CURVE SMOOTH",
"203 387 LINE",
"196 389 LINE",
"201 513 OFFCURVE",
"230 551 OFFCURVE",
"323 580 CURVE SMOOTH",
"401 604 OFFCURVE",
"446 619 OFFCURVE",
"504 658 CURVE",
"446 759 LINE"
);
}
);
width = 600;
}
);
unicode = 0431;
userData = {
public.markColor = "0.67,0.95,0.38,1";
};
},
{
color = 4;
glyphname = uni0432;
lastChange = "2014-12-21 17:35:44 +0000";
layers = (
{
layerId = UUID0;
name = Regular;
paths = (
{
closed = 1;
nodes = (
"226 539 OFFCURVE",
"165 531 OFFCURVE",
"108 520 CURVE",
"108 0 LINE",
"308 0 LINE SMOOTH",
"428 0 OFFCURVE",
"535 46 OFFCURVE",
"535 156 CURVE SMOOTH",
"535 235 OFFCURVE",
"491 277 OFFCURVE",
"401 286 CURVE",
"481 306 OFFCURVE",
"508 346 OFFCURVE",
"508 401 CURVE SMOOTH",
"508 490 OFFCURVE",
"423 539 OFFCURVE",
"291 539 CURVE SMOOTH"
);
},
{
closed = 1;
nodes = (
"374 468 OFFCURVE",
"414 447 OFFCURVE",
"414 392 CURVE SMOOTH",
"414 332 OFFCURVE",
"371 313 OFFCURVE",
"304 313 CURVE SMOOTH",
"184 313 LINE",
"184 245 LINE",
"310 245 LINE SMOOTH",
"373 245 OFFCURVE",
"438 230 OFFCURVE",
"438 157 CURVE SMOOTH",
"438 79 OFFCURVE",
"362 72 OFFCURVE",
"293 72 CURVE SMOOTH",
"200 72 LINE",
"200 462 LINE",
"230 466 OFFCURVE",
"254 468 OFFCURVE",
"292 468 CURVE SMOOTH"
);
}
);
width = 600;
},
{
layerId = "BF448B58-7A35-489E-A1C9-12628F60690C";
name = Bold;
paths = (
{
closed = 1;
nodes = (
"220 549 OFFCURVE",
"154 540 OFFCURVE",
"78 526 CURVE",
"78 0 LINE",
"314 0 LINE SMOOTH",
"450 0 OFFCURVE",
"559 44 OFFCURVE",
"559 160 CURVE SMOOTH",
"559 233 OFFCURVE",
"511 280 OFFCURVE",
"424 292 CURVE",
"491 309 OFFCURVE",
"535 346 OFFCURVE",
"535 407 CURVE SMOOTH",
"535 501 OFFCURVE",
"435 549 OFFCURVE",
"298 549 CURVE SMOOTH"
);
},
{
closed = 1;
nodes = (
"352 447 OFFCURVE",
"381 426 OFFCURVE",
"381 385 CURVE SMOOTH",
"381 344 OFFCURVE",
"354 324 OFFCURVE",
"304 324 CURVE SMOOTH",
"222 324 LINE",
"222 241 LINE",
"313 241 LINE SMOOTH",
"370 241 OFFCURVE",
"398 215 OFFCURVE",
"398 173 CURVE SMOOTH",
"398 129 OFFCURVE",
"371 105 OFFCURVE",
"310 105 CURVE SMOOTH",
"238 105 LINE",
"238 443 LINE",
"254 446 OFFCURVE",
"273 447 OFFCURVE",
"296 447 CURVE SMOOTH"
);
}
);
width = 600;
}
);
unicode = 0432;
userData = {
public.markColor = "0.67,0.95,0.38,1";
};
},
{
color = 4;
glyphname = uni0433;
lastChange = "2014-12-21 17:35:44 +0000";
layers = (
{
anchors = (
{
name = bottomright;
position = "{256, 0}";
},
{
name = top;
position = "{340, 527}";
}
);
layerId = UUID0;
name = Regular;
paths = (
{
closed = 1;
nodes = (
"246 451 LINE",
"515 451 LINE",
"526 527 LINE",
"154 527 LINE",
"154 0 LINE",
"246 0 LINE"
);
}
);
width = 600;
},
{
anchors = (
{
name = bottomright;
position = "{291, 0}";
},
{
name = top;
position = "{338, 531}";
}
);
layerId = "BF448B58-7A35-489E-A1C9-12628F60690C";
name = Bold;
paths = (
{
closed = 1;
nodes = (
"281 408 LINE",
"521 408 LINE",
"539 531 LINE",
"121 531 LINE",
"121 0 LINE",
"281 0 LINE"
);
}
);
width = 600;
}
);
unicode = 0433;
userData = {
public.markColor = "0.67,0.95,0.38,1";
};
},
{
color = 3;
glyphname = uni0491;
lastChange = "2014-12-21 17:35:44 +0000";
layers = (
{
components = (
{
name = uni0433;
transform = "{1, 0, 0, 1, 0, 0}";
}
);
layerId = UUID0;
name = Regular;
paths = (
{
closed = 1;
nodes = (
"526 527 LINE",
"526 662 LINE",
"434 662 LINE",
"434 514 LINE"
);
}
);
width = 600;
},
{
components = (
{
name = uni0433;
transform = "{1, 0, 0, 1, 0, 0}";
}
);
layerId = "BF448B58-7A35-489E-A1C9-12628F60690C";
name = Bold;
paths = (
{
closed = 1;
nodes = (
"539 531 LINE",
"539 684 LINE",
"394 684 LINE",
"394 504 LINE"
);
}
);
width = 600;
}
);
unicode = 0491;
userData = {
public.markColor = "0.97,1,0,1";
};
},
{
color = 3;
glyphname = uni0434;
lastChange = "2014-12-21 17:35:44 +0000";
layers = (
{
components = (
{
name = "descStraight-cy";
transform = "{-1, 0, 0, 1, 374, 0}";
},
{
name = "descStraight-cy";
transform = "{1, 0, 0, 1, 190, 0}";
}
);
layerId = UUID0;
name = Regular;
paths = (
{
closed = 1;
nodes = (
"154 527 LINE",
"142 357 LINE SMOOTH",
"128 170 OFFCURVE",
"107 114 OFFCURVE",
"61 74 CURVE",
"110 0 LINE",
"453 0 LINE",
"499 74 LINE",
"499 527 LINE"
);
},
{
closed = 1;
nodes = (
"407 74 LINE",
"139 74 LINE",
"199 117 OFFCURVE",
"217 172 OFFCURVE",
"231 363 CURVE SMOOTH",
"237 454 LINE",
"407 454 LINE"
);
}
);
width = 600;
},
{
components = (
{
name = "descStraight-cy";
transform = "{-1, 0, 0, 1, 395, 0}";
},
{
name = "descStraight-cy";
transform = "{1, 0, 0, 1, 192, 0}";
}
);
layerId = "BF448B58-7A35-489E-A1C9-12628F60690C";
name = Bold;
paths = (
{
closed = 1;
nodes = (
"134 531 LINE",
"120 361 LINE SMOOTH",
"107 199 OFFCURVE",
"90 153 OFFCURVE",
"55 118 CURVE",
"136 0 LINE",
"451 0 LINE",
"523 118 LINE",
"523 531 LINE"
);
},
{
closed = 1;
nodes = (
"374 118 LINE",
"186 118 LINE",
"238 157 OFFCURVE",
"257 201 OFFCURVE",
"271 367 CURVE",
"275 420 LINE",
"374 420 LINE"
);
}
);
width = 600;
}
);
unicode = 0434;
userData = {
public.markColor = "0.97,1,0,1";
};
},
{
color = 4;
glyphname = uni0436;
lastChange = "2014-12-21 17:35:44 +0000";
layers = (
{
anchors = (
{
name = bottomright;
position = "{548, 0}";
},
{
name = top;
position = "{300, 527}";
}
);
layerId = UUID0;
name = Regular;
paths = (
{
closed = 1;
nodes = (
"339 0 LINE",
"339 245 LINE",
"390 245 LINE",
"492 0 LINE",
"583 0 LINE",
"461 283 LINE",
"574 527 LINE",
"486 527 LINE",
"392 313 LINE",
"339 313 LINE",
"339 527 LINE",
"261 527 LINE",
"261 313 LINE",
"208 313 LINE",
"117 527 LINE",
"26 527 LINE",
"139 283 LINE",
"17 0 LINE",
"106 0 LINE",
"208 245 LINE",
"261 245 LINE",
"261 0 LINE"
);
}
);
width = 600;
},
{
anchors = (
{
name = bottomright;
position = "{587, 0}";
},
{
name = top;
position = "{300, 531}";
}
);
layerId = "BF448B58-7A35-489E-A1C9-12628F60690C";
name = Bold;
paths = (
{
closed = 1;
nodes = (
"354 0 LINE",
"354 232 LINE",
"379 232 LINE",
"467 0 LINE",
"607 0 LINE",
"485 285 LINE",
"603 531 LINE",
"468 531 LINE",
"381 320 LINE",
"354 320 LINE",
"354 531 LINE",
"246 531 LINE",
"246 320 LINE",
"219 320 LINE",
"136 531 LINE",
"-3 531 LINE",
"116 285 LINE",
"-6 0 LINE",
"137 0 LINE",
"221 232 LINE",
"246 232 LINE",
"246 0 LINE"
);
}
);
width = 600;
}
);
unicode = 0436;
userData = {
public.markColor = "0.67,0.95,0.38,1";
};
},
{
color = 4;
glyphname = uni0437;
lastChange = "2014-12-21 17:35:44 +0000";
layers = (
{
anchors = (
{
name = bottom;
position = "{300, 0}";
},
{
name = top;
position = "{293, 527}";
}
);
layerId = UUID0;
name = Regular;
paths = (
{
closed = 1;
nodes = (
"183 239 LINE",
"290 239 LINE SMOOTH",
"375 239 OFFCURVE",
"420 212 OFFCURVE",
"420 156 CURVE SMOOTH",
"420 99 OFFCURVE",
"373 62 OFFCURVE",
"283 62 CURVE SMOOTH",
"201 62 OFFCURVE",
"144 84 OFFCURVE",
"97 120 CURVE",
"51 61 LINE",
"101 21 OFFCURVE",
"173 -12 OFFCURVE",
"281 -12 CURVE SMOOTH",
"416 -12 OFFCURVE",
"519 46 OFFCURVE",
"519 152 CURVE SMOOTH",
"519 236 OFFCURVE",
"456 269 OFFCURVE",
"381 281 CURVE",
"445 299 OFFCURVE",
"490 340 OFFCURVE",
"490 397 CURVE SMOOTH",
"490 496 OFFCURVE",
"396 539 OFFCURVE",
"278 539 CURVE SMOOTH",
"200 539 OFFCURVE",
"121 515 OFFCURVE",
"70 475 CURVE",
"115 419 LINE",
"158 451 OFFCURVE",
"218 467 OFFCURVE",
"274 467 CURVE SMOOTH",
"351 467 OFFCURVE",
"395 442 OFFCURVE",
"395 388 CURVE SMOOTH",
"395 342 OFFCURVE",
"353 311 OFFCURVE",
"284 311 CURVE SMOOTH",
"189 311 LINE"
);
}
);
width = 600;
},
{
anchors = (
{
name = bottom;
position = "{295, 0}";
},
{
name = top;
position = "{286, 527}";
}
);
layerId = "BF448B58-7A35-489E-A1C9-12628F60690C";
name = Bold;
paths = (
{
closed = 1;
nodes = (
"159 222 LINE",
"275 222 LINE SMOOTH",
"340 222 OFFCURVE",
"371 200 OFFCURVE",
"371 162 CURVE SMOOTH",
"371 122 OFFCURVE",
"340 97 OFFCURVE",
"269 97 CURVE SMOOTH",
"204 97 OFFCURVE",
"150 112 OFFCURVE",
"103 145 CURVE",
"25 53 LINE",
"81 10 OFFCURVE",
"168 -17 OFFCURVE",
"274 -17 CURVE SMOOTH",
"426 -17 OFFCURVE",
"537 40 OFFCURVE",
"537 152 CURVE SMOOTH",
"537 233 OFFCURVE",
"479 270 OFFCURVE",
"382 281 CURVE",
"464 302 OFFCURVE",
"510 342 OFFCURVE",
"510 401 CURVE SMOOTH",
"510 497 OFFCURVE",
"409 549 OFFCURVE",
"281 549 CURVE SMOOTH",
"192 549 OFFCURVE",
"102 527 OFFCURVE",
"42 484 CURVE",
"116 399 LINE",
"154 425 OFFCURVE",
"208 438 OFFCURVE",
"261 438 CURVE SMOOTH",
"316 438 OFFCURVE",
"349 420 OFFCURVE",
"349 383 CURVE SMOOTH",
"349 347 OFFCURVE",
"320 324 OFFCURVE",
"264 324 CURVE SMOOTH",
"168 324 LINE"
);
}
);
width = 600;
}
);
unicode = 0437;
userData = {
public.markColor = "0.67,0.95,0.38,1";
};
},
{
color = 4;
glyphname = uni0438;
lastChange = "2014-12-21 17:35:44 +0000";
layers = (
{
anchors = (
{
name = top;
position = "{300, 527}";
}
);
layerId = UUID0;
name = Regular;
paths = (
{
closed = 1;
nodes = (
"394 527 LINE",
"180 102 LINE",
"176 102 LINE",
"179 125 OFFCURVE",
"186 207 OFFCURVE",
"186 289 CURVE SMOOTH",
"186 527 LINE",
"97 527 LINE",
"97 0 LINE",
"205 0 LINE",
"421 428 LINE",
"425 428 LINE",
"421 406 OFFCURVE",
"414 331 OFFCURVE",
"414 238 CURVE SMOOTH",
"414 0 LINE",
"503 0 LINE",
"503 527 LINE"
);
}
);
width = 600;
},
{
anchors = (
{
name = top;
position = "{300, 531}";
}
);
layerId = "BF448B58-7A35-489E-A1C9-12628F60690C";
name = Bold;
paths = (
{
closed = 1;
nodes = (
"368 531 LINE",
"202 157 LINE",
"198 157 LINE",
"210 203 OFFCURVE",
"220 282 OFFCURVE",
"220 362 CURVE SMOOTH",
"220 531 LINE",
"69 531 LINE",
"69 0 LINE",
"232 0 LINE",
"398 373 LINE",
"402 373 LINE",
"391 334 OFFCURVE",
"380 257 OFFCURVE",
"380 167 CURVE SMOOTH",
"380 0 LINE",
"531 0 LINE",
"531 531 LINE"
);
}
);
width = 600;
}
);
unicode = 0438;
userData = {
public.markColor = "0.67,0.95,0.38,1";
};
},
{
color = 4;
glyphname = uni043A;
lastChange = "2014-12-21 17:35:44 +0000";
layers = (
{
anchors = (
{
name = bottomright;
position = "{518, 0}";
},
{
name = top;
position = "{320, 527}";
}
);
layerId = UUID0;
name = Regular;
paths = (
{
closed = 1;
nodes = (
"194 0 LINE",
"194 243 LINE",
"294 243 LINE",
"462 0 LINE",
"571 0 LINE",
"371 283 LINE",
"545 527 LINE",
"444 527 LINE",
"296 315 LINE",
"194 315 LINE",
"194 527 LINE",
"102 527 LINE",
"102 0 LINE"
);
}
);
width = 600;
},
{
anchors = (
{
name = bottomright;
position = "{538, 0}";
},
{
name = top;
position = "{320, 531}";
}
);
layerId = "BF448B58-7A35-489E-A1C9-12628F60690C";
name = Bold;
paths = (
{
closed = 1;
nodes = (
"232 0 LINE",
"232 223 LINE",
"300 223 LINE",
"418 0 LINE",
"587 0 LINE",
"427 285 LINE",
"573 531 LINE",
"418 531 LINE",
"304 329 LINE",
"232 329 LINE",
"232 531 LINE",
"72 531 LINE",
"72 0 LINE"
);
}
);
width = 600;
}
);
unicode = 043A;
userData = {
public.markColor = "0.67,0.95,0.38,1";
};
},
{
color = 4;
glyphname = uni043B;
lastChange = "2014-12-21 17:35:44 +0000";
layers = (
{
layerId = UUID0;
name = Regular;
paths = (
{
closed = 1;
nodes = (
"149 527 LINE",
"133 317 LINE SMOOTH",
"117 107 OFFCURVE",
"88 78 OFFCURVE",
"39 47 CURVE",
"78 -12 LINE",
"174 41 OFFCURVE",
"203 86 OFFCURVE",
"221 321 CURVE SMOOTH",
"232 452 LINE",
"420 452 LINE",
"420 0 LINE",
"512 0 LINE",
"512 527 LINE"
);
}
);
width = 600;
},
{
layerId = "BF448B58-7A35-489E-A1C9-12628F60690C";
name = Bold;
paths = (
{
closed = 1;
nodes = (
"116 531 LINE",
"102 345 LINE SMOOTH",
"87 152 OFFCURVE",
"64 117 OFFCURVE",
"13 81 CURVE",
"80 -20 LINE",
"205 41 OFFCURVE",
"242 108 OFFCURVE",
"254 351 CURVE SMOOTH",
"257 414 LINE",
"368 414 LINE",
"368 0 LINE",
"528 0 LINE",
"528 531 LINE"
);
}
);
width = 600;
}
);
unicode = 043B;
userData = {
public.markColor = "0.67,0.95,0.38,1";
};
},
{
color = 4;
glyphname = uni043C;
lastChange = "2014-12-21 17:35:44 +0000";
layers = (
{
layerId = UUID0;
name = Regular;
paths = (
{
closed = 1;
nodes = (
"403 527 LINE",
"303 171 LINE",
"194 527 LINE",
"77 527 LINE",
"40 0 LINE",
"126 0 LINE",
"140 250 LINE SMOOTH",
"143 308 OFFCURVE",
"145 378 OFFCURVE",
"142 437 CURVE",
"146 437 LINE",
"258 88 LINE",
"345 88 LINE",
"446 437 LINE",
"450 437 LINE",
"448 366 OFFCURVE",
"450 307 OFFCURVE",
"454 249 CURVE SMOOTH",
"473 0 LINE",
"560 0 LINE",
"522 527 LINE"
);
}
);
width = 600;
},
{
layerId = "BF448B58-7A35-489E-A1C9-12628F60690C";
name = Bold;
paths = (
{
closed = 1;
nodes = (
"367 531 LINE",
"302 205 LINE",
"227 531 LINE",
"55 531 LINE",
"20 0 LINE",
"159 0 LINE",
"165 173 LINE SMOOTH",
"168 248 OFFCURVE",
"170 316 OFFCURVE",
"162 386 CURVE",
"166 386 LINE",
"243 84 LINE",
"358 84 LINE",
"430 386 LINE",
"434 386 LINE",
"428 315 OFFCURVE",
"428 246 OFFCURVE",
"431 179 CURVE SMOOTH",
"438 0 LINE",
"580 0 LINE",
"544 531 LINE"
);
}
);
width = 600;
}
);
unicode = 043C;
userData = {
public.markColor = "0.67,0.95,0.38,1";
};
},
{
color = 4;
glyphname = uni043D;
lastChange = "2014-12-21 17:35:44 +0000";
layers = (
{
anchors = (
{
name = bottomright;
position = "{513, 0}";
}
);
layerId = UUID0;
name = Regular;
paths = (
{
closed = 1;
nodes = (
"503 0 LINE",
"503 527 LINE",
"411 527 LINE",
"411 306 LINE",
"189 306 LINE",
"189 527 LINE",
"97 527 LINE",
"97 0 LINE",
"189 0 LINE",
"189 232 LINE",
"411 232 LINE",
"411 0 LINE"
);
}
);
width = 600;
},
{
anchors = (
{
name = bottomright;
position = "{541, 0}";
}
);
layerId = "BF448B58-7A35-489E-A1C9-12628F60690C";
name = Bold;
paths = (
{
closed = 1;
nodes = (
"531 0 LINE",
"531 531 LINE",
"371 531 LINE",
"371 329 LINE",
"229 329 LINE",
"229 531 LINE",
"69 531 LINE",
"69 0 LINE",
"229 0 LINE",
"229 211 LINE",
"371 211 LINE",
"371 0 LINE"
);
}
);
width = 600;
}
);
unicode = 043D;
userData = {
public.markColor = "0.67,0.95,0.38,1";
};
},
{
color = 4;
glyphname = uni043F;
lastChange = "2014-12-21 17:35:44 +0000";
layers = (
{
anchors = (
{
name = bottomright;
position = "{513, 0}";
}
);
layerId = UUID0;
name = Regular;
paths = (
{
closed = 1;
nodes = (
"503 0 LINE",
"503 527 LINE",
"97 527 LINE",
"97 0 LINE",
"189 0 LINE",
"189 453 LINE",
"411 453 LINE",
"411 0 LINE"
);
}
);
width = 600;
},
{
anchors = (
{
name = bottomright;
position = "{541, 0}";
}
);
layerId = "BF448B58-7A35-489E-A1C9-12628F60690C";
name = Bold;
paths = (
{
closed = 1;
nodes = (
"531 0 LINE",
"531 531 LINE",
"69 531 LINE",
"69 0 LINE",
"228 0 LINE",
"228 413 LINE",
"372 413 LINE",
"372 0 LINE"
);
}
);
width = 600;
}
);
unicode = 043F;
userData = {
public.markColor = "0.67,0.95,0.38,1";
};
},
{
color = 4;
glyphname = uni0442;
lastChange = "2014-12-21 17:35:44 +0000";
layers = (
{
anchors = (
{
name = bottomright;
position = "{356, 0}";
}
);
layerId = UUID0;
name = Regular;
paths = (
{
closed = 1;
nodes = (
"63 527 LINE",
"63 452 LINE",
"254 452 LINE",
"254 0 LINE",
"346 0 LINE",
"346 452 LINE",
"532 452 LINE",
"543 527 LINE"
);
}
);
width = 600;
},
{
anchors = (
{
name = bottomright;
position = "{390, 0}";
}
);
layerId = "BF448B58-7A35-489E-A1C9-12628F60690C";
name = Bold;
paths = (
{
closed = 1;
nodes = (
"42 531 LINE",
"42 413 LINE",
"220 413 LINE",
"220 0 LINE",
"380 0 LINE",
"380 413 LINE",
"545 413 LINE",
"564 531 LINE"
);
}
);
width = 600;
}
);
unicode = 0442;
userData = {
public.markColor = "0.67,0.95,0.38,1";
};
},
{
color = 4;
glyphname = uni0444;
lastChange = "2014-12-21 17:35:44 +0000";
layers = (
{
layerId = UUID0;
name = Regular;
paths = (
{
closed = 1;
nodes = (
"260 488 LINE",
"232 524 OFFCURVE",
"202 539 OFFCURVE",
"167 539 CURVE SMOOTH",
"62 539 OFFCURVE",
"27 430 OFFCURVE",
"27 264 CURVE SMOOTH",
"27 98 OFFCURVE",
"75 -12 OFFCURVE",
"169 -12 CURVE SMOOTH",
"200 -12 OFFCURVE",
"234 6 OFFCURVE",
"260 43 CURVE",
"260 -213 LINE",
"340 -202 LINE",
"340 43 LINE",
"366 6 OFFCURVE",
"397 -12 OFFCURVE",
"429 -12 CURVE SMOOTH",
"523 -12 OFFCURVE",
"573 98 OFFCURVE",
"573 264 CURVE SMOOTH",
"573 430 OFFCURVE",
"543 539 OFFCURVE",
"438 539 CURVE SMOOTH",
"402 539 OFFCURVE",
"369 523 OFFCURVE",
"340 486 CURVE",
"340 739 LINE",
"260 750 LINE"
);
},
{
closed = 1;
nodes = (
"219 468 OFFCURVE",
"235 453 OFFCURVE",
"260 423 CURVE",
"260 108 LINE",
"234 76 OFFCURVE",
"217 59 OFFCURVE",
"189 59 CURVE SMOOTH",
"142 59 OFFCURVE",
"120 117 OFFCURVE",
"120 264 CURVE SMOOTH",
"120 411 OFFCURVE",
"142 468 OFFCURVE",
"189 468 CURVE SMOOTH"
);
},
{
closed = 1;
nodes = (
"463 468 OFFCURVE",
"481 411 OFFCURVE",
"481 264 CURVE SMOOTH",
"481 117 OFFCURVE",
"456 59 OFFCURVE",
"409 59 CURVE SMOOTH",
"381 59 OFFCURVE",
"363 76 OFFCURVE",
"340 108 CURVE",
"340 422 LINE",
"365 453 OFFCURVE",
"385 468 OFFCURVE",
"416 468 CURVE SMOOTH"
);
}
);
width = 600;
},
{
layerId = "BF448B58-7A35-489E-A1C9-12628F60690C";
name = Bold;
paths = (
{
closed = 1;
nodes = (
"243 501 LINE",
"219 534 OFFCURVE",
"192 549 OFFCURVE",
"154 549 CURVE SMOOTH",
"45 549 OFFCURVE",
"14 441 OFFCURVE",
"14 265 CURVE SMOOTH",
"14 92 OFFCURVE",
"54 -17 OFFCURVE",
"156 -17 CURVE SMOOTH",
"192 -17 OFFCURVE",
"221 -1 OFFCURVE",
"243 28 CURVE",
"243 -222 LINE",
"357 -209 LINE",
"357 29 LINE",
"379 -1 OFFCURVE",
"406 -17 OFFCURVE",
"443 -17 CURVE SMOOTH",
"546 -17 OFFCURVE",
"586 92 OFFCURVE",
"586 265 CURVE SMOOTH",
"586 441 OFFCURVE",
"566 549 OFFCURVE",
"454 549 CURVE SMOOTH",
"415 549 OFFCURVE",
"384 535 OFFCURVE",
"357 500 CURVE",
"357 746 LINE",
"243 759 LINE"
);
},
{
closed = 1;
nodes = (
"220 440 OFFCURVE",
"230 431 OFFCURVE",
"243 411 CURVE",
"243 121 LINE",
"228 102 OFFCURVE",
"218 91 OFFCURVE",
"201 91 CURVE SMOOTH",
"164 91 OFFCURVE",
"155 139 OFFCURVE",
"155 265 CURVE SMOOTH",
"155 394 OFFCURVE",
"164 440 OFFCURVE",
"201 440 CURVE SMOOTH"
);
},
{
closed = 1;
nodes = (
"438 440 OFFCURVE",
"445 394 OFFCURVE",
"445 265 CURVE SMOOTH",
"445 133 OFFCURVE",
"434 91 OFFCURVE",
"401 91 CURVE SMOOTH",
"383 91 OFFCURVE",
"372 100 OFFCURVE",
"357 121 CURVE",
"357 411 LINE",
"373 431 OFFCURVE",
"386 440 OFFCURVE",
"406 440 CURVE SMOOTH"
);
}
);
width = 600;
}
);
unicode = 0444;
userData = {
public.markColor = "0.67,0.95,0.38,1";
};
},
{
color = 4;
glyphname = uni0447;
lastChange = "2014-12-21 17:35:44 +0000";
layers = (
{
anchors = (
{
name = bottomleft;
position = "{391, 0}";
},
{
name = bottomright;
position = "{503, 0}";
},
{
name = top;
position = "{287, 527}";
}
);
layerId = UUID0;
name = Regular;
paths = (
{
closed = 1;
nodes = (
"401 527 LINE",
"401 291 LINE",
"370 256 OFFCURVE",
"311 234 OFFCURVE",
"262 234 CURVE SMOOTH",
"202 234 OFFCURVE",
"173 261 OFFCURVE",
"173 329 CURVE SMOOTH",
"173 527 LINE",
"81 527 LINE",
"81 318 LINE SMOOTH",
"81 220 OFFCURVE",
"134 162 OFFCURVE",
"237 162 CURVE SMOOTH",
"302 162 OFFCURVE",
"362 185 OFFCURVE",
"401 220 CURVE",
"401 0 LINE",
"493 0 LINE",
"493 527 LINE"
);
}
);
width = 600;
},
{
anchors = (
{
name = bottomleft;
position = "{357, 0}";
},
{
name = bottomright;
position = "{536, 0}";
},
{
name = top;
position = "{287, 531}";
}
);
layerId = "BF448B58-7A35-489E-A1C9-12628F60690C";
name = Bold;
paths = (
{
closed = 1;
nodes = (
"367 531 LINE",
"367 300 LINE",
"343 280 OFFCURVE",
"308 266 OFFCURVE",
"274 266 CURVE SMOOTH",
"234 266 OFFCURVE",
"207 283 OFFCURVE",
"207 333 CURVE SMOOTH",
"207 531 LINE",
"47 531 LINE",
"47 313 LINE SMOOTH",
"47 212 OFFCURVE",
"106 148 OFFCURVE",
"215 148 CURVE SMOOTH",
"278 148 OFFCURVE",
"330 167 OFFCURVE",
"367 197 CURVE",
"367 0 LINE",
"527 0 LINE",
"527 531 LINE"
);
}
);
width = 600;
}
);
unicode = 0447;
userData = {
public.markColor = "0.67,0.95,0.38,1";
};
},
{
color = 4;
glyphname = uni0448;
lastChange = "2014-12-21 17:35:44 +0000";
layers = (
{
anchors = (
{
name = bottomright;
position = "{553, 0}";
}
);
layerId = UUID0;
name = Regular;
paths = (
{
closed = 1;
nodes = (
"469 527 LINE",
"469 75 LINE",
"341 75 LINE",
"341 527 LINE",
"259 527 LINE",
"259 75 LINE",
"131 75 LINE",
"131 527 LINE",
"46 527 LINE",
"46 0 LINE",
"554 0 LINE",
"554 527 LINE"
);
}
);
width = 600;
},
{
anchors = (
{
name = bottomright;
position = "{566, 0}";
}
);
layerId = "BF448B58-7A35-489E-A1C9-12628F60690C";
name = Bold;
paths = (
{
closed = 1;
nodes = (
"439 531 LINE",
"439 118 LINE",
"359 118 LINE",
"359 531 LINE",
"241 531 LINE",
"241 118 LINE",
"160 118 LINE",
"160 531 LINE",
"24 531 LINE",
"24 0 LINE",
"576 0 LINE",
"576 531 LINE"
);
}
);
width = 600;
}
);
unicode = 0448;
userData = {
public.markColor = "0.67,0.95,0.38,1";
};
},
{
color = 4;
glyphname = uni044F;
lastChange = "2014-12-21 17:35:44 +0000";
layers = (
{
layerId = UUID0;
name = Regular;
paths = (
{
closed = 1;
nodes = (
"154 539 OFFCURVE",
"86 474 OFFCURVE",
"86 369 CURVE SMOOTH",
"86 303 OFFCURVE",
"115 252 OFFCURVE",
"177 223 CURVE",
"51 0 LINE",
"154 0 LINE",
"265 202 LINE",
"398 202 LINE",
"398 0 LINE",
"490 0 LINE",
"490 520 LINE",
"439 531 OFFCURVE",
"381 539 OFFCURVE",
"311 539 CURVE SMOOTH"
);
},
{
closed = 1;
nodes = (
"345 468 OFFCURVE",
"367 466 OFFCURVE",
"398 462 CURVE",
"398 272 LINE",
"301 272 LINE SMOOTH",
"222 272 OFFCURVE",
"183 303 OFFCURVE",
"183 369 CURVE SMOOTH",
"183 432 OFFCURVE",
"211 468 OFFCURVE",
"309 468 CURVE SMOOTH"
);
}
);
width = 600;
},
{
layerId = "BF448B58-7A35-489E-A1C9-12628F60690C";
name = Bold;
paths = (
{
closed = 1;
nodes = (
"140 549 OFFCURVE",
"59 478 OFFCURVE",
"59 364 CURVE SMOOTH",
"59 299 OFFCURVE",
"94 249 OFFCURVE",
"149 219 CURVE",
"19 0 LINE",
"190 0 LINE",
"287 185 LINE",
"366 185 LINE",
"366 0 LINE",
"526 0 LINE",
"526 526 LINE",
"472 539 OFFCURVE",
"396 549 OFFCURVE",
"315 549 CURVE SMOOTH"
);
},
{
closed = 1;
nodes = (
"335 444 OFFCURVE",
"351 443 OFFCURVE",
"366 441 CURVE",
"366 279 LINE",
"316 279 LINE SMOOTH",
"249 279 OFFCURVE",
"223 305 OFFCURVE",
"223 362 CURVE SMOOTH",
"223 413 OFFCURVE",
"248 444 OFFCURVE",
"313 444 CURVE SMOOTH"
);
}
);
width = 600;
}
);
unicode = 044F;
userData = {
public.markColor = "0.67,0.95,0.38,1";
};
},
{
color = 4;
glyphname = uni044C;
lastChange = "2014-12-21 17:35:44 +0000";
layers = (
{
layerId = UUID0;
name = Regular;
paths = (
{
closed = 1;
nodes = (
"122 527 LINE",
"122 0 LINE",
"329 0 LINE SMOOTH",
"436 0 OFFCURVE",
"536 54 OFFCURVE",
"536 182 CURVE SMOOTH",
"536 292 OFFCURVE",
"477 362 OFFCURVE",
"312 362 CURVE SMOOTH",
"214 362 LINE",
"214 527 LINE"
);
},
{
closed = 1;
nodes = (
"408 292 OFFCURVE",
"438 255 OFFCURVE",
"438 182 CURVE SMOOTH",
"438 98 OFFCURVE",
"390 72 OFFCURVE",
"321 72 CURVE SMOOTH",
"214 72 LINE",
"214 292 LINE",
"311 292 LINE SMOOTH"
);
}
);
width = 600;
},
{
layerId = "BF448B58-7A35-489E-A1C9-12628F60690C";
name = Bold;
paths = (
{
closed = 1;
nodes = (
"87 531 LINE",
"87 0 LINE",
"304 0 LINE SMOOTH",
"448 0 OFFCURVE",
"557 42 OFFCURVE",
"557 188 CURVE SMOOTH",
"557 313 OFFCURVE",
"472 373 OFFCURVE",
"301 373 CURVE SMOOTH",
"247 373 LINE",
"247 531 LINE"
);
},
{
closed = 1;
nodes = (
"365 268 OFFCURVE",
"392 245 OFFCURVE",
"392 191 CURVE SMOOTH",
"392 130 OFFCURVE",
"362 110 OFFCURVE",
"308 110 CURVE SMOOTH",
"247 110 LINE",
"247 268 LINE",
"303 268 LINE SMOOTH"
);
}
);
width = 600;
}
);
unicode = 044C;
userData = {
public.markColor = "0.67,0.95,0.38,1";
};
},
{
color = 4;
glyphname = uni044A;
lastChange = "2014-12-21 17:35:44 +0000";
layers = (
{
layerId = UUID0;
name = Regular;
paths = (
{
closed = 1;
nodes = (
"31 527 LINE",
"31 457 LINE",
"154 457 LINE",
"154 0 LINE",
"308 0 LINE SMOOTH",
"448 0 OFFCURVE",
"548 48 OFFCURVE",
"548 184 CURVE SMOOTH",
"548 311 OFFCURVE",
"456 362 OFFCURVE",
"306 362 CURVE SMOOTH",
"246 362 LINE",
"246 527 LINE"
);
},
{
closed = 1;
nodes = (
"400 292 OFFCURVE",
"450 263 OFFCURVE",
"450 184 CURVE SMOOTH",
"450 93 OFFCURVE",
"392 72 OFFCURVE",
"315 72 CURVE SMOOTH",
"246 72 LINE",
"246 292 LINE",
"315 292 LINE SMOOTH"
);
}
);
width = 600;
},
{
layerId = "BF448B58-7A35-489E-A1C9-12628F60690C";
name = Bold;
paths = (
{
closed = 1;
nodes = (
"13 531 LINE",
"13 417 LINE",
"117 417 LINE",
"117 0 LINE",
"335 0 LINE SMOOTH",
"483 0 OFFCURVE",
"572 59 OFFCURVE",
"572 187 CURVE SMOOTH",
"572 311 OFFCURVE",
"487 371 OFFCURVE",
"317 371 CURVE SMOOTH",
"277 371 LINE",
"277 531 LINE"
);
},
{
closed = 1;
nodes = (
"380 266 OFFCURVE",
"407 243 OFFCURVE",
"407 190 CURVE SMOOTH",
"407 130 OFFCURVE",
"377 110 OFFCURVE",
"323 110 CURVE SMOOTH",
"277 110 LINE",
"277 266 LINE",
"318 266 LINE SMOOTH"
);
}
);
width = 600;
}
);
unicode = 044A;
userData = {
public.markColor = "0.67,0.95,0.38,1";
};
},
{
color = 4;
glyphname = uni044B;
lastChange = "2014-12-21 17:35:44 +0000";
layers = (
{
anchors = (
{
name = top;
position = "{300, 527}";
}
);
layerId = UUID0;
name = Regular;
paths = (
{
closed = 1;
nodes = (
"58 527 LINE",
"58 0 LINE",
"179 0 LINE SMOOTH",
"314 0 OFFCURVE",
"402 55 OFFCURVE",
"402 183 CURVE SMOOTH",
"402 305 OFFCURVE",
"318 357 OFFCURVE",
"177 357 CURVE SMOOTH",
"144 357 LINE",
"144 527 LINE"
);
},
{
closed = 1;
nodes = (
"269 291 OFFCURVE",
"309 261 OFFCURVE",
"309 183 CURVE SMOOTH",
"309 94 OFFCURVE",
"261 69 OFFCURVE",
"181 69 CURVE SMOOTH",
"144 69 LINE",
"144 291 LINE",
"181 291 LINE SMOOTH"
);
},
{
closed = 1;
nodes = (
"455 527 LINE",
"455 0 LINE",
"542 0 LINE",
"542 527 LINE"
);
}
);
width = 600;
},
{
anchors = (
{
name = top;
position = "{300, 531}";
}
);
layerId = "BF448B58-7A35-489E-A1C9-12628F60690C";
name = Bold;
paths = (
{
closed = 1;
nodes = (
"25 531 LINE",
"25 0 LINE",
"187 0 LINE SMOOTH",
"324 0 OFFCURVE",
"405 62 OFFCURVE",
"405 187 CURVE SMOOTH",
"405 312 OFFCURVE",
"327 369 OFFCURVE",
"170 369 CURVE",
"161 369 LINE",
"161 531 LINE"
);
},
{
closed = 1;
nodes = (
"237 275 OFFCURVE",
"262 249 OFFCURVE",
"262 189 CURVE SMOOTH",
"262 124 OFFCURVE",
"233 99 OFFCURVE",
"184 99 CURVE SMOOTH",
"161 99 LINE",
"161 275 LINE",
"179 275 LINE SMOOTH"
);
},
{
closed = 1;
nodes = (
"439 531 LINE",
"439 0 LINE",
"575 0 LINE",
"575 531 LINE"
);
}
);
width = 600;
}
);
unicode = 044B;
userData = {
public.markColor = "0.67,0.95,0.38,1";
};
},
{
color = 4;
glyphname = uni0459;
lastChange = "2014-12-21 17:35:44 +0000";
layers = (
{
layerId = UUID0;
name = Regular;
paths = (
{
closed = 1;
nodes = (
"95 527 LINE",
"84 317 LINE SMOOTH",
"73 113 OFFCURVE",
"40 80 OFFCURVE",
"2 49 CURVE",
"35 -12 LINE",
"125 41 OFFCURVE",
"162 92 OFFCURVE",
"172 321 CURVE SMOOTH",
"178 456 LINE SMOOTH",
"279 456 LINE",
"279 0 LINE",
"380 0 LINE SMOOTH",
"510 0 OFFCURVE",
"593 59 OFFCURVE",
"593 183 CURVE SMOOTH",
"593 304 OFFCURVE",
"514 357 OFFCURVE",
"378 357 CURVE SMOOTH",
"365 357 LINE",
"365 527 LINE"
);
},
{
closed = 1;
nodes = (
"465 291 OFFCURVE",
"500 261 OFFCURVE",
"500 183 CURVE SMOOTH",
"500 94 OFFCURVE",
"459 69 OFFCURVE",
"384 69 CURVE SMOOTH",
"365 69 LINE",
"365 291 LINE",
"382 291 LINE SMOOTH"
);
}
);
width = 600;
},
{
layerId = "BF448B58-7A35-489E-A1C9-12628F60690C";
name = Bold;
paths = (
{
closed = 1;
nodes = (
"69 531 LINE",
"61 332 LINE SMOOTH",
"53 139 OFFCURVE",
"32 108 OFFCURVE",
"-9 79 CURVE",
"42 -20 LINE",
"151 35 OFFCURVE",
"182 91 OFFCURVE",
"191 320 CURVE SMOOTH",
"195 425 LINE",
"253 425 LINE",
"253 0 LINE",
"403 0 LINE SMOOTH",
"523 0 OFFCURVE",
"602 62 OFFCURVE",
"602 184 CURVE SMOOTH",
"602 307 OFFCURVE",
"538 366 OFFCURVE",
"391 366 CURVE SMOOTH",
"382 366 LINE",
"382 531 LINE"
);
},
{
closed = 1;
nodes = (
"446 272 OFFCURVE",
"464 247 OFFCURVE",
"464 186 CURVE SMOOTH",
"464 118 OFFCURVE",
"441 97 OFFCURVE",
"392 97 CURVE SMOOTH",
"382 97 LINE",
"382 272 LINE",
"391 272 LINE SMOOTH"
);
}
);
width = 600;
}
);
unicode = 0459;
userData = {
public.markColor = "0.67,0.95,0.38,1";
};
},
{
color = 4;
glyphname = uni045A;
lastChange = "2014-12-21 17:35:44 +0000";
layers = (
{
layerId = UUID0;
name = Regular;
paths = (
{
closed = 1;
nodes = (
"282 527 LINE",
"282 330 LINE",
"156 330 LINE",
"156 527 LINE",
"68 527 LINE",
"68 0 LINE",
"156 0 LINE",
"156 264 LINE",
"282 264 LINE",
"282 0 LINE",
"383 0 LINE SMOOTH",
"511 0 OFFCURVE",
"596 45 OFFCURVE",
"596 166 CURVE SMOOTH",
"596 284 OFFCURVE",
"515 330 OFFCURVE",
"381 330 CURVE SMOOTH",
"368 330 LINE",
"368 527 LINE"
);
},
{
closed = 1;
nodes = (
"466 264 OFFCURVE",
"503 241 OFFCURVE",
"503 166 CURVE SMOOTH",
"503 81 OFFCURVE",
"458 69 OFFCURVE",
"385 69 CURVE SMOOTH",
"368 69 LINE",
"368 264 LINE",
"385 264 LINE SMOOTH"
);
}
);
width = 600;
},
{
layerId = "BF448B58-7A35-489E-A1C9-12628F60690C";
name = Bold;
paths = (
{
closed = 1;
nodes = (
"255 531 LINE",
"255 344 LINE",
"162 344 LINE",
"162 531 LINE",
"32 531 LINE",
"32 0 LINE",
"162 0 LINE",
"162 245 LINE",
"255 245 LINE",
"255 0 LINE",
"390 0 LINE SMOOTH",
"526 0 OFFCURVE",
"605 56 OFFCURVE",
"605 173 CURVE SMOOTH",
"605 285 OFFCURVE",
"537 344 OFFCURVE",
"395 344 CURVE",
"385 344 LINE",
"385 531 LINE"
);
},
{
closed = 1;
nodes = (
"448 249 OFFCURVE",
"470 225 OFFCURVE",
"470 175 CURVE SMOOTH",
"470 120 OFFCURVE",
"443 101 OFFCURVE",
"388 101 CURVE",
"385 101 LINE",
"385 249 LINE",
"400 249 LINE SMOOTH"
);
}
);
width = 600;
}
);
unicode = 045A;
userData = {
public.markColor = "0.67,0.95,0.38,1";
};
},
{
color = 4;
glyphname = uni0454;
lastChange = "2014-12-21 17:35:44 +0000";
layers = (
{
layerId = UUID0;
name = Regular;
paths = (
{
closed = 1;
nodes = (
"181 539 OFFCURVE",
"89 420 OFFCURVE",
"89 261 CURVE SMOOTH",
"89 96 OFFCURVE",
"180 -12 OFFCURVE",
"339 -12 CURVE SMOOTH",
"400 -12 OFFCURVE",
"470 8 OFFCURVE",
"519 48 CURVE",
"475 108 LINE",
"432 76 OFFCURVE",
"387 63 OFFCURVE",
"340 63 CURVE SMOOTH",
"256 63 OFFCURVE",
"192 114 OFFCURVE",
"184 235 CURVE",
"422 235 LINE",
"422 305 LINE",
"185 305 LINE",
"198 413 OFFCURVE",
"260 466 OFFCURVE",
"340 466 CURVE SMOOTH",
"386 466 OFFCURVE",
"430 453 OFFCURVE",
"474 421 CURVE",
"519 480 LINE",
"469 520 OFFCURVE",
"408 539 OFFCURVE",
"340 539 CURVE SMOOTH"
);
}
);
width = 600;
},
{
layerId = "BF448B58-7A35-489E-A1C9-12628F60690C";
name = Bold;
paths = (
{
closed = 1;
nodes = (
"176 549 OFFCURVE",
"68 428 OFFCURVE",
"68 262 CURVE SMOOTH",
"68 96 OFFCURVE",
"168 -17 OFFCURVE",
"342 -17 CURVE SMOOTH",
"418 -17 OFFCURVE",
"490 7 OFFCURVE",
"541 47 CURVE",
"473 139 LINE",
"435 112 OFFCURVE",
"398 99 OFFCURVE",
"355 99 CURVE SMOOTH",
"287 99 OFFCURVE",
"239 133 OFFCURVE",
"230 221 CURVE",
"439 221 LINE",
"439 321 LINE",
"230 321 LINE",
"240 398 OFFCURVE",
"283 433 OFFCURVE",
"353 433 CURVE SMOOTH",
"392 433 OFFCURVE",
"434 420 OFFCURVE",
"473 393 CURVE",
"541 482 LINE",
"489 526 OFFCURVE",
"425 549 OFFCURVE",
"344 549 CURVE SMOOTH"
);
}
);
width = 600;
}
);
unicode = 0454;
userData = {
public.markColor = "0.67,0.95,0.38,1";
};
},
{
color = 4;
glyphname = uni044D;
lastChange = "2014-12-21 17:35:44 +0000";
layers = (
{
anchors = (
{
name = top;
position = "{295, 527}";
}
);
layerId = UUID0;
name = Regular;
paths = (
{
closed = 1;
nodes = (
"211 539 OFFCURVE",
"143 518 OFFCURVE",
"94 478 CURVE",
"137 420 LINE",
"180 452 OFFCURVE",
"226 466 OFFCURVE",
"276 466 CURVE SMOOTH",
"360 466 OFFCURVE",
"413 415 OFFCURVE",
"423 305 CURVE",
"181 305 LINE",
"181 235 LINE",
"424 235 LINE",
"416 114 OFFCURVE",
"358 63 OFFCURVE",
"271 63 CURVE SMOOTH",
"220 63 OFFCURVE",
"176 78 OFFCURVE",
"133 110 CURVE",
"89 51 LINE",
"138 10 OFFCURVE",
"205 -12 OFFCURVE",
"272 -12 CURVE SMOOTH",
"433 -12 OFFCURVE",
"519 101 OFFCURVE",
"519 266 CURVE SMOOTH",
"519 431 OFFCURVE",
"440 539 OFFCURVE",
"278 539 CURVE SMOOTH"
);
}
);
width = 600;
},
{
anchors = (
{
name = top;
position = "{301, 531}";
}
);
layerId = "BF448B58-7A35-489E-A1C9-12628F60690C";
name = Bold;
paths = (
{
closed = 1;
nodes = (
"199 549 OFFCURVE",
"125 526 OFFCURVE",
"75 484 CURVE",
"143 396 LINE",
"181 420 OFFCURVE",
"217 433 OFFCURVE",
"264 433 CURVE SMOOTH",
"329 433 OFFCURVE",
"368 399 OFFCURVE",
"377 321 CURVE",
"184 321 LINE",
"184 221 LINE",
"379 221 LINE",
"369 132 OFFCURVE",
"326 99 OFFCURVE",
"259 99 CURVE SMOOTH",
"215 99 OFFCURVE",
"177 110 OFFCURVE",
"139 137 CURVE",
"68 45 LINE",
"120 5 OFFCURVE",
"186 -17 OFFCURVE",
"263 -17 CURVE SMOOTH",
"440 -17 OFFCURVE",
"541 98 OFFCURVE",
"541 264 CURVE SMOOTH",
"541 432 OFFCURVE",
"444 549 OFFCURVE",
"277 549 CURVE SMOOTH"
);
}
);
width = 600;
}
);
unicode = 044D;
userData = {
public.markColor = "0.67,0.95,0.38,1";
};
},
{
color = 4;
glyphname = uni044E;
lastChange = "2014-12-21 17:35:44 +0000";
layers = (
{
layerId = UUID0;
name = Regular;
paths = (
{
closed = 1;
nodes = (
"270 539 OFFCURVE",
"214 449 OFFCURVE",
"206 306 CURVE",
"141 306 LINE",
"141 527 LINE",
"53 527 LINE",
"53 0 LINE",
"141 0 LINE",
"141 232 LINE",
"206 232 LINE",
"212 91 OFFCURVE",
"265 -12 OFFCURVE",
"386 -12 CURVE SMOOTH",
"515 -12 OFFCURVE",
"570 99 OFFCURVE",
"570 264 CURVE SMOOTH",
"570 435 OFFCURVE",
"512 539 OFFCURVE",
"386 539 CURVE SMOOTH"
);
},
{
closed = 1;
nodes = (
"454 466 OFFCURVE",
"476 401 OFFCURVE",
"476 264 CURVE SMOOTH",
"476 136 OFFCURVE",
"459 61 OFFCURVE",
"386 61 CURVE SMOOTH",
"315 61 OFFCURVE",
"298 136 OFFCURVE",
"298 263 CURVE SMOOTH",
"298 401 OFFCURVE",
"317 466 OFFCURVE",
"386 466 CURVE SMOOTH"
);
}
);
width = 600;
},
{
layerId = "BF448B58-7A35-489E-A1C9-12628F60690C";
name = Bold;
paths = (
{
closed = 1;
nodes = (
"276 549 OFFCURVE",
"223 458 OFFCURVE",
"213 323 CURVE",
"165 323 LINE",
"165 531 LINE",
"31 531 LINE",
"31 0 LINE",
"165 0 LINE",
"165 216 LINE",
"212 216 LINE",
"221 70 OFFCURVE",
"273 -17 OFFCURVE",
"398 -17 CURVE SMOOTH",
"537 -17 OFFCURVE",
"587 91 OFFCURVE",
"587 267 CURVE SMOOTH",
"587 438 OFFCURVE",
"536 549 OFFCURVE",
"398 549 CURVE SMOOTH"
);
},
{
closed = 1;
nodes = (
"440 444 OFFCURVE",
"450 390 OFFCURVE",
"450 267 CURVE SMOOTH",
"450 140 OFFCURVE",
"442 88 OFFCURVE",
"398 88 CURVE SMOOTH",
"355 88 OFFCURVE",
"347 140 OFFCURVE",
"347 266 CURVE SMOOTH",
"347 393 OFFCURVE",
"356 444 OFFCURVE",
"398 444 CURVE SMOOTH"
);
}
);
width = 600;
}
);
unicode = 044E;
userData = {
public.markColor = "0.67,0.95,0.38,1";
};
},
{
color = 4;
glyphname = uni0452;
lastChange = "2014-12-21 17:35:44 +0000";
layers = (
{
layerId = UUID0;
name = Regular;
paths = (
{
closed = 1;
nodes = (
"97 738 LINE",
"97 667 LINE",
"18 667 LINE",
"18 597 LINE",
"97 597 LINE",
"97 0 LINE",
"189 0 LINE",
"189 382 LINE",
"217 423 OFFCURVE",
"268 467 OFFCURVE",
"325 467 CURVE SMOOTH",
"385 467 OFFCURVE",
"412 440 OFFCURVE",
"412 377 CURVE SMOOTH",
"412 26 LINE SMOOTH",
"412 -87 OFFCURVE",
"378 -113 OFFCURVE",
"309 -145 CURVE",
"343 -212 LINE",
"449 -165 OFFCURVE",
"504 -120 OFFCURVE",
"504 32 CURVE SMOOTH",
"504 383 LINE SMOOTH",
"504 481 OFFCURVE",
"458 539 OFFCURVE",
"356 539 CURVE SMOOTH",
"294 539 OFFCURVE",
"231 510 OFFCURVE",
"189 460 CURVE",
"189 597 LINE",
"355 597 LINE",
"355 667 LINE",
"189 667 LINE",
"189 748 LINE"
);
}
);
width = 600;
},
{
layerId = "BF448B58-7A35-489E-A1C9-12628F60690C";
name = Bold;
paths = (
{
closed = 1;
nodes = (
"69 742 LINE",
"69 686 LINE",
"8 686 LINE",
"8 593 LINE",
"69 593 LINE",
"69 0 LINE",
"229 0 LINE",
"229 367 LINE",
"259 407 OFFCURVE",
"288 431 OFFCURVE",
"321 431 CURVE SMOOTH",
"352 431 OFFCURVE",
"371 415 OFFCURVE",
"371 371 CURVE SMOOTH",
"371 44 LINE SMOOTH",
"371 -46 OFFCURVE",
"328 -76 OFFCURVE",
"262 -105 CURVE",
"318 -222 LINE",
"454 -168 OFFCURVE",
"531 -111 OFFCURVE",
"531 82 CURVE SMOOTH",
"531 390 LINE SMOOTH",
"531 491 OFFCURVE",
"479 549 OFFCURVE",
"385 549 CURVE SMOOTH",
"325 549 OFFCURVE",
"273 523 OFFCURVE",
"229 477 CURVE",
"229 593 LINE",
"369 593 LINE",
"369 686 LINE",
"229 686 LINE",
"229 758 LINE"
);
}
);
width = 600;
}
);
unicode = 0452;
userData = {
public.markColor = "0.67,0.95,0.38,1";
};
},
{
color = 4;
glyphname = uni0463;
lastChange = "2014-12-21 17:35:44 +0000";
layers = (
{
layerId = UUID0;
name = Regular;
paths = (
{
closed = 1;
nodes = (
"140 646 LINE",
"140 537 LINE",
"56 537 LINE",
"56 467 LINE",
"140 467 LINE",
"140 0 LINE",
"302 0 LINE SMOOTH",
"442 0 OFFCURVE",
"542 47 OFFCURVE",
"542 181 CURVE SMOOTH",
"542 306 OFFCURVE",
"450 357 OFFCURVE",
"300 357 CURVE SMOOTH",
"232 357 LINE",
"232 467 LINE",
"354 467 LINE",
"365 537 LINE",
"232 537 LINE",
"232 657 LINE"
);
},
{
closed = 1;
nodes = (
"394 287 OFFCURVE",
"444 258 OFFCURVE",
"444 181 CURVE SMOOTH",
"444 92 OFFCURVE",
"386 72 OFFCURVE",
"309 72 CURVE SMOOTH",
"232 72 LINE",
"232 287 LINE",
"309 287 LINE SMOOTH"
);
}
);
width = 600;
},
{
layerId = "BF448B58-7A35-489E-A1C9-12628F60690C";
name = Bold;
paths = (
{
closed = 1;
nodes = (
"98 658 LINE",
"98 548 LINE",
"35 548 LINE",
"35 455 LINE",
"98 455 LINE",
"98 0 LINE",
"334 0 LINE SMOOTH",
"483 0 OFFCURVE",
"562 65 OFFCURVE",
"562 186 CURVE SMOOTH",
"562 309 OFFCURVE",
"478 369 OFFCURVE",
"307 369 CURVE SMOOTH",
"258 369 LINE",
"258 455 LINE",
"377 455 LINE",
"391 548 LINE",
"258 548 LINE",
"258 674 LINE"
);
},
{
closed = 1;
nodes = (
"370 264 OFFCURVE",
"397 241 OFFCURVE",
"397 189 CURVE SMOOTH",
"397 130 OFFCURVE",
"367 110 OFFCURVE",
"313 110 CURVE SMOOTH",
"258 110 LINE",
"258 264 LINE",
"308 264 LINE SMOOTH"
);
}
);
width = 600;
}
);
unicode = 0463;
userData = {
public.markColor = "0.67,0.95,0.38,1";
};
},
{
color = 4;
glyphname = uni0475;
lastChange = "2014-12-21 17:35:44 +0000";
layers = (
{
layerId = UUID0;
name = Regular;
paths = (
{
closed = 1;
nodes = (
"439 507 OFFCURVE",
"426 470 OFFCURVE",
"408 413 CURVE SMOOTH",
"302 78 LINE",
"155 527 LINE",
"57 527 LINE",
"246 0 LINE",
"353 0 LINE",
"488 384 LINE SMOOTH",
"509 444 OFFCURVE",
"524 479 OFFCURVE",
"552 521 CURVE",
"462 533 LINE"
);
}
);
width = 600;
},
{
layerId = "BF448B58-7A35-489E-A1C9-12628F60690C";
name = Bold;
paths = (
{
closed = 1;
nodes = (
"406 514 OFFCURVE",
"392 478 OFFCURVE",
"377 417 CURVE SMOOTH",
"303 122 LINE",
"201 531 LINE",
"28 531 LINE",
"207 0 LINE",
"395 0 LINE",
"517 377 LINE SMOOTH",
"541 452 OFFCURVE",
"556 485 OFFCURVE",
"579 519 CURVE",
"425 538 LINE"
);
}
);
width = 600;
}
);
unicode = 0475;
userData = {
public.markColor = "0.67,0.95,0.38,1";
};
},
{
color = 3;
glyphname = uni0493;
lastChange = "2014-12-21 17:35:44 +0000";
layers = (
{
components = (
{
name = uni0433;
transform = "{1, 0, 0, 1, 30, 0}";
}
);
layerId = UUID0;
name = Regular;
paths = (
{
closed = 1;
nodes = (
"184 303 LINE",
"92 303 LINE",
"92 233 LINE",
"400 233 LINE",
"400 303 LINE"
);
}
);
width = 600;
},
{
components = (
{
name = uni0433;
transform = "{1, 0, 0, 1, 26, 0}";
}
);
layerId = "BF448B58-7A35-489E-A1C9-12628F60690C";
name = Bold;
paths = (
{
closed = 1;
nodes = (
"147 312 LINE",
"72 312 LINE",
"72 212 LINE",
"423 212 LINE",
"423 312 LINE"
);
}
);
width = 600;
}
);
unicode = 0493;
userData = {
public.markColor = "0.97,1,0,1";
};
},
{
color = 3;
glyphname = uni0497;
lastChange = "2014-12-21 17:35:44 +0000";
layers = (
{
anchors = (
{
name = bottomright;
position = "{548, 0}";
}
);
components = (
{
name = "descStraight-cy";
transform = "{1, 0, 0, 1, 264, 0}";
}
);
layerId = UUID0;
name = Regular;
paths = (
{
closed = 1;
nodes = (
"339 0 LINE",
"339 245 LINE",
"390 245 LINE",
"487 0 LINE",
"578 0 LINE",
"461 283 LINE",
"569 527 LINE",
"481 527 LINE",
"392 313 LINE",
"339 313 LINE",
"339 527 LINE",
"261 527 LINE",
"261 313 LINE",
"208 313 LINE",
"122 527 LINE",
"31 527 LINE",
"139 283 LINE",
"22 0 LINE",
"111 0 LINE",
"208 245 LINE",
"261 245 LINE",
"261 0 LINE"
);
}
);
width = 600;
},
{
anchors = (
{
name = bottomright;
position = "{587, 0}";
}
);
components = (
{
name = "descStraight-cy";
transform = "{1, 0, 0, 1, 255, 0}";
}
);
layerId = "BF448B58-7A35-489E-A1C9-12628F60690C";
name = Bold;
paths = (
{
closed = 1;
nodes = (
"354 0 LINE",
"354 232 LINE",
"379 232 LINE",
"457 0 LINE",
"597 0 LINE",
"485 285 LINE",
"593 531 LINE",
"458 531 LINE",
"381 320 LINE",
"354 320 LINE",
"354 531 LINE",
"246 531 LINE",
"246 320 LINE",
"219 320 LINE",
"146 531 LINE",
"7 531 LINE",
"116 285 LINE",
"4 0 LINE",
"147 0 LINE",
"221 232 LINE",
"246 232 LINE",
"246 0 LINE"
);
}
);
width = 600;
}
);
unicode = 0497;
userData = {
public.markColor = "0.97,1,0,1";
};
},
{
color = 4;
glyphname = uni049D;
lastChange = "2014-12-21 17:35:44 +0000";
layers = (
{
layerId = UUID0;
name = Regular;
paths = (
{
closed = 1;
nodes = (
"194 0 LINE",
"194 243 LINE",
"238 243 LINE",
"238 120 LINE",
"285 120 LINE",
"285 243 LINE",
"312 243 LINE",
"471 0 LINE",
"571 0 LINE",
"386 284 LINE",
"545 527 LINE",
"450 527 LINE",
"312 315 LINE",
"285 315 LINE",
"285 430 LINE",
"238 430 LINE",
"238 315 LINE",
"194 315 LINE",
"194 527 LINE",
"102 527 LINE",
"102 0 LINE"
);
}
);
width = 600;
},
{
layerId = "BF448B58-7A35-489E-A1C9-12628F60690C";
name = Bold;
paths = (
{
closed = 1;
nodes = (
"223 0 LINE",
"223 234 LINE",
"257 234 LINE",
"257 117 LINE",
"309 117 LINE",
"309 234 LINE",
"327 234 LINE",
"420 0 LINE",
"587 0 LINE",
"452 285 LINE",
"573 531 LINE",
"419 531 LINE",
"327 318 LINE",
"309 318 LINE",
"309 433 LINE",
"257 433 LINE",
"257 318 LINE",
"223 318 LINE",
"223 531 LINE",
"72 531 LINE",
"72 0 LINE"
);
}
);
width = 600;
}
);
unicode = 049D;
userData = {
public.markColor = "0.67,0.95,0.38,1";
};
},
{
color = 4;
glyphname = uni04A1;
lastChange = "2014-12-21 17:35:44 +0000";
layers = (
{
layerId = UUID0;
name = Regular;
paths = (
{
closed = 1;
nodes = (
"222 0 LINE",
"222 243 LINE",
"312 243 LINE",
"480 0 LINE",
"589 0 LINE",
"389 283 LINE",
"563 527 LINE",
"462 527 LINE",
"314 315 LINE",
"222 315 LINE",
"222 527 LINE",
"130 517 LINE",
"130 0 LINE"
);
},
{
closed = 1;
nodes = (
"222 527 LINE",
"7 527 LINE",
"7 457 LINE",
"130 457 LINE"
);
}
);
width = 600;
},
{
layerId = "BF448B58-7A35-489E-A1C9-12628F60690C";
name = Bold;
paths = (
{
closed = 1;
nodes = (
"264 0 LINE",
"264 223 LINE",
"323 223 LINE",
"431 0 LINE",
"600 0 LINE",
"450 285 LINE",
"586 531 LINE",
"431 531 LINE",
"327 329 LINE",
"264 329 LINE",
"264 531 LINE",
"104 521 LINE",
"104 0 LINE"
);
},
{
closed = 1;
nodes = (
"264 531 LINE",
"0 531 LINE",
"0 417 LINE",
"104 417 LINE"
);
}
);
width = 600;
}
);
unicode = 04A1;
userData = {
public.markColor = "0.67,0.95,0.38,1";
};
},
{
color = 4;
glyphname = uni04AF;
lastChange = "2014-12-21 17:35:44 +0000";
layers = (
{
layerId = UUID0;
name = Regular;
paths = (
{
closed = 1;
nodes = (
"345 -202 LINE",
"345 15 LINE",
"546 527 LINE",
"451 527 LINE",
"302 101 LINE",
"152 527 LINE",
"54 527 LINE",
"255 15 LINE",
"255 -213 LINE"
);
}
);
width = 600;
},
{
layerId = "BF448B58-7A35-489E-A1C9-12628F60690C";
name = Bold;
paths = (
{
closed = 1;
nodes = (
"378 -205 LINE",
"378 5 LINE",
"577 531 LINE",
"414 531 LINE",
"303 139 LINE",
"197 531 LINE",
"23 531 LINE",
"222 4 LINE",
"222 -222 LINE"
);
}
);
width = 600;
}
);
unicode = 04AF;
userData = {
public.markColor = "0.67,0.95,0.38,1";
};
},
{
color = 3;
glyphname = uni04B1;
lastChange = "2014-12-21 17:35:44 +0000";
layers = (
{
components = (
{
name = uni04AF;
transform = "{1, 0, 0, 1, 0, 0}";
}
);
layerId = UUID0;
name = Regular;
paths = (
{
closed = 1;
nodes = (
"151 72 LINE",
"151 2 LINE",
"345 2 LINE",
"449 2 LINE",
"449 72 LINE"
);
}
);
width = 600;
},
{
components = (
{
name = uni04AF;
transform = "{1, 0, 0, 1, 0, 0}";
}
);
layerId = "BF448B58-7A35-489E-A1C9-12628F60690C";
name = Bold;
paths = (
{
closed = 1;
nodes = (
"127 72 LINE",
"127 -17 LINE",
"378 -17 LINE",
"474 -17 LINE",
"474 72 LINE"
);
}
);
width = 600;
}
);
unicode = 04B1;
userData = {
public.markColor = "0.97,1,0,1";
};
},
